/* XPM */
static char *result[] = {
/* columns rows colors chars-per-pixel */
"64 64 167 2 ",
"   c black",
".  c #010101",
"X  c gray1",
"o  c gray2",
"O  c #070707",
"+  c #090909",
"@  c #0B0B0B",
"#  c gray5",
"$  c #0E0E0E",
"%  c gray6",
"&  c #101010",
"*  c gray7",
"=  c #131313",
"-  c #151515",
";  c #161616",
":  c gray9",
">  c #181818",
",  c #191919",
"<  c gray10",
"1  c gray11",
"2  c #1D1D1D",
"3  c #1E1E1E",
"4  c gray12",
"5  c #202020",
"6  c gray13",
"7  c #222222",
"8  c #232323",
"9  c #252525",
"0  c #272727",
"q  c #282828",
"w  c gray16",
"e  c gray17",
"r  c gray18",
"t  c #313131",
"y  c gray20",
"u  c #343434",
"i  c #353535",
"p  c gray21",
"a  c #373737",
"s  c gray22",
"d  c #393939",
"f  c #3A3A3A",
"g  c gray23",
"h  c #3C3C3C",
"j  c gray24",
"k  c #3E3E3E",
"l  c #3F3F3F",
"z  c gray25",
"x  c #414141",
"c  c gray26",
"v  c #434343",
"b  c gray27",
"n  c gray28",
"m  c #494949",
"M  c #4B4B4B",
"N  c #4E4E4E",
"B  c gray31",
"V  c #505050",
"C  c gray32",
"Z  c gray33",
"A  c #565656",
"S  c gray34",
"D  c #585858",
"F  c gray35",
"G  c gray36",
"H  c gray37",
"J  c #5F5F5F",
"K  c gray38",
"L  c #626262",
"P  c gray39",
"I  c #646464",
"U  c #656565",
"Y  c gray40",
"T  c #676767",
"R  c #686868",
"E  c DimGray",
"W  c gray42",
"Q  c #6C6C6C",
"!  c #6D6D6D",
"~  c gray43",
"^  c #6F6F6F",
"/  c gray44",
"(  c #727272",
")  c gray45",
"_  c #747474",
"`  c gray46",
"'  c gray47",
"]  c #797979",
"[  c #7B7B7B",
"{  c gray49",
"}  c #7E7E7E",
"|  c #808080",
" . c gray51",
".. c #848484",
"X. c gray52",
"o. c gray53",
"O. c #898989",
"+. c #8B8B8B",
"@. c #8D8D8D",
"#. c #8E8E8E",
"$. c gray56",
"%. c #909090",
"&. c gray57",
"*. c #939393",
"=. c gray58",
"-. c #959595",
";. c gray59",
":. c #989898",
">. c gray60",
",. c #9A9A9A",
"<. c #9B9B9B",
"1. c gray61",
"2. c #9D9D9D",
"3. c #9F9F9F",
"4. c #A0A0A0",
"5. c gray63",
"6. c #A2A2A2",
"7. c gray64",
"8. c #A4A4A4",
"9. c gray65",
"0. c #A7A7A7",
"q. c gray66",
"w. c #A9A9A9",
"e. c #AAAAAA",
"r. c gray67",
"t. c #ACACAC",
"y. c gray68",
"u. c #AFAFAF",
"i. c #B1B1B1",
"p. c #B4B4B4",
"a. c #B6B6B6",
"s. c #B7B7B7",
"d. c gray72",
"f. c #B9B9B9",
"g. c gray73",
"h. c #BBBBBB",
"j. c #BCBCBC",
"k. c gray75",
"l. c #C1C1C1",
"z. c gray77",
"x. c gray78",
"c. c #CACACA",
"v. c gray80",
"b. c #CDCDCD",
"n. c #CECECE",
"m. c gray81",
"M. c gray82",
"N. c #D2D2D2",
"B. c LightGray",
"V. c #D5D5D5",
"C. c gray84",
"Z. c #D7D7D7",
"A. c #D8D8D8",
"S. c #DADADA",
"D. c #DDDDDD",
"F. c #DFDFDF",
"G. c gray88",
"H. c #E1E1E1",
"J. c #E2E2E2",
"K. c gray89",
"L. c #E4E4E4",
"P. c gray93",
"I. c #EFEFEF",
"U. c #F3F3F3",
"Y. c #FEFEFE",
"T. c white",
"R. c None",
/* pixels */
"R.R.R.R.R.R.R.R.R.R.R.R.R.R.R.R.R.R.R.R.R.R.R.R.R.R.R.R.R.R.R.R.R.R.R.R.R.R.R.R.R.R.R.R.R.R.R.R.R.R.R.R.R.R.R.R.R.R.R.R.R.R.R.R.",
"R.R.R.R.R.R.R.R.R.R.R.R.R.R.R.R.R.R.R.R.R.R.R.R.R.R.R.R.R.R.R.R.R.R.R.R.R.R.R.R.R.R.R.R.R.R.R.R.R.R.R.R.R.R.R.R.R.R.R.R.R.R.R.R.",
"R.R.R.R.R.R.R.R.R.R.R.R.R.R.R.R.R.R.R.R.R.R.R.R.R.R.R.R.R.R.R.R.R.R.R.R.R.R.R.R.R.R.R.R.R.R.R.R.R.R.R.R.R.R.R.R.R.R.R.R.R.R.R.R.",
"R.R.R.R.R.R.R.R.R.R.R.R.R.R.R.R.R.R.R.R.R.R.R.R.R.R.R.R.R.R.R.R.R.R.R.R.R.R.R.R.R.R.R.R.R.R.R.R.R.R.R.R.R.R.R.R.R.R.R.R.R.R.R.R.",
"R.R.R.R.R.R.R.R.R.R.R.R.R.R.R.R.R.R.R.R.R.R.R.R.R.R.R.R.R.R.R.R.R.R.R.R.R.R.R.R.R.R.R.R.R.R.R.R.R.R.R.R.R.R.R.R.R.R.R.R.R.R.R.R.",
"R.R.R.R.R.R.R.R.R.R.R.R.R.R.R.R.R.R.R.R.R.R.R.R.R.R.R.R.R.R.R.R.R.R.R.R.R.R.R.R.R.R.R.R.R.R.R.R.R.R.R.R.R.R.R.R.R.R.R.R.R.R.R.R.",
"R.R.R.R.R.R.R.R.R.R.R.R.R.R.R.R.R.R.R.R.R.R.R.R.R.R.R.R.R.R.R.R.R.R.R.R.R.R.R.R.R.R.R.R.R.R.R.R.R.R.R.R.R.R.R.R.R.R.R.R.R.R.R.R.",
"R.R.R.R.R.R.R.R.R.R.R.R.R.R.R.R.R.R.R.R.R.R.R.R.R.R.R.R.R.R.R.R.R.R.R.R.R.R.R.R.R.R.R.R.R.R.R.R.R.R.R.R.R.R.R.R.R.R.R.R.R.R.R.R.",
"R.R.R.R.R.R.R.R.R.R.R.R.R.R.R.R.R.R.R.R.R.R.R.R.R.R.R.R.R.R.R.R.R.R.R.R.R.R.R.R.R.R.R.R.R.R.R.R.R.R.R.R.R.R.R.R.R.R.R.R.R.R.R.R.",
"R.R.R.R.R.R.R.R.R.R.R.R.R.R.R.R.R.R.R.R.R.R.R.R.R.R.R.R.R.R.R.R.R.R.R.R.R.R.R.R.R.R.R.R.R.R.R.R.R.R.R.R.R.R.R.R.R.R.R.R.R.R.R.R.",
"R.R.R.R.R.R.R.R.R.R.R.R.R.R.R.R.R.R.R.R.R.R.R.R.R.R.R.R.R.R.R.R.R.R.R.R.R.R.R.R.R.R.R.R.R.R.R.R.R.R.R.R.R.R.R.R.R.R.R.R.R.R.R.R.",
"R.R.R.R.R.R.R.R.R.R.R.R.R.R.R.R.R.R.R.R.R.R.R.R.R.R.R.R.R.R.R.R.R.R.R.R.R.R.R.R.R.R.R.R.R.R.R.R.R.R.R.R.R.R.R.R.R.R.R.R.R.R.R.R.",
"R.R.R.R.R.R.R.R.R.R.R.R.R.R.R.R.R.R.R.R.R.R.R.R.R.R.R.R.R.R.R.R.R.R.R.R.R.R.R.R.R.R.R.R.R.R.R.R.R.R.R.R.R.R.R.R.R.R.R.R.R.R.R.R.",
"R.R.R.R.R.R.R.R.R.R.R.R.R.R.R.R.R.R.R.R.R.R.R.R.R.R.R.R.R.R.R.R.R.R.R.R.R.R.R.R.R.R.R.R.R.R.R.R.R.R.R.R.R.R.R.R.R.R.R.R.R.R.R.R.",
"R.R.R.R.R.R.R.R.R.R.R.R.R.R.R.R.R.R.R.R.R.R.R.R.R.R.R.R.R.R.R.R.R.R.R.R.R.R.R.R.R.R.R.R.R.R.R.R.R.R.R.R.R.R.R.R.R.R.R.R.R.R.R.R.",
"R.R.R.R.R.R.R.R.R.R.R.R.R.R.R.R.R.R.R.R.R.R.R.R.R.R.R.R.                      R.R.R.R.R.R.R.R.R.R.R.R.R.R.R.R.R.R.R.R.R.R.R.R.R.",
"R.R.R.R.R.R.R.R.R.R.R.R.R.R.R.R.R.R.R.R.R.R.R.R.R.R.R.  Z H  . . . . . . . .W ;   R.R.R.R.R.R.R.R.R.R.R.R.R.R.R.R.R.R.R.R.R.R.R.",
"R.R.R.R.R.R.R.R.R.R.R.R.R.R.R.R.R.R.R.R.R.R.R.R.R.. A <.<.<.<.<.<.<.<.<.<.<.<.<./ . . R.R.R.R.R.R.R.R.R.R.R.R.R.R.R.R.R.R.R.R.R.",
"R.R.R.R.R.R.R.R.R.R.R.R.R.R.R.R.R.R.R.R.R.R.  1 p <.<.<.<.<.<.<.<.<.<.<.<.<.<.<.<.;.F : R.R.R.R.R.R.R.R.R.R.R.R.R.R.R.R.R.R.R.R.",
"R.R.R.R.R.R.R.R.R.R.R.R.R.R.R.R.R.R.R.R.R.R.  I / 9.q.<.<.<.<.<.<.<.<.<.<.<.<.<.<.<.8.' 5 R.R.R.R.R.R.R.R.R.R.R.R.R.R.R.R.R.R.R.",
"R.R.R.R.R.R.R.R.R.R.R.R.R.R.R.R.R.R.R.R.R.R.R.X N f.Z.0.<.<.<.<.<.<.<.<.<.<.<.<.<.5.N.z.W ; R.R.R.R.R.R.R.R.R.R.R.R.R.R.R.R.R.R.",
"R.R.R.R.R.R.R.R.R.R.R.R.R.R.R.R.R.R.R.R.R.R.R.X ' 8.N.S.B.<.<.<.<.<.<.<.<.<.<.<.N.Z.S.0.<.)   R.R.R.R.R.R.R.R.R.R.R.R.R.R.R.R.R.",
"R.R.R.R.R.R.R.R.R.R.R.R.R.R.R.R.R.R.R.R.R.R.R.X ^ ..5.9.L.S.#.H.H.t.' 6.H.H.2.v.P.J.6.O._ -.X.  R.R.R.R.R.R.R.R.R.R.R.R.R.R.R.R.",
"R.R.R.R.R.R.R.R.R.R.R.R.R.R.R.R.R.R.R.R.R.R.R.X ~ { { O.>.;.~ } -._ O ^ ,.,.{ %.<.<.,.<.s .     R.R.R.R.R.R.R.R.R.R.R.R.R.R.R.R.",
"R.R.R.R.R.R.R.R.R.R.R.R.R.R.R.R.R.R.R.R.R.R.R.X E b 0 0 C ~ R y 5 p o + T  .w D &.O.E ;.<.i R.R.R.R.R.R.R.R.R.R.R.R.R.R.R.R.R.R.",
"R.R.R.R.R.R.R.R.R.R.R.R.R.R.R.R.R.R.R.R.R.R.R.X D b %.$.B b y q k.T.Q   = b , p ! H - Y -.<.  R.R.R.R.R.R.R.R.R.R.R.R.R.R.R.R.R.",
"R.R.R.R.R.R.R.R.R.R.R.R.R.R.R.R.R.R.R.R.R.R.R.R.0 b +.l q.  7 j.T.T.T.|   1 :   t e   > k b   R.R.R.R.R.R.R.R.R.R.R.R.R.R.R.R.R.",
"R.R.R.R.R.R.R.R.R.R.R.R.R.R.R.R.R.R.R.R.R.R.R.R.  b z.d f.M * *.T.T.T.L.; ` j   p.3.  R.R.R.R.R.R.R.R.R.R.R.R.R.R.R.R.R.R.R.R.R.",
"R.R.R.R.R.R.R.R.R.R.R.R.R.R.R.R.R.R.R.R.R.R.R.R.  b c.h l.! M @ < < I.L.t i.b s.Y.S.  R.R.R.R.R.R.R.R.R.R.R.R.R.R.R.R.R.R.R.R.R.",
"R.R.R.R.R.R.R.R.R.R.R.R.R.R.R.R.R.R.R.R.R.R.R.X Y v ( c.C.a.9.) ) 7 + X n V.D # + O   R.R.R.R.R.R.R.R.R.R.R.R.R.R.R.R.R.R.R.R.R.",
"R.R.R.R.R.R.R.R.R.R.R.R.R.R.R.R.R.R.R.R.R.R.R.    4 u 1 -.s.k.k.k.-.O.n A.p.g.z.O._   R.R.R.R.R.R.R.R.R.R.R.R.R.R.R.R.R.R.R.R.R.",
"R.R.R.R.R.R.R.R.R.R.R.R.R.R.R.R.R.R.R.R.R.R.R.R.    8 z O ( b.A.A.A...| | | a.A.A.f.  R.R.R.R.R.R.R.R.R.R.R.R.R.R.R.R.R.R.R.R.R.",
"R.R.R.R.R.R.R.R.R.R.R.R.R.R.R.R.R.R.R.    P | | U % 0 0 o o E v.A.' &.-.-.C o.A.A.Z R.R.R.R.R.R.R.R.R.R.R.R.R.R.R.R.R.R.R.R.R.R.",
"R.R.R.R.R.R.R.R.R.R.R.R.R.R.R.R.R.R.  a 8.x.A.B.u d v v O S ) r X.r I.T.c.Q z.A.d R.R.R.R.R.R.R.R.R.R.R.R.R.R.R.R.R.R.R.R.R.R.R.",
"R.R.R.R.R.R.R.R.R.R.R.R.R.R.R.R.R.  6 n.A.A.A.% $ v v v l = p.w.N X * * # O % % R.R.R.R.R.R.R.R.R.R.R.R.R.R.R.R.R.R.R.R.R.R.R.R.",
"R.R.R.R.R.R.R.R.R.R.R.R.R.R.R.R.    j.A.A.A.y 8.&., v v v l O O O O l v v v v v + R.R.R.R.R.R.R.R.R.R.R.R.R.R.R.R.R.R.R.R.R.R.R.",
"R.R.R.R.R.R.R.R.R.R.R.R.R.R.R.  ,   j.A.A.A.A.l :., d n b v v v v v N N v v v v v * R.R.R.R.R.R.R.R.R.R.R.R.R.R.R.R.R.R.R.R.R.R.",
"R.R.R.R.R.R.R.R.R.R.R.R.R.R.R.5 P . ` n.A.A.A.V.Y e 3 C F S S S S S ~ W v i 9 j v e v R.R.R.R.R.R.R.R.R.R.R.R.R.R.R.R.R.R.R.R.R.",
"R.R.R.R.R.R.R.R.R.R.R.R.R.R.R.n ~ b @ K y.M.A.V o < # C / / / / / / / w < $   - < [ 4.n R.R.R.R.R.R.R.R.R.R.R.R.R.R.R.R.R.R.R.R.",
"R.R.R.R.R.R.R.R.R.R.R.R.R.R.R.n ~ 9.' + 4 e r         C / / / / / / 2 :.q 1.e.e.%.0 Z 7.s R.R.R.R.R.R.R.R.R.R.R.R.R.R.R.R.R.R.R.",
"R.R.R.R.R.R.R.R.R.R.R.R.R.R.R.o *.a.a.u.A       R.R.  C / / / / / / O l.h Z.A.A.Z.F X H j R.R.R.R.R.R.R.R.R.R.R.R.R.R.R.R.R.R.R.",
"R.R.R.R.R.R.R.R.R.R.R.R.R.R.R.R.        R.R.R.R.R.R.+ Z / / / / / W O 0.h A.A.A.A.3.y C ] 3 R.R.R.R.R.R.R.R.R.R.R.R.R.R.R.R.R.R.",
"R.R.R.R.R.R.R.R.R.R.R.R.R.R.R.R.R.R.R.R.R.R.R.R.R.R.9 P / / / / / N > * h A.A.A.A.f.m _ ] 3 R.R.R.R.R.R.R.R.R.R.R.R.R.R.R.R.R.R.",
"R.R.R.R.R.R.R.R.R.R.R.R.R.R.R.R.R.R.R.R.R.R.R.R.R.R.9 Z G G G G G m v h a m.A.A.A.f.m _ L > R.R.R.R.R.R.R.R.R.R.R.R.R.R.R.R.R.R.",
"R.R.R.R.R.R.R.R.R.R.R.R.R.R.R.R.R.R.R.R.R.R.R.R.R.- s D K K K K K K K z t [ M.A.A.B G M K * R.R.R.R.R.R.R.R.R.R.R.R.R.R.R.R.R.R.",
"R.R.R.R.R.R.R.R.R.R.R.R.R.R.R.R.R.R.R.R.R.R.R.R.R.0 R e - - - - - - - R U x 9 0 0 o * @ - R.R.R.R.R.R.R.R.R.R.R.R.R.R.R.R.R.R.R.",
"R.R.R.R.R.R.R.R.R.R.R.R.R.R.R.R.R.R.R.R.R.R.R.R.    . m P =.O.P P P P . .   e # R.R.R.R.R.R.R.R.R.R.R.R.R.R.R.R.R.R.R.R.R.R.R.R.",
"R.R.R.R.R.R.R.R.R.R.R.R.R.R.R.R.R.R.R.R.R.R.> w 3.*.@.@.R -.O.I  .-.-./ $. .w   R.R.R.R.R.R.R.R.R.R.R.R.R.R.R.R.R.R.R.R.R.R.R.R.",
"R.R.R.R.R.R.R.R.R.R.R.R.R.R.R.R.R.R.R.R.R.c 5.K.k.O.W M c P G c A O.u.w.] ..y R.R.R.R.R.R.R.R.R.R.R.R.R.R.R.R.R.R.R.R.R.R.R.R.R.",
"R.R.R.R.R.R.R.R.R.R.R.R.R.R.R.R.R.R.R.R.N l.L.h.-.-.[ z o     - x 6.H.G.r.( b @ R.R.R.R.R.R.R.R.R.R.R.R.R.R.R.R.R.R.R.R.R.R.R.R.",
"R.R.R.R.R.R.R.R.R.R.R.R.R.R.R.R.R.R.R.R.F u.u.=._ _ n 5 X     # U M.L.L.D.r./ - R.R.R.R.R.R.R.R.R.R.R.R.R.R.R.R.R.R.R.R.R.R.R.R.",
"R.R.R.R.R.R.R.R.R.R.R.R.R.R.R.R.R.R.R.5 K W W W Z % O   R.R.R.  l x.L.L.L.F.%.- R.R.R.R.R.R.R.R.R.R.R.R.R.R.R.R.R.R.R.R.R.R.R.R.",
"R.R.R.R.R.R.R.R.R.R.R.R.R.R.R.R.R.R.R.8 I I * X X   R.R.R.R.R.R.  / F.L.L.L.p.~ X R.R.R.R.R.R.R.R.R.R.R.R.R.R.R.R.R.R.R.R.R.R.R.",
"R.R.R.R.R.R.R.R.R.R.R.R.R.R.R.R.R.R.& I I I #.! V   R.R.R.R.R.R.R.z v.L.L.D.y.~ X R.R.R.R.R.R.R.R.R.R.R.R.R.R.R.R.R.R.R.R.R.R.R.",
"R.R.R.R.R.R.R.R.R.R.R.R.R.R.R.R.R.R.& I I I | =.S : R.R.R.R.R.R.R.  [ x.x.i.+.W X 4   R.R.R.R.R.R.R.R.R.R.R.R.R.R.R.R.R.R.R.R.R.",
"R.R.R.R.R.R.R.R.R.R.R.R.R.R.R.R.R.R.& I I I I =.I k R.R.R.R.R.R.R.R.r [ [ [ Q I a H p 1   R.R.R.R.R.R.R.R.R.R.R.R.R.R.R.R.R.R.R.",
"R.R.R.R.R.R.R.R.R.R.R.R.R.R.R.R.R.  M I I I I =.I k R.R.R.R.R.R.R.R.  I I I I I I I I A >   R.R.R.R.R.R.R.R.R.R.R.R.R.R.R.R.R.R.",
"R.R.R.R.R.R.R.R.R.R.R.R.R.R.R.R.    6 $.] I I W I k R.R.R.R.R.R.R.R.R.- I I I I I I I I G $   R.R.R.R.R.R.R.R.R.R.R.R.R.R.R.R.R.",
"R.R.R.R.R.R.R.R.R.R.R.R.R.R.R.$  .<...+ M @.@.@.J g R.R.R.R.R.R.R.R.R.R.1 K I Y T T T T T I   R.R.R.R.R.R.R.R.R.R.R.R.R.R.R.R.R.",
"R.R.R.R.R.R.R.R.R.R.R.R.R.R.R.8.T.T.U.y.( f f 7 1   R.R.R.R.R.R.R.R.R.R.R.q G / ) ) ) ) ) Z     R.R.R.R.R.R.R.R.R.R.R.R.R.R.R.R.",
"R.R.R.R.R.R.R.R.R.R.R.R.R.R.R.P >.>.>.>.>.>.>.F n   R.R.R.R.R.R.R.R.R.R.R.R.0 h I Y Y u     g   R.R.R.R.R.R.R.R.R.R.R.R.R.R.R.R.",
"R.R.R.R.R.R.R.R.R.R.R.R.R.R.R.R.R.R.R.R.R.R.R.R.R.R.R.R.R.R.R.R.R.R.R.R.R.R.i d.Y.T.T.c.&.J z R.R.R.R.R.R.R.R.R.R.R.R.R.R.R.R.R.",
"R.R.R.R.R.R.R.R.R.R.R.R.R.R.R.R.R.R.R.R.R.R.R.R.R.R.R.R.R.R.R.R.R.R.R.R.R.R.6 h c c c c c e R.R.R.R.R.R.R.R.R.R.R.R.R.R.R.R.R.R.",
"R.R.R.R.R.R.R.R.R.R.R.R.R.R.R.R.R.R.R.R.R.R.R.R.R.R.R.R.R.R.R.R.R.R.R.R.R.R.R.R.R.R.R.R.R.R.R.R.R.R.R.R.R.R.R.R.R.R.R.R.R.R.R.R."
};
