/* XPM */
static char *result[] = {
/* columns rows colors chars-per-pixel */
"64 64 176 2 ",
"   c black",
".  c #020102",
"X  c #040305",
"o  c #060508",
"O  c #07070B",
"+  c #0A0A0E",
"@  c #0D0F14",
"#  c #1A0F17",
"$  c #1F0E17",
"%  c #111016",
"&  c #151118",
"*  c #240D17",
"=  c #2A0B18",
"-  c #320C1B",
";  c #3B0E1F",
":  c #1C1F26",
">  c #1B1F28",
",  c #3F1B27",
"<  c #1E2025",
"1  c #1B202B",
"2  c #1C212D",
"3  c #1C232F",
"4  c #1D2632",
"5  c #1E2937",
"6  c #272226",
"7  c #2C2426",
"8  c #342328",
"9  c #392228",
"0  c #202B3B",
"q  c #410F21",
"w  c #441024",
"e  c #411726",
"r  c #731F3D",
"t  c #5F2435",
"y  c #572F33",
"u  c #543432",
"i  c #523734",
"p  c #513A35",
"a  c #513D39",
"s  c #632236",
"d  c #652137",
"f  c #682038",
"g  c #6B2039",
"h  c #4D403E",
"j  c #1F3141",
"k  c #1D3846",
"l  c #1D3D4F",
"z  c #2F3445",
"x  c #233A48",
"c  c #203B4A",
"v  c #333444",
"b  c #353544",
"n  c #363645",
"m  c #3A3946",
"M  c #3E3D4A",
"N  c #7C1E40",
"B  c #3D5564",
"V  c #3A5966",
"C  c #335F69",
"Z  c #2F616B",
"A  c #2C6271",
"S  c #2B6578",
"D  c #31707F",
"F  c #4B4241",
"G  c #484247",
"H  c #42404B",
"J  c #465165",
"K  c #4B5166",
"L  c #4F5267",
"P  c #52546D",
"I  c #555672",
"U  c #575876",
"Y  c #595978",
"T  c #5B5B7B",
"R  c #5D5D7F",
"E  c #7F5A62",
"W  c #78606B",
"Q  c #6F6574",
"!  c #67677C",
"~  c #6B6879",
"^  c #892147",
"/  c #94234C",
"(  c #9D2350",
")  c #9D3756",
"_  c #A12852",
"`  c #A03155",
"'  c #96435A",
"]  c #92475B",
"[  c #8A525E",
"{  c #B8717B",
"}  c #C86E77",
"|  c #D16A76",
" . c #D96978",
".. c #C17078",
"X. c #337383",
"o. c #347784",
"O. c #387988",
"+. c #3D7E8B",
"@. c #5D5D80",
"#. c #5E5E80",
"$. c #616280",
"%. c #A57F86",
"&. c #AF7A80",
"*. c #E54E82",
"=. c #E95387",
"-. c #E9598B",
";. c #E97297",
":. c #EA7E9C",
">. c #41838F",
",. c #458892",
"<. c #478A96",
"1. c #678499",
"2. c #5E90A9",
"3. c #5B95AD",
"4. c #579AB5",
"5. c #5A99B0",
"6. c #58A7AD",
"7. c #59ABAB",
"8. c #5CAFAD",
"9. c #5EB1AE",
"0. c #59A0B0",
"q. c #5FB4B0",
"w. c #61B7B2",
"e. c #62B8B3",
"r. c #63BAB4",
"t. c #70B9BB",
"y. c #74B9BD",
"u. c #7ABCBF",
"i. c #9F888B",
"p. c #9B9195",
"a. c #9E969C",
"s. c #A59DA6",
"d. c #A8A4B2",
"f. c #A8A7B7",
"g. c #A9A9BA",
"h. c #ABABBC",
"j. c #ACADBC",
"k. c #B0B2BD",
"l. c #B0B4BE",
"z. c #EB879E",
"x. c #EB9E9D",
"c. c #EAA19C",
"v. c #EAA59D",
"b. c #E9A99D",
"n. c #E8AE9E",
"m. c #ED99A0",
"M. c #E8B3A1",
"N. c #EABAA5",
"B. c #EBBDA8",
"V. c #ECBEA9",
"C. c #EFC1AC",
"Z. c #F0C3AD",
"A. c #F2C6B0",
"S. c #F3C8B2",
"D. c #F4CAB4",
"F. c #F7CEB8",
"G. c #F7CFB9",
"H. c #85BCC2",
"J. c #8FBEC4",
"K. c #96BEC4",
"L. c #AFB7C1",
"P. c #ACB9C2",
"I. c #C9D6DA",
"U. c #D3D3D1",
"Y. c #C4DAE1",
"T. c #C5DFE4",
"R. c #CBE4E6",
"E. c #DFE6E8",
"W. c #D3E9EA",
"Q. c #E4E7E9",
"!. c #F1F1F2",
"~. c #F5F6F6",
"^. c gray99",
"/. c #FDFDFD",
"(. c #FFFEFE",
"). c None",
/* pixels */
").).).).).).).).).).).).).).).).).).).).).).).).).).).).).).).).).).).).).).).).).).).).).).).).).).).).).).).).).).).).).).).).",
").).).).).).).).).).).).).).).).).).).).).).).).).).).).).).).).).).).).).).).).).).).).).).).).).).).).).).).).).).).).).).).).",
").).).).).).).).).).).).).).).).).).).).).).).).).).).).).).).).).).).).).).).).).).).).).).).).).).).).).).).).).).).).).).).).",
").).).).).).).).).).).).).).).).).).).).).).).).).).).).).).).).).).).).).).).).).).).).).).).).).).).).).).).).).).).).).).).).",
").).).).).).).).).).).).).).).).).).).).).).).).).).).).).).).).).).).).).).).).).).).).).).).).).).).).).).).).).).).).).).).).",
").).).).).).).).).).).).).).).).).).).).).).).).).).).).).).).).).).).).).).).).).).).).).).).).).).).).).).).).).).).).).).).).",
").).).).).).).).).).).).).).).).).).).).).).).).).).).).).).).).).).).).).).).).).).).).).).).).).).).).).).).).).).).).).).).).",
").).).).).).).).).).).).).).).).).).).).).).).).).).).).).).).).).).).).).).).).).).).).).).).).).).).).).).).).).).).).).).).).",
").).).).).).).).).).).).).).).).).).).).).).).).).).).).).).).).).).).).).).).).).).).).).).).).).).).).).).).).).).).).).).).).",
").).).).).).).).).).).).).).).).).).).).).).).).).).).).).).).).).).).).).).).).).).).).).).).).).).).).).).).).).).).).).).).).",
").).).).).).).).).).).).).).).).).).).).).).).).).).).).).).).).).).).).).).).).).).).).).).).).).).).).).).).).).).).).).).).).",
").).).).).).).).).).).).).).).).).).).).).).).).).).).).).).).).).).).).).).).).).).).).).).).).).).).).).).).).).).).).).).).).",
").).).).).).).).).).).).).).).).).).).).).).).).).).).).).).).).).).).).).).).).).).).).).).).).).).).).).).).).).).).).).).).).",
").).).).).).).).).).).).).).).).).).).).).).).).).).).).).).).).).).).).).).).).).).).).).).).).).).).).).).).).).).).).).).).).",
").).).).).).).).).).).).).).).).).).).).).).).).).).).).).).).).).).).).).).).).).).).).).).).).).).).).).).).).).).).).).).).).",
").).).).).).).).).).).).).).).).).).).).).).).).).).).).).).).).).).).).).).).).).).).).).).).).).).).).).).).).).).).).).).).).",
").).).).).).).).).).).).).).).).).).).).).).).).).).).).).).).).).).).).).).).).).).).).).).).).).).).).).).).).).).).).).).).).",
").).).).).).).).).).).).).).).).4 n H 6   ).).).).).).).).).).).).).).).).).).).).).).).).).).).).).).).).).).).).).).).).).).).",
").).).).).).).).).).).).).).).M ~ f.f.b + 2 +       ).      ).).).).).).).).).).).).).).).).).).).).).).).).).).).).).).).).).).",
").).).).).).).).).).).).).).> T ~ p.7 1.: z : ,.r.r.Z : 0 T & ).).).).).).).).).).).).).).).).).).).).).).).).).).).).).).).).).",
").).).).).).).).).).).).).).o > 2 v g.L $.0 ,.r.r.r.r.6.k H p.H ).).).).).).).).).).).).).).).).).).).).).).).).).).).).).).).).",
").).).).).).).).).).).).).).@ 0 v T + f.: ,.r.r.r.r.r.r.7.5 d.L ).).).).).).).).).).).).).).).).).).).).).).).).).).).).).).).).",
").).).).).).).).).).).).).  & & : z #.J <.r.r.r.r.r.r.r.r.r.k : ).).).).).).).).).).).).).).).).).).).).).).).).).).).).).).).).",
").).).).).).).).).).).).).  0 5 z T @ 9.r.r.r.r.r.r.r.r.r.r.6.  ).).).).).).).).).).).).).).).).).).).).).).).).).).).).).).).).",
").).).).).).).).).).).).  D + > > 5 r.r.r.r.r.r.u.J.u.6.r.r.r.C ).).).).).).).).).).).).).).).).).).).).).).).).).).).).).).).).",
").).).).).).).).).).).).  D + O A K.T.T.T.T.T.T.W.W.9.4 r.r.r.C ).).).).).).).).).).).).).).).).).).).).).).).).).).).).).).).).",
").).).).).).).).).).).).  D % O ,.r.R.R.R.R.R.T.q.Z x X t.W.W.~ ).).).).).).).).).).).).).).).).).).).).).).).).).).).).).).).).",
").).).).).).).).).).).).  D A l r.r.r.r.r.r.r.<.C u [ a l H.W.J ).).).).).).).).).).).).).).).).).).).).).).).).).).).).).).).).",
").).).).).).).).).).).).  D o.o.+.e.e.w.w.B o     |  . .< 6.r.C ).).).).).).).).).).).).).).).).).).).).).).).).).).).).).).).).",
").).).).).).).).).).).).  D o.o.o.o.o.:   a.(.    v.G.7 P.3 q.V ).).).).).).).).).).).).).).).).).).).).).).).).).).).).).).).).",
").).).).).).).).).).).).k o.o.o.o.o.o.k   (.(.L.  D.G.7 ~.G O.o.O ).).).).).).    ).).).).).).).).).).).).).).).).).).).).).).).",
").).).).).).).).).).).).3 X o.>.8.O.o.C ..9 p p &.G.C.N.p & D k o.: ).).).: & I 1.G ).).).).).).).).).).).).).).).).).).).).).).",
").).).).).).).).).).).).).  >.w.r.<.o.,.u c.G.G.G.G.C.N.G.h D k < @   % H #.U m j.j.  ).).).).).).).).).).).).).).).).).).).).).",
").).).).).).).).).).).).).  l   9.,.X D 7.9 n.G.G.6 W G.i.l o.k ).+ K #.#.#.#.#.K j.a.).).).).).).).).).).).).).).).).).).).).).",
").).).).).).).).).).).).).).).).k o.. j k > 9 E E E E E ).).k @   #.#.#.#.#.#.#.L a.d.m ).).).).).).).).).).).).).).).).).).).).",
").).).).).).).).).).).).).).).).).. S . A 4.5 | | X   ).).).).).  #.#.#.#.#.#.#.P 1.j.L ).).).).).).).).).).).).).).).).).).).).",
").).).).).).).).).).).).).).).).@ S X K.4.4.4.c W %.u   ).).).).).1 #.#.#.@.J T I ! j.~ ).).).).).).).).).).).).).).).).).).).).",
").).).).).).).).).).).).).).).).@ j <.Y.4.C O.4.<.>.>.@ ` ).).).).1 #.#.#.R 0 U #.n j.j.o ).).).).).).).).).).).).).).).).).).).",
").).).).).).).).).).).).).).).).).@ H.K.4.l l <.4.4.<.9 ) O ).).).: Y #.#.P #.#.#.n j.j.o ).).).).).).).).).).).).).).).).).).).",
").).).).).).).).).).).).).).).).).l ^.4.4.l l S X.X.l } @ 1 ).).` g J #.J 0 #.#.#.P #.j.~ ).).).).).).).).).).).).).).).).).).).",
").).).).).).).).).).).).).).).).).l ^.4.4.X.l S S S d = l ).).  *.` J #.M R H z n #.z $.$.  ).).).).).).).).).).).).).).).).).).",
").).).).).).).).).).).).).).).).).3 J.y.O.X.l k l t , j     X N N ( 9 #.P H H J K #.v 1.1.  ).).).).).).).).).).).).).).).).).).",
").).).).).).).).).).).).).          + H.0.O O   X X X . *.*.o _ o _ = #.#.T R #.#.#.I J #.m ).).).).).).).).).).).).).).).).).).",
").).).).).).).).).).).).s N N _ w ( q : u G.G.B.6 *.*.*.N N       N $ H #.#.#.#.#.#.U P 1.K ).).).).).).).).).).).).).).).).).).",
").).).).).).).).).).  ^ 0 l l 6 _ w =   ..G.G.G.E = = = * {     ).).).% #.#.#.#.#.#.U ~ j.~ ).).).).).).).).).).).).).).).).).).",
").).).).).).).).).).N O O.4.4.+.* w _ f ' x.Z.V.F - - X [ = x.E ).).).% #.#.#.#.#.#.U ~ j.~ ).).).).).).).).).).).).).).).).).).",
").).).).).).).).).).N O 2.Y.Y.4.* w w =   u u y r =.t W 8 b.A.p ).).).).J #.#.#.#.#.U I 1.K ).).).).).).).).).).).).).).).).).).",
").).).).).).).).).).N O S !.Y.4.* w _ 9 | G.h _ _ o b.G.s.    ).).).).).m #.#.#.#.#.I H T   ).).).).).).).).).).).).).).).).).).",
").).).).).).).).).).N O 5.4.t.3.* w X } S.G.G.E ,  .b.G.M.9 ).).).).).).4 v v v v v       ).).).).).).).).).).).).).).).).).).).",
").).).).).).).).).).o / l 4.>.1 _ w [ b.F.G.G...u  .b.G.G.h ).).).).).).).).).).).).).).).).).).).).).).).).).).).).).).).).).).",
").).).).).).).).).).).o f e e ) g    .M.G.G.c.    [  .Z.G.E ).).).).).).).).).).).).).).).).).).).).).).).).).).).).).).).).).).",
").).).).).).).).).).).).; e e -   9  .G.G.C.h ).  * ..x.G.G.  ).).).).).).).).).).).).).).).).).).).).).).).).).).).).).).).).).",
").).).).).).).).).).).).).).).).).[  .G.G.n.9 ).).@ # # 6 6   ).).).).).).).).).).).).).).).).).).).).).).).).).).).).).).).).).",
").).).).).).).).).).).).).).).).i [ p E E 9 ).).  R { ;.m.m.  ).).).).).).).).).).).).).).).).).).).).).).).).).).).).).).).).).",
").).).).).).).).).).).).).).).  ~ { /././.k.).).v g.I.(.(.(.  ).).).).).).).).).).).).).).).).).).).).).).).).).).).).).).).).).",
").).).).).).).).).).).).).).).K Y.(.m.m.:.  ).).U h.E.(.(.L ).).).).).).).).).).).).).).).).).).).).).).).).).).).).).).).).).).",
").).).).).).).).).).).).).).).1.(.(.(.(.m ).).. ! j.(.(.(.L ).).).).).).).).).).).).).).).).).).).).).).).).).).).).).).).).).).",
").).).).).).).).).).).).).).2 s.(.(.(.U.& ).).& W F Q l.l.H ).).).).).).).).).).).).).).).).).).).).).).).).).).).).).).).).).).",
").).).).).).).).).).).).).).+ p.(.(.(.i.).).).).[ z.E.j.j.j.  ).).).).).).).).).).).).).).).).).).).).).).).).).).).).).).).).).",
").).).).).).).).).).).).).).m b m Q.E.z ).).).).    *.*.*.*.  ).).).).).).).).).).).).).).).).).).).).).).).).).).).).).).).).).",
").).).).).).).).).).).).).).* ] &.i.i.G ).).).).).).).).).).).).).).).).).).).).).).).).).).).).).).).).).).).).).).).).).).).).",
").).).).).).).).).).).).).).).X ; -.-.^ ).).).).).).).).).).).).).).).).).).).).).).).).).).).).).).).).).).).).).).).).).).).).",
").).).).).).).).).).).).).).).).).      ).).).).).).).).).).).).).).).).).).).).).).).).).).).).).).).).).).).).).).).).).).).).",
").).).).).).).).).).).).).).).).).).).).).).).).).).).).).).).).).).).).).).).).).).).).).).).).).).).).).).).).).).).).).).).)."
};
