/* XPM */
static char *result[] = {
/* columns rows colors chars-per-pixel */
"64 64 162 2 ",
"   c black",
".  c #010101",
"X  c #020203",
"o  c #060405",
"O  c #0B0609",
"+  c #0F090C",
"@  c #100D11",
"#  c #111116",
"$  c #171117",
"%  c #1F1019",
"&  c #1F151C",
"*  c #1F181F",
"=  c #1E1B22",
"-  c #1E1D24",
";  c #1D1F28",
":  c #1E202B",
">  c #1E222E",
",  c #1D2735",
"<  c #1C2C3B",
"1  c #1A2F3E",
"2  c #392730",
"3  c #342B36",
"4  c #2C333E",
"5  c #29353F",
"6  c #30303A",
"7  c #531C2D",
"8  c #5A1A2E",
"9  c #631731",
"0  c #661632",
"q  c #6D1334",
"w  c #781439",
"e  c #40222D",
"r  c #4B212C",
"t  c #193141",
"y  c #1A3543",
"u  c #1D3844",
"i  c #263740",
"p  c #223842",
"a  c #3B4359",
"s  c #3B435A",
"d  c #3E4459",
"f  c #3E455E",
"g  c #385668",
"h  c #305B6B",
"j  c #345868",
"k  c #2D6073",
"l  c #2C6379",
"z  c #306E7E",
"x  c #434657",
"c  c #4A4957",
"v  c #574C55",
"b  c #684F4F",
"n  c #7C4B4C",
"m  c #604E53",
"M  c #434861",
"N  c #484B65",
"B  c #4D4D69",
"V  c #4E4F6A",
"C  c #405367",
"Z  c #5F5E78",
"A  c #5E5E7C",
"S  c #5D5D7F",
"D  c #795F6D",
"F  c #625F74",
"G  c #6F616E",
"H  c #696170",
"J  c #61617F",
"K  c #66667F",
"L  c #6B6B7F",
"P  c #84173F",
"I  c #921946",
"U  c #971B49",
"Y  c #961E4A",
"T  c #8D284B",
"R  c #892F4B",
"E  c #C03965",
"W  c #C8386A",
"Q  c #D63C74",
"!  c #82464A",
"~  c #9E4E66",
"^  c #87576A",
"/  c #945368",
"(  c #A44B66",
")  c #AA4B65",
"_  c #B04665",
"`  c #B54767",
"'  c #BB4164",
"]  c #DD417A",
"[  c #D87D7E",
"{  c #347682",
"}  c #377887",
"|  c #3C7C94",
" . c #5E5E80",
".. c #407E99",
"X. c #707081",
"o. c #757684",
"O. c #787986",
"+. c #7B7C87",
"@. c #7E7F8C",
"#. c #ED5188",
"$. c #F0588C",
"%. c #ED668E",
"&. c #4B8494",
"*. c #448298",
"=. c #7A8290",
"-. c #539FAC",
";. c #529CAF",
":. c #589FB2",
">. c #609EB2",
",. c #6A9DB1",
"<. c #54A1AD",
"1. c #56A4AD",
"2. c #59A9AE",
"3. c #5BADAE",
"4. c #5DB1AF",
"5. c #61B8B2",
"6. c #63BAB4",
"7. c #6FBDBC",
"8. c #808190",
"9. c #818290",
"0. c #909BA9",
"q. c #979DAB",
"w. c #9B9EAD",
"e. c #A0A1B1",
"r. c #A5A5B6",
"t. c #A8A8B9",
"y. c #AAAABB",
"u. c #ABABBD",
"i. c #ACACBD",
"p. c #B6B1BC",
"a. c #D78781",
"s. c #D68D80",
"d. c #D39384",
"f. c #D59989",
"g. c #D8A08E",
"h. c #DAA895",
"j. c #DFAD9C",
"k. c #C3B7BC",
"l. c #E7B1A4",
"z. c #EAB4A8",
"x. c #ECB8AB",
"c. c #EFBCAD",
"v. c #F0C1AF",
"b. c #F2C6B0",
"n. c #F3C8B2",
"m. c #F7C4B8",
"M. c #F6CBB9",
"N. c #87C2C6",
"B. c #9CCBD0",
"V. c #ACD3D7",
"C. c #BDD8DD",
"Z. c #CCDDE3",
"A. c #DBE3E7",
"S. c #E2E7EB",
"D. c #E7ECEE",
"F. c #E5F0F1",
"G. c #F1F5F6",
"H. c #FEF1F6",
"J. c #F9FAFB",
"K. c #FDFDFD",
"L. c white",
"P. c None",
/* pixels */
"P.P.P.P.P.P.P.P.P.P.P.P.P.P.P.P.P.P.P.P.P.P.P.P.P.P.P.P.P.P.P.P.P.P.P.P.P.P.P.P.P.P.P.P.P.P.P.P.P.P.P.P.P.P.P.P.P.P.P.P.P.P.P.P.",
"P.P.P.P.P.P.P.P.P.P.P.P.P.P.P.P.P.P.P.P.P.P.P.P.P.P.P.P.P.P.P.P.P.P.P.P.P.P.P.P.P.P.P.P.P.P.P.P.P.P.P.P.P.P.P.P.P.P.P.P.P.P.P.P.",
"P.P.P.P.P.P.P.P.P.P.P.P.P.P.P.P.P.P.P.P.P.P.P.P.P.P.P.P.P.P.P.P.P.P.P.P.P.P.P.P.P.P.P.P.P.P.P.P.P.P.P.P.P.P.P.P.P.P.P.P.P.P.P.P.",
"P.P.P.P.P.P.P.P.P.P.P.P.P.P.P.P.P.P.P.P.P.P.P.P.P.P.P.P.P.P.P.P.P.P.P.P.P.P.P.P.P.P.P.P.P.P.P.P.P.P.P.P.P.P.P.P.P.P.P.P.P.P.P.P.",
"P.P.P.P.P.P.P.P.P.P.P.P.P.P.P.P.P.P.P.P.P.P.P.P.P.P.P.P.P.P.P.P.P.P.P.P.P.P.P.P.P.P.P.P.P.P.P.P.P.P.P.P.P.P.P.P.P.P.P.P.P.P.P.P.",
"P.P.P.P.P.P.P.P.P.P.P.P.P.P.P.P.P.P.P.P.P.P.P.P.P.P.P.P.P.P.P.P.P.P.P.P.P.P.P.P.P.P.P.P.P.P.P.P.P.P.P.P.P.P.P.P.P.P.P.P.P.P.P.P.",
"P.P.P.P.P.P.P.P.P.P.P.P.P.P.P.P.P.P.P.P.P.P.P.P.P.P.P.P.P.P.P.P.P.P.P.P.P.P.P.P.P.P.P.P.P.P.P.P.P.P.P.P.P.P.P.P.P.P.P.P.P.P.P.P.",
"P.P.P.P.P.P.P.P.P.P.P.P.P.P.P.P.P.P.P.P.P.P.P.P.P.P.P.P.P.P.P.P.P.P.P.P.P.P.P.P.P.P.P.P.P.P.P.P.P.P.P.P.P.P.P.P.P.P.P.P.P.P.P.P.",
"P.P.P.P.P.P.P.P.P.P.P.P.P.P.P.P.P.P.P.P.P.P.P.P.P.P.P.P.P.P.P.P.P.P.P.P.P.P.P.P.P.P.P.P.P.P.P.P.P.P.P.P.P.P.P.P.P.P.P.P.P.P.P.P.",
"P.P.P.P.P.P.P.P.P.P.P.P.P.P.P.P.P.P.P.P.P.P.P.P.P.P.P.P.P.P.P.P.P.P.P.P.P.P.P.P.P.P.P.P.P.P.P.P.P.P.P.P.P.P.P.P.P.P.P.P.P.P.P.P.",
"P.P.P.P.P.P.P.P.P.P.P.P.P.P.P.P.P.P.P.P.P.P.P.P.P.P.P.P.P.P.P.P.P.P.P.P.P.P.P.P.P.P.P.P.P.P.P.P.P.P.P.P.P.P.P.P.P.P.P.P.P.P.P.P.",
"P.P.P.P.P.P.P.P.P.P.P.P.P.P.P.P.P.P.P.P.P.P.P.P.P.P.P.P.P.P.P.P.P.P.P.P.P.P.P.P.P.P.P.P.P.P.P.P.P.P.P.P.P.P.P.P.P.P.P.P.P.P.P.P.",
"P.P.P.P.P.P.P.P.P.P.P.P.P.P.P.P.P.P.P.P.P.P.P.P.P.P.P.P.P.P.P.P.P.P.P.P.P.P.P.P.P.P.P.P.P.P.P.P.P.P.P.P.P.P.P.P.P.P.P.P.P.P.P.P.",
"P.P.P.P.P.P.P.P.P.P.P.P.P.P.P.P.P.P.P.P.P.P.P.P.P.P.P.P.P.P.P.P.P.P.P.P.P.P.P.P.P.P.P.P.P.P.P.P.P.P.P.P.P.P.P.P.P.P.P.P.P.P.P.P.",
"P.P.P.P.P.P.P.P.P.P.P.P.P.P.P.P.P.P.P.P.P.P.P.P.P.P.P.P.P.P.P.P.P.P.P.P.P.P.P.P.P.P.P.P.P.P.P.P.P.P.P.P.P.P.P.P.P.P.P.P.P.P.P.P.",
"P.P.P.P.P.P.P.P.P.P.P.P.P.P.P.P.P.P.P.P.P.P.P.P.P.P.P.P.P.P.P.P.P.P.P.P.P.P.P.P.P.P.P.P.P.P.P.P.P.P.P.P.P.P.P.P.P.P.P.P.P.P.P.P.",
"P.P.P.P.P.P.P.P.P.P.P.P.P.P.P.P.P.P.P.P.P.P.P.P.P.P.P.P.P.P.P.P.P.P.P.P.P.P.P.P.P.P.P.P.P.P.P.P.P.P.P.P.P.P.P.P.P.P.P.P.P.P.P.P.",
"P.P.P.P.P.P.P.P.P.P.P.P.P.P.P.P.P.P.P.P.P.P.P.P.P.P.P.P.P.P.P.P.P.P.P.P.P.P.P.P.P.P.P.P.P.P.P.P.P.P.P.P.P.P.P.P.P.P.P.P.P.P.P.P.",
"P.P.P.P.P.P.P.P.P.P.P.P.P.P.P.P.P.P.P.P.P.P.P.P.P.P.P.P.P.P.P.P.    P.P.P.P.P.P.P.P.P.P.P.P.P.P.P.P.P.P.P.P.P.P.P.P.P.P.P.P.P.P.",
"P.P.P.P.P.P.P.P.P.P.P.P.P.P.# & : :     P.P.P.P.P.P.P.P.P.P.P.V w.e.x : - P.P.P.P.P.P.P.P.P.P.P.P.P.P.P.P.P.P.P.P.P.P.P.P.P.P.P.",
"P.P.P.P.P.P.P.P.P.P.P.P.P.  N 9.i.H a @ ;         P.    P.P.O  . .K =.9.9.X.c   P.P.P.P.P.P.P.P.P.P.P.P.P.P.P.P.P.P.P.P.P.P.P.P.",
"P.P.P.P.P.P.P.P.P.P.P.P.  V  .q.9.X.V = , > 2.6.&.@ # V N X  . . . . . . .J t.t.@.+ @ P.P.P.P.P.P.P.P.P.P.P.P.P.P.P.P.P.P.P.P.P.",
"P.P.P.P.P.P.P.P.P.P.P.P.  # 6 6 x O.v N u <.6.6.6.6.{ = K 3  . . . . . . . . . .9.9.e.v o P.P.P.P.P.P.P.P.P.P.P.P.P.P.P.P.P.P.P.",
"P.P.P.P.P.P.P.P.P.P.P.P.  > , B V H r.y 3.6.6.6.6.6.5.} + d  . . . .a  . . . . . . .X.i.w.H   P.P.P.P.P.P.P.P.P.P.P.P.P.P.P.P.P.",
"P.P.P.P.P.P.P.P.P.P.P.P.O ; ; 5 4 L p <.6.6.6.6.6.6.6.6.&.d  . . .Z B V  .B  . . . .J O.y.i.i.6 P.P.P.P.P.P.P.P.P.P.P.P.P.P.P.P.",
"P.P.P.P.P.P.P.P.P.P.P.P.$ > : d V j 6.6.6.6.6.6.6.6.6.6.4 Z  . . .B N B B V  . . . .w.i.i.i.i.9.P.P.P.P.P.P.P.P.P.P.P.P.P.P.P.P.",
"P.P.P.P.P.P.P.P.P.P.P.+ y > > # p 6.6.6.6.6.6.7.7.6.4.6.$ S  . . . .a 6 B  . . . .K i.i.i.i.i.9.P.P.P.P.P.P.P.P.P.P.P.P.P.P.P.P.",
"P.P.P.P.P.P.P.P.P.P.P.+ y = # &.V.V.V.V.V.V.V.F.V.&.j 6.j 4  . . . . . . . . . . .q.i.i.i.i.i.F P.P.P.P.P.P.P.P.P.P.P.P.P.P.P.P.",
"P.P.P.P.P.P.P.P.P.P.P.+ y , > 3.7.F.F.F.F.F.N.3.{ o i 6.6.p o d S  . . . . . . . .q.i.i.i.i.y.  P.P.P.P.P.P.P.P.P.P.P.P.P.P.P.P.",
"P.P.P.P.P.P.P.P.P.P.P.+ { y h 6.6.6.6.6.6.4.-.p e _ 3 1.6.6.    & a A  . . . . .o.i.i.i.i.i.N P.P.P.P.P.P.P.P.P.P.P.P.P.P.P.P.P.",
"P.P.P.P.P.P.P.P.P.P.P.+ { { { 3.6.6.6.-.; # @ % a.s.n k 6.6.  P.P.X @ a  . . . .o.i.i.i.i.i.- P.P.P.P.P.P.P.P.P.P.P.P.P.P.P.P.P.",
"P.P.P.P.P.P.P.P.P.P.  { { { { { { u   - S.p.  & c.M.H 6 z *.- P.P.e E % % : N S 9.i.i.i.i.Z P.P.P.P.P.P.P.P.P.P.P.P.P.P.P.P.P.P.",
"P.P.P.P.P.P.P.P.P.P.u z a { { { { {   o.L.D.3 * M.M.H k.- } z   P.% % E E P o = i.i.i.i.o.* P.P.P.P.P.P.P.P.P.P.P.P.P.P.P.P.P.P.",
"P.P.P.P.P.P.P.P.P.P.u   y } -.{ { <.o ! * * * M.M.x.9.* - > k y P.P.U +     P.P.  L 0.X.o P.P.P.P.P.P.P.P.P.P.P.P.P.P.P.P.P.P.P.",
"P.P.P.P.P.P.P.P.P.P.P.+ z 5.h &.{ *.g / n.M.M.M.M.f.c.M.- > P.# P.+ 7 9 P.P.P.P.P.P.P.P.P.P.P.P.P.P.P.P.P.P.P.P.P.P.P.P.P.P.P.P.",
"P.P.P.P.P.P.P.P.P.P.P.  X X 5.*.k u { e a.M.r o o n.M.2 { > P.P.  W #.  P.P.P.P.P.P.P.P.P.P.P.P.P.P.P.P.P.P.P.P.P.P.P.P.P.P.P.P.",
"P.P.P.P.P.P.P.P.P.P.P.P.P.          u * 8 ! * q.x / b   # # P.P.r ] e P.P.P.P.P.P.P.P.P.P.P.P.P.P.P.P.P.P.P.P.P.P.P.P.P.P.P.P.P.",
"P.P.P.P.P.P.P.P.P.P.P.P.P.P.P.P.P.          / g.r     P.P.P.P.  U _ P.P.P.P.P.P.P.P.P.P.P.P.P.P.P.P.P.P.P.P.P.P.P.P.P.P.P.P.P.P.",
"P.P.P.P.P.P.P.P.P.P.P.P.P.P.P.P., l X l ;.,.u 5 f.= + O P.P.P.9 #.R P.P.P.P.P.P.P.P.P.P.P.P.P.P.P.P.P.P.P.P.P.P.P.P.P.P.P.P.P.P.",
"P.P.P.P.P.P.P.P.P.P.P.P.P.P.P.  l l X l ;.N.C ;.j l 9 % y P.O _ #.  P.P.P.P.P.P.P.P.P.P.P.P.P.P.P.P.P.P.P.P.P.P.P.P.P.P.P.P.P.P.",
"P.P.P.P.P.P.P.P.P.P.P.P.P.P.P.  k k   < l ;.Z.- k + R h M P.% Q + P.P.P.P.P.P.P.P.P.P.P.P.P.P.P.P.P.P.P.P.P.P.P.P.P.P.P.P.P.P.P.",
"P.P.P.P.P.P.P.P.P.P.P.P.P.P.P.P.P.P.P.; l ..;.B.8.T s y >   E ' O P.P.P.P.P.P.P.P.P.P.P.P.P.P.P.P.P.P.P.P.P.P.P.P.P.P.P.P.P.P.P.",
"P.P.P.P.P.P.P.P.P.P.P.P.P.P.P.P.P.P.P.P.o l *.;.C.o O . d.w E T P.P.P.P.P.P.P.P.P.P.P.P.P.P.P.P.P.P.P.P.P.P.P.P.P.P.P.P.P.P.P.P.",
"P.P.P.P.P.P.P.P.P.P.P.P.P.P.P.P.P.P.P.P.  # k *...y C l.b.^ R   P.P.P.P.P.P.P.P.P.P.P.P.P.P.P.P.P.P.P.P.P.P.P.P.P.P.P.P.P.P.P.P.",
"P.P.P.P.P.P.P.P.P.P.P.P.P.I I I w 8 I       # l 1 ;.b M.M.M.d.  P.P.P.P.P.P.P.P.P.P.P.P.P.P.P.P.P.P.P.P.P.P.P.P.P.P.P.P.P.P.P.P.",
"P.P.P.P.P.P.P.P.P.P.P.P.9 # # # U 9 U 0 % U 2 > > l r x.M.M.j.  P.P.P.P.P.P.P.P.P.P.P.P.P.P.P.P.P.P.P.P.P.P.P.P.P.P.P.P.P.P.P.P.",
"P.P.P.P.P.P.P.P.P.P.P.q 6 l ....t I . 9 r u u 1   > @ / l.z.r P.P.P.P.P.P.P.P.P.P.P.P.P.P.P.P.P.P.P.P.P.P.P.P.P.P.P.P.P.P.P.P.P.",
"P.P.P.P.P.P.P.P.P.P.  U t F.:.A...q   o o o o #.#.X e & o X   P.P.P.P.P.P.P.P.P.P.P.P.P.P.P.P.P.P.P.P.P.P.P.P.P.P.P.P.P.P.P.P.P.",
"P.P.P.P.P.P.P.P.P.P.  U t | L.7...  . 0 0 P E Q _ . [ s.[ 2 P.P.P.P.P.P.P.P.P.P.P.P.P.P.P.P.P.P.P.P.P.P.P.P.P.P.P.P.P.P.P.P.P.P.",
"P.P.P.P.P.P.P.P.P.P.  U t A.>.Z...  ! ~ j.8.+ U o U b s.$ P.P.P.P.P.P.P.P.P.P.P.P.P.P.P.P.P.P.P.P.P.P.P.P.P.P.P.P.P.P.P.P.P.P.P.",
"P.P.P.P.P.P.P.P.P.P.P.w 4 l z ;.p + / s.n.M.v.% ! P P o P.P.P.P.P.P.P.P.P.P.P.P.P.P.P.P.P.P.P.P.P.P.P.P.P.P.P.P.P.P.P.P.P.P.P.P.",
"P.P.P.P.P.P.P.P.P.P.P.P.9 = = > E 8 / h.M.M.g.@ [ d.% o P.P.P.P.P.P.P.P.P.P.P.P.P.P.P.P.P.P.P.P.P.P.P.P.P.P.P.P.P.P.P.P.P.P.P.P.",
"P.P.P.P.P.P.P.P.P.P.P.P.P.U U W )   ~ h.M.M.f.+ ' b.M.- P.P.P.P.P.P.P.P.P.P.P.P.P.P.P.P.P.P.P.P.P.P.P.P.P.P.P.P.P.P.P.P.P.P.P.P.",
"P.P.P.P.P.P.P.P.P.P.P.P.P.P.P.P.  * s.v.M.b.) o r 8 b @ P.P.P.P.P.P.P.P.P.P.P.P.P.P.P.P.P.P.P.P.P.P.P.P.P.P.P.P.P.P.P.P.P.P.P.P.",
"P.P.P.P.P.P.P.P.P.P.P.P.P.P.P.P.  8 s.M.M.s.e u.u.J.K.3 P.P.P.P.P.P.P.P.P.P.P.P.P.P.P.P.P.P.P.P.P.P.P.P.P.P.P.P.P.P.P.P.P.P.P.P.",
"P.P.P.P.P.P.P.P.P.P.P.P.P.P.P.P.8 m c H H c T ( z.m./ P.P.P.P.P.P.P.P.P.P.P.P.P.P.P.P.P.P.P.P.P.P.P.P.P.P.P.P.P.P.P.P.P.P.P.P.P.",
"P.P.P.P.P.P.P.P.P.P.P.P.P.P.P.  D ` E %.%.) f y.J.L.q.P.P.P.P.P.P.P.P.P.P.P.P.P.P.P.P.P.P.P.P.P.P.P.P.P.P.P.P.P.P.P.P.P.P.P.P.P.",
"P.P.P.P.P.P.P.P.P.P.P.P.P.P.P.N i.A.L.L.L.O.V p.L.L.  P.P.P.P.P.P.P.P.P.P.P.P.P.P.P.P.P.P.P.P.P.P.P.P.P.P.P.P.P.P.P.P.P.P.P.P.P.",
"P.P.P.P.P.P.P.P.P.P.P.P.P.P.; 8.p.G.L.L.Z.V > i v v   P.P.P.P.P.P.P.P.P.P.P.P.P.P.P.P.P.P.P.P.P.P.P.P.P.P.P.P.P.P.P.P.P.P.P.P.P.",
"P.P.P.P.P.P.P.P.P.P.P.P.P.P.o +.t.S.S.S.r.= q.p.H.H.9.P.P.P.P.P.P.P.P.P.P.P.P.P.P.P.P.P.P.P.P.P.P.P.P.P.P.P.P.P.P.P.P.P.P.P.P.P.",
"P.P.P.P.P.P.P.P.P.P.P.P.P.P.e G F 9.9.9.9.+ 8 9 w w r P.P.P.P.P.P.P.P.P.P.P.P.P.P.P.P.P.P.P.P.P.P.P.P.P.P.P.P.P.P.P.P.P.P.P.P.P.",
"P.P.P.P.P.P.P.P.P.P.P.P.P.P.. Y W $.$.$.$.  P.P.P.P.P.P.P.P.P.P.P.P.P.P.P.P.P.P.P.P.P.P.P.P.P.P.P.P.P.P.P.P.P.P.P.P.P.P.P.P.P.P.",
"P.P.P.P.P.P.P.P.P.P.P.P.P.P.P.P.          P.P.P.P.P.P.P.P.P.P.P.P.P.P.P.P.P.P.P.P.P.P.P.P.P.P.P.P.P.P.P.P.P.P.P.P.P.P.P.P.P.P.P.",
"P.P.P.P.P.P.P.P.P.P.P.P.P.P.P.P.P.P.P.P.P.P.P.P.P.P.P.P.P.P.P.P.P.P.P.P.P.P.P.P.P.P.P.P.P.P.P.P.P.P.P.P.P.P.P.P.P.P.P.P.P.P.P.P."
};
