/* XPM */
static char *result[] = {
/* columns rows colors chars-per-pixel */
"64 64 173 2 ",
"   c black",
".  c #010101",
"X  c #020203",
"o  c #030304",
"O  c #050506",
"+  c #080608",
"@  c #0A080A",
"#  c #0C080C",
"$  c #13070B",
"%  c #10080B",
"&  c #18090E",
"*  c #0E171F",
"=  c #12161F",
"-  c #230A13",
";  c #2F0C18",
":  c #3E111F",
">  c #0E1820",
",  c #121C24",
"<  c #191820",
"1  c #241721",
"2  c #391424",
"3  c #172028",
"4  c #19232D",
"5  c #1A252F",
"6  c #1B2632",
"7  c #1F2936",
"8  c #202D3B",
"9  c #490F25",
"0  c #451023",
"q  c #4B1025",
"w  c #4E363B",
"e  c #51363C",
"r  c #56353C",
"t  c #5D353F",
"y  c #1E3645",
"u  c #1F3A48",
"i  c #1F3D4A",
"p  c #203140",
"a  c #363E4C",
"s  c #3B3F4D",
"d  c #453E47",
"f  c #493A40",
"g  c #6F2E41",
"h  c #752B41",
"j  c #613540",
"k  c #683341",
"l  c #21404C",
"z  c #24404C",
"x  c #27404C",
"c  c #2D414B",
"v  c #2E586F",
"b  c #38566E",
"n  c #235872",
"m  c #265871",
"M  c #235975",
"N  c #235D7A",
"B  c #276173",
"V  c #286376",
"C  c #2D6D79",
"Z  c #2F707B",
"A  c #30727D",
"S  c #32757F",
"D  c #40404E",
"F  c #44414C",
"G  c #744447",
"H  c #754A49",
"J  c #724F4D",
"K  c #705752",
"L  c #705C58",
"P  c #6E615F",
"I  c #49526B",
"U  c #4F536D",
"Y  c #555772",
"T  c #595A77",
"R  c #5B5C7A",
"E  c #5D5D7E",
"W  c #5F5F7E",
"Q  c #5E5E7F",
"!  c #6C6466",
"~  c #6B666C",
"^  c #6A6873",
"/  c #63637E",
"(  c #696979",
")  c #68687D",
"_  c #A22250",
"`  c #A02A53",
"'  c #B22156",
"]  c #B52258",
"[  c #BD255E",
"{  c #A23F5D",
"}  c #CC326B",
"|  c #A44E5F",
" . c #A35860",
".. c #A56263",
"X. c #A86A6A",
"o. c #AD7470",
"O. c #AA7C7A",
"+. c #DA4179",
"@. c #DF477E",
"#. c #A4857D",
"$. c #A9827D",
"%. c #347883",
"&. c #367988",
"*. c #3B7E90",
"=. c #5D5D80",
"-. c #E54D84",
";. c #E95188",
":. c #EF578D",
">. c #F25B91",
",. c #F46F9C",
"<. c #3F8194",
"1. c #418595",
"2. c #448A97",
"3. c #478F98",
"4. c #4A949C",
"5. c #4C989E",
"6. c #4E9BA0",
"7. c #4F9BA3",
"8. c #539EAC",
"9. c #4F97B0",
"0. c #55A2AC",
"q. c #58A7AA",
"w. c #5CAEAE",
"e. c #5EB1B0",
"r. c #60B4B1",
"t. c #63BAB4",
"y. c #69BAB8",
"u. c #8E8487",
"i. c #8B848A",
"p. c #88848D",
"a. c #938585",
"s. c #998682",
"d. c #868492",
"f. c #888796",
"g. c #8C8B9D",
"h. c #9090A3",
"j. c #9494A8",
"k. c #9697AA",
"l. c #999AAE",
"z. c #9C9EB1",
"x. c #9FA2B4",
"c. c #86B6BF",
"v. c #A2A5B7",
"b. c #A5A7B8",
"n. c #AAAABC",
"m. c #ABABBD",
"M. c #ACADBE",
"N. c #EE8199",
"B. c #EC8D9A",
"V. c #ED969C",
"C. c #EEA29F",
"Z. c #EEAEA2",
"A. c #F0B7A8",
"S. c #F1C0AD",
"D. c #F3C6B1",
"F. c #F7CFB9",
"G. c #8FB3C0",
"H. c #9AB4C2",
"J. c #AAB0C0",
"K. c #D9D1CC",
"L. c #CCD5D7",
"P. c #CCD8DA",
"I. c #CCDBDE",
"U. c #D1D3D2",
"Y. c #CCE0E2",
"T. c #CDE4E4",
"R. c #D0E7E7",
"E. c #D9ECEC",
"W. c #E5F4F3",
"Q. c #F6FBFB",
"!. c #FDFDFD",
"~. c #FEFEFE",
"^. c None",
/* pixels */
"^.^.^.^.^.^.^.^.^.^.^.^.^.^.^.^.^.^.^.^.^.^.^.^.^.^.^.^.^.^.^.^.^.^.^.^.^.^.^.^.^.^.^.^.^.^.^.^.^.^.^.^.^.^.^.^.^.^.^.^.^.^.^.^.",
"^.^.^.^.^.^.^.^.^.^.^.^.^.^.^.^.^.^.^.^.^.^.^.^.^.^.^.^.^.^.^.^.^.^.^.^.^.^.^.^.^.^.^.^.^.^.^.^.^.^.^.^.^.^.^.^.^.^.^.^.^.^.^.^.",
"^.^.^.^.^.^.^.^.^.^.^.^.^.^.^.^.^.^.^.^.^.^.^.^.^.^.^.^.^.^.^.^.^.^.^.^.^.^.^.^.^.^.^.^.^.^.^.^.^.^.^.^.^.^.^.^.^.^.^.^.^.^.^.^.",
"^.^.^.^.^.^.^.^.^.^.^.^.^.^.^.^.^.^.^.^.^.^.^.^.^.^.^.^.^.^.^.^.^.^.^.^.^.^.^.^.^.^.^.^.^.^.^.^.^.^.^.^.^.^.^.^.^.^.^.^.^.^.^.^.",
"^.^.^.^.^.^.^.^.^.^.^.^.^.^.^.^.^.^.^.^.^.^.^.^.^.^.^.^.^.^.^.^.^.^.^.^.^.^.^.^.^.^.^.^.^.^.^.^.^.^.^.^.^.^.^.^.^.^.^.^.^.^.^.^.",
"^.^.^.^.^.^.^.^.^.^.^.^.^.^.^.^.^.^.^.^.^.^.^.^.^.^.^.^.^.a a a a 8 ^.^.^.^.^.^.^.^.^.^.^.^.^.^.^.^.^.^.^.^.^.^.^.^.^.^.^.^.^.^.",
"^.^.^.^.^.^.^.^.^.^.^.^.^.^.^.^.^.^.^.^.^.^.^.      p.p.p.l.M.M.M.z.5 ^.^.^.^.^.^.^.^.^.^.^.^.^.^.^.^.^.^.^.^.^.^.^.^.^.^.^.^.^.",
"^.^.^.^.^.^.^.^.^.^.^.^.^.^.^.^.^.^.^.^.^.^.< x.x.x.Q Q Q j.M.M.M.M.d ^.^.^.^.^.^.^.^.^.^.^.^.^.^.^.^.^.^.^.^.^.^.^.^.^.^.^.^.^.",
"^.^.^.^.^.^.^.^.^.^.^.^.^.^.^.^.^.^.^.  ! ( d.Q Q Q Q Q Q j.M.M.M.M.M.  ^.^.^.^.^.^.^.^.^.^.^.^.^.^.^.^.^.^.^.^.^.^.^.^.^.^.^.^.",
"^.^.^.^.^.^.^.^.^.^.^.^.^.^.^.^.^.X + m.) Q Q Q Q Q Q Q Q j.M.M.M.M.M.  ^.^.^.^.^.^.^.^.^.^.^.^.^.^.^.^.^.^.^.^.^.^.^.^.^.^.^.^.",
"^.^.^.^.^.^.^.^.^.^.^.^.^.^.^.^.^.Y g.Q Q Q Q Q Q 8 s Q Q Q M.M.M.M.M.  ^.^.^.^.^.^.^.^.^.^.^.^.^.^.^.^.^.^.^.^.^.^.^.^.^.^.^.^.",
"^.^.^.^.^.^.^.^.^.^.^.^.^.^.^.^.^.s Q Q Q p U Q Q Y T Q Q Q M.M.M.M.M.  ^.^.^.^.^.^.^.^.^.^.^.^.^.^.^.^.^.^.^.^.^.^.^.^.^.^.^.^.",
"^.^.^.^.^.^.^.^.^.^.^.^.^.^.^.^.^.  Q Q Q a Y E U U Q Q Q Q l.M.M.M.M.  ^.^.^.^.^.^.^.^.^.^.^.^.^.^.^.^.^.^.^.^.^.^.^.^.^.^.^.^.",
"^.^.^.^.^.^.^.^.^.^.^.^.^.^.^.^.^.  Q Q Q Q Q Y s U I Q Q Q / M.M.M.M.  ^.^.^.^.^.^.^.^.^.^.^.^.^.^.^.^.^.^.^.^.^.^.^.^.^.^.^.^.",
"^.^.^.^.^.^.^.^.^.^.^.^.^.^.^.^.^.  7 Q Q Q Q T I T D Q Q Q Q f.M.M.M.  ^.^.^.^.^.^.^.^.^.^.^.^.^.^.^.^.^.^.^.^.^.^.^.^.^.^.^.^.",
"^.^.^.^.^.^.^.^.^.^.^.^.^.^.^.^.^.^.X U Q Q Q Q U F Q Q Q I D W n.U U ^.^.^.^.^.^.^.^.^.^.^.^.^.^.^.^.^.^.^.^.^.^.^.^.^.^.^.^.^.",
"^.^.^.^.^.^.^.^.^.^.^.^.^.^.^.^.^.^.^.8 Q Q Q Q Q Q 8 8 O X X o + ^.^.^.^.^.^.^.^.^.^.^.^.^.^.^.^.^.^.^.^.^.^.^.^.^.^.^.^.^.^.^.",
"^.^.^.^.^.^.^.^.^.^.^.^.^.^.^.4 F <   # F I D < < . 9 9 } :.  ^.^.^.^.^.^.^.^.^.^.^.^.^.^.^.^.^.^.^.^.^.^.^.^.^.^.^.^.^.^.^.^.^.",
"^.^.^.^.^.^.^.^.^.^.^.^.^.^.3 g.h.s     + # ^.^.    [ [ - ;   ^.^.^.^.^.^.^.^.^.^.^.^.^.^.^.^.^.^.^.^.^.^.^.^.^.^.^.^.^.^.^.^.^.",
"^.^.^.^.^.^.^.^.^.^.^.^.^.= d.g.F ) = 7 > > > > > 4 # O } q ^.^.^.^.^.^.^.^.^.^.^.^.^.^.^.^.^.^.^.^.^.^.^.^.^.^.^.^.^.^.^.^.^.^.",
"^.^.^.^.^.^.^.^.^.^.^.^.  3 4 a k.R R 6 5.7.7.7.7.l p = 9 - ^.^.^.^.^.^.^.^.^.^.^.^.^.^.^.^.^.^.^.^.^.^.^.^.^.^.^.^.^.^.^.^.^.^.",
"^.^.^.^.^.^.^.^.^.^.^.^.  7 s T 5 v.@ 5.t.t.t.t.t.t.z d.; +.  ^.^.^.^.^.^.^.^.^.^.^.^.^.^.^.^.^.^.^.^.^.^.^.^.^.^.^.^.^.^.^.^.^.",
"^.^.^.^.^.^.^.^.^.^.^.^.# = 3 p E c 5.t.t.t.t.t.t.t.t.C ; +.  ^.^.^.^.^.^.^.^.^.^.^.^.^.^.^.^.^.^.^.^.^.^.^.^.^.^.^.^.^.^.^.^.^.",
"^.^.^.^.^.^.^.^.^.^.^.  = 7 a E , 5.t.t.t.t.t.t.t.t.t.t.<.h +.^.^.^.^.^.^.^.^.^.^.^.^.^.^.^.^.^.^.^.^.^.^.^.^.^.^.^.^.^.^.^.^.^.",
"^.^.^.^.^.^.^.^.^.^.^.o 3 3 3 4 4.t.t.t.c.c.c.c.*.6.c.y.3.h @.  ^.^.^.^.^.^.^.^.^.^.^.^.^.^.^.^.^.^.^.^.^.^.^.^.^.^.^.^.^.^.^.^.",
"^.^.^.^.^.^.^.^.^.^.  B u 3 6 0.T.T.T.T.E.W.H.r.* S P.R.G.h @.  ^.^.^.^.^.^.^.^.^.^.^.^.^.^.^.^.^.^.^.^.^.^.^.^.^.^.^.^.^.^.^.^.",
"^.^.^.^.^.^.^.^.^.^.  %.i 5 z t.t.t.t.t.t.q.A 2 r B 3.t.R.D [ h ^.^.^.^.^.^.^.^.^.^.^.^.^.^.^.^.^.^.^.^.^.^.^.^.^.^.^.^.^.^.^.^.",
"^.^.^.^.^.^.^.^.^.^.  %.%.l Z t.t.t.t.q.c , : B.X.X m e.t.l [ g ^.^.^.^.^.^.^.^.^.^.^.^.^.^.^.^.^.^.^.^.^.^.^.^.^.^.^.^.^.^.^.^.",
"^.^.^.^.^.^.^.^.^.^.  %.%.%.3.t.%.S   O .   ..F.K Q.  V %.4 O O O ^.^.^.^.^.^.^.^.^.^.^.^.^.^.^.^.^.^.^.^.^.^.^.^.^.^.^.^.^.^.^.",
"^.^.^.^.^.^.^.^.^.^.  %.%.%.%.4.C * @ ~.p.  $.F.K Q.d V C U F.F.F.  ^.^.^.^.^.^.^.^.^.^.^.^.^.^.^.^.^.^.^.^.^.^.^.^.^.^.^.^.^.^.",
"^.^.^.^.^.^.^.^.^.^.  %.%.%.%.%.%.6 H 1 1 w D.S.$.1 = V m ..F.F.F.O.^.^.^.^.^.^.^.^.^.^.^.^.^.^.^.^.^.^.^.^.^.^.^.^.^.^.^.^.^.^.",
"^.^.^.^.^.^.^.^.^.^.  %.%.%.%.%.*.x  .Z.F.F.F.F.F.F.a.V i  .A.F.F.#.^.^.^.^.^.^.^.^.^.^.^.^.^.^.^.^.^.^.^.^.^.^.^.^.^.^.^.^.^.^.",
"^.^.^.^.^.^.^.^.^.^.  %.%.0.%.%.6.2.; Z.F.F.F.f $.F.L > > s B.A.F...^.^.^.^.^.^.^.^.^.^.^.^.^.^.^.^.^.^.^.^.^.^.^.^.^.^.^.^.^.^.",
"^.^.^.^.^.^.^.^.^.^.^.@ %.r.3 S w.A 6.G S.F.F.F.S.o.1 U.<.v < o.o.@ ^.^.^.^.^.^.^.^.^.^.^.^.^.^.^.^.^.^.^.^.^.^.^.^.^.^.^.^.^.^.",
"^.^.^.^.^.^.^.^.^.^.^.^.m 3.  4 6.x . e j K K K ^ i.H.8.9.m l     $.#.^.^.^.^.^.^.^.^.^.^.^.^.^.^.^.^.^.^.^.^.^.^.^.^.^.^.^.^.^.",
"^.^.^.^.^.^.^.^.^.^.^.^.X Z   ^.X X o N 9.Q.Q.Q.H.9.9.9.2.N   G % F.F.  ^.^.^.^.^.^.^.^.^.^.^.^.^.^.^.^.^.^.^.^.^.^.^.^.^.^.^.^.",
"^.^.^.^.^.^.^.^.^.^.^.^.^.  ^.^.p N N 1.9.9.9.9.9.9.<.V y 6 M 0 + F.F.  ^.^.^.^.^.^.^.^.^.^.^.^.^.^.^.^.^.^.^.^.^.^.^.^.^.^.^.^.",
"^.^.^.^.^.^.^.^.^.^.^.^.^.^.^.i N p N 9.9.9.9.9.*., * o n N N 6 X.Z.F.  ^.^.^.^.^.^.^.^.^.^.^.^.^.^.^.^.^.^.^.^.^.^.^.^.^.^.^.^.",
"^.^.^.^.^.^.^.^.^.^.^.^.^.^.^.n N 5 n 9.9.C V * * . h <.* N N n + X.1   ^.^.^.^.^.^.^.^.^.^.^.^.^.^.^.^.^.^.^.^.^.^.^.^.^.^.^.^.",
"^.^.^.^.^.^.^.^.^.^.^.^.^.^.^., N 5 ^.v 9.9.2.<.N X h <.* N 3 > ^.; `   ^.^.^.^.^.^.^.^.^.^.^.^.^.^.^.^.^.^.^.^.^.^.^.^.^.^.^.^.",
"^.^.^.^.^.^.^.^.^.^.^.^.^.^.^.^.  ^.^.7 9.9.9.9.&.& h       ^.^.^.    ^.^.^.^.^.^.^.^.^.^.^.^.^.^.^.^.^.^.^.^.^.^.^.^.^.^.^.^.^.",
"^.^.^.^.^.^.^.^.^.^.^.^.^.^.^.^.^.^.^.^.n <.9.9.y ;.  ^.^.^.^.^.^.^.  ^.^.^.^.^.^.^.^.^.^.^.^.^.^.^.^.^.^.^.^.^.^.^.^.^.^.^.^.^.",
"^.^.^.^.^.^.^.^.^.^.^.^.^.^.^.^.^.^.^.^.n N V n h $   ^.^.^.^.^.^.^.^.    ^.^.^.^.^.^.^.^.^.^.^.^.^.^.^.^.^.^.^.^.^.^.^.^.^.^.^.",
"^.^.^.^.^.^.^.^.^.^.^.^.^.^.^.^.^.^.^.^.n N l q w . 7 ^.^.^.^.^.^.^.^.8 ~.  ^.^.^.^.^.^.^.^.^.^.^.^.^.^.^.^.^.^.^.^.^.^.^.^.^.^.",
"^.^.^.^.^.^.^.^.^.^.^.^.^._ _ _ _ _     * * g 1 n X v ^.^.^.^.^.^.^.^.^.f ^.^.^.^.^.^.^.^.^.^.^.^.^.^.^.^.^.^.^.^.^.^.^.^.^.^.^.",
"^.^.^.^.^.^.^.^.^.^.^.^.q = * * @ q ] $ - _ q ; ; ; & 1 2 2 ^.^.^.^.^.^.^.^.^.^.^.^.^.^.^.^.^.^.^.^.^.^.^.^.^.^.^.^.^.^.^.^.^.^.",
"^.^.^.^.^.^.^.^.^.^.^.$ q M c.<.v.* ] - 9   0 :.:.:.k A.F.F.s.J ^.^.^.^.^.^.^.^.^.^.^.^.^.^.^.^.^.^.^.^.^.^.^.^.^.^.^.^.^.^.^.^.",
"^.^.^.^.^.^.^.^.^.^.^.$ q M G.~.9.u ' 9 $.F.C.; -.O B.S.F.F.F.F.& ^.^.^.^.^.^.^.^.^.^.^.^.^.^.^.^.^.^.^.^.^.^.^.^.^.^.^.^.^.^.^.",
"^.^.^.^.^.^.^.^.^.^.^.$ q M H.I.G.u o o.D.F.F.o.  w ..$.A.F.F.F.& ^.^.^.^.^.^.^.^.^.^.^.^.^.^.^.^.^.^.^.^.^.^.^.^.^.^.^.^.^.^.^.",
"^.^.^.^.^.^.^.^.^.^.^.$ q M <.9.9.6 o o.D.F.F.o.    % H X.V.V.V.% ^.^.^.^.^.^.^.^.^.^.^.^.^.^.^.^.^.^.^.^.^.^.^.^.^.^.^.^.^.^.^.",
"^.^.^.^.^.^.^.^.^.^.^.$ q i l l b & ; $.F.F.S.H   E { d F t ..H + ^.^.^.^.^.^.^.^.^.^.^.^.^.^.^.^.^.^.^.^.^.^.^.^.^.^.^.^.^.^.^.",
"^.^.^.^.^.^.^.^.^.^.^.^.- h _ { } t  .C.F.F.C.- 7 =.n.N.N.@.{ r ^.^.^.^.^.^.^.^.^.^.^.^.^.^.^.^.^.^.^.^.^.^.^.^.^.^.^.^.^.^.^.^.",
"^.^.^.^.^.^.^.^.^.^.^.^.^.          H C.F.F.o.  s n.~.~.~.~.K.^.^.^.^.^.^.^.^.^.^.^.^.^.^.^.^.^.^.^.^.^.^.^.^.^.^.^.^.^.^.^.^.^.",
"^.^.^.^.^.^.^.^.^.^.^.^.^.^.^.^.^.0 a P K K w + D I.~.~.~.~.  ^.^.^.^.^.^.^.^.^.^.^.^.^.^.^.^.^.^.^.^.^.^.^.^.^.^.^.^.^.^.^.^.^.",
"^.^.^.^.^.^.^.^.^.^.^.^.^.^.^.^.^.s [ ~.!.!.d & o.O ~.~.~.L ^.^.^.^.^.^.^.^.^.^.^.^.^.^.^.^.^.^.^.^.^.^.^.^.^.^.^.^.^.^.^.^.^.^.",
"^.^.^.^.^.^.^.^.^.^.^.^.^.^.^.^.= d.L.B.V.V.w ^.q o.~ ~ ~ 1 ^.^.^.^.^.^.^.^.^.^.^.^.^.^.^.^.^.^.^.^.^.^.^.^.^.^.^.^.^.^.^.^.^.^.",
"^.^.^.^.^.^.^.^.^.^.^.^.^.^.^.  Q b.~.~.~.J.^.^.^.- ,.,.,.r ^.^.^.^.^.^.^.^.^.^.^.^.^.^.^.^.^.^.^.^.^.^.^.^.^.^.^.^.^.^.^.^.^.^.",
"^.^.^.^.^.^.^.^.^.^.^.^.^.^.^.< ) Y.~.~.~.p.^.^.^.^.        ^.^.^.^.^.^.^.^.^.^.^.^.^.^.^.^.^.^.^.^.^.^.^.^.^.^.^.^.^.^.^.^.^.^.",
"^.^.^.^.^.^.^.^.^.^.^.^.^.^.^.I l.Y.~.~.L.8 ^.^.^.^.^.^.^.^.^.^.^.^.^.^.^.^.^.^.^.^.^.^.^.^.^.^.^.^.^.^.^.^.^.^.^.^.^.^.^.^.^.^.",
"^.^.^.^.^.^.^.^.^.^.^.^.^.^.^.# l.U.R.R.v.  ^.^.^.^.^.^.^.^.^.^.^.^.^.^.^.^.^.^.^.^.^.^.^.^.^.^.^.^.^.^.^.^.^.^.^.^.^.^.^.^.^.^.",
"^.^.^.^.^.^.^.^.^.^.^.^.^.^.^.| T ( u.u.u.  ^.^.^.^.^.^.^.^.^.^.^.^.^.^.^.^.^.^.^.^.^.^.^.^.^.^.^.^.^.^.^.^.^.^.^.^.^.^.^.^.^.^.",
"^.^.^.^.^.^.^.^.^.^.^.^.^.^.^.o [ @.>.>.>.  ^.^.^.^.^.^.^.^.^.^.^.^.^.^.^.^.^.^.^.^.^.^.^.^.^.^.^.^.^.^.^.^.^.^.^.^.^.^.^.^.^.^.",
"^.^.^.^.^.^.^.^.^.^.^.^.^.^.^.^.          ^.^.^.^.^.^.^.^.^.^.^.^.^.^.^.^.^.^.^.^.^.^.^.^.^.^.^.^.^.^.^.^.^.^.^.^.^.^.^.^.^.^.^.",
"^.^.^.^.^.^.^.^.^.^.^.^.^.^.^.^.^.^.^.^.^.^.^.^.^.^.^.^.^.^.^.^.^.^.^.^.^.^.^.^.^.^.^.^.^.^.^.^.^.^.^.^.^.^.^.^.^.^.^.^.^.^.^.^."
};
