/* XPM */
static char *result[] = {
/* columns rows colors chars-per-pixel */
"64 64 164 2 ",
"   c black",
".  c #010102",
"X  c #030203",
"o  c #060305",
"O  c #0B0408",
"+  c #0D050A",
"@  c #0F080C",
"#  c #110B0F",
"$  c #140C12",
"%  c #190C13",
"&  c #210C16",
"*  c #270C18",
"=  c #290F1A",
"-  c #24151E",
";  c #29121B",
":  c #1E1921",
">  c #1C1C24",
",  c #1A1F28",
"<  c #1B222B",
"1  c #1B252E",
"2  c #1D2631",
"3  c #192935",
"4  c #192D3A",
"5  c #19303E",
"6  c #3A2F37",
"7  c #31343C",
"8  c #5C1C32",
"9  c #641A34",
"0  c #711A39",
"q  c #4D2733",
"w  c #422C33",
"e  c #542132",
"r  c #193443",
"t  c #1A3545",
"y  c #1D3644",
"u  c #223642",
"i  c #283640",
"p  c #7D1D40",
"a  c #285359",
"s  c #2A5459",
"d  c #30565B",
"f  c #35555C",
"g  c #3C535E",
"h  c #265466",
"j  c #26586E",
"k  c #255974",
"l  c #245A77",
"z  c #235B7B",
"x  c #235D7D",
"c  c #235E7F",
"v  c #484F5E",
"b  c #6E4F54",
"n  c #7C4852",
"m  c #645156",
"M  c #435060",
"N  c #405260",
"B  c #4B5063",
"V  c #515163",
"C  c #565161",
"Z  c #5D5D7F",
"A  c #5E5E7E",
"S  c #6A6A77",
"D  c #62617A",
"F  c #666679",
"G  c #686879",
"H  c #6A6C79",
"J  c #696D7C",
"K  c #841E43",
"L  c #981F4C",
"P  c #902049",
"I  c #8D3E55",
"U  c #9E3356",
"Y  c #A0204F",
"T  c #B12257",
"R  c #B22457",
"E  c #96736F",
"W  c #99706B",
"Q  c #917877",
"!  c #A16F6C",
"~  c #AB6E6D",
"^  c #B76770",
"/  c #D54F78",
"(  c #DF497F",
")  c #CD5773",
"_  c #C26170",
"`  c #235F80",
"'  c #235F81",
"]  c #276484",
"[  c #2B6887",
"{  c #2E6D8B",
"}  c #31718D",
"|  c #33748D",
" . c #357690",
".. c #367793",
"X. c #3A7C93",
"o. c #3B7E92",
"O. c #3F7D90",
"+. c #387994",
"@. c #5A6383",
"#. c #5C6081",
"$. c #4C738E",
"%. c #427C8F",
"&. c #457A90",
"*. c #5F7B94",
"=. c #657386",
"-. c #E34A81",
";. c #EB5087",
":. c #E95A86",
">. c #5489AC",
",. c #549BAE",
"<. c #508FB5",
"1. c #4F91B7",
"2. c #4F92B9",
"3. c #4F93B9",
"4. c #5297B0",
"5. c #5399B0",
"6. c #5195B9",
"7. c #5196B8",
"8. c #58A5AE",
"9. c #5BADAF",
"0. c #5EB3B0",
"q. c #61B6B2",
"w. c #62B9B3",
"e. c #70B6BA",
"r. c #89818A",
"t. c #88848E",
"y. c #8B8994",
"u. c #8F8E9E",
"i. c #9795A6",
"p. c #9D9BAC",
"a. c #A1A0B2",
"s. c #A6A7B9",
"d. c #AAACBE",
"f. c #AAAEBF",
"g. c #DE8582",
"h. c #DA8D82",
"j. c #D7A08C",
"k. c #D9A48F",
"l. c #DEAB96",
"z. c #E3B19C",
"x. c #E6B6A1",
"c. c #EDBBA9",
"v. c #F1BFAE",
"b. c #F6C8B5",
"n. c #F7CDB7",
"m. c #F4CCB9",
"M. c #F6CDB8",
"N. c #F0CBBD",
"B. c #89B5C2",
"V. c #94B5C6",
"C. c #9CB4C6",
"Z. c #A5B2C4",
"A. c #DDCECD",
"S. c #DAD1D3",
"D. c #DAD7DA",
"F. c #DEDBDE",
"G. c #E1CBC6",
"H. c #E2DFE1",
"J. c #E5E4E7",
"K. c #EAEBEF",
"L. c #F8F7F9",
"P. c #FDFDFD",
"I. c white",
"U. c None",
/* pixels */
"U.U.U.U.U.U.U.U.U.U.U.U.U.U.U.U.U.U.U.U.U.U.U.U.U.U.U.U.U.U.U.U.U.U.U.U.U.U.U.U.U.U.U.U.U.U.U.U.U.U.U.U.U.U.U.U.U.U.U.U.U.U.U.U.",
"U.U.U.U.U.U.U.U.U.U.U.U.U.U.U.U.U.U.U.U.U.U.U.U.U.U.U.U.U.U.U.U.U.U.U.U.U.U.U.U.U.U.U.U.U.U.U.U.U.U.U.U.U.U.U.U.U.U.U.U.U.U.U.U.",
"U.U.U.U.U.U.U.U.U.U.U.U.U.U.U.U.U.U.U.U.U.U.U.U.U.U.U.U.U.U.U.U.U.U.U.U.U.U.U.U.U.U.U.U.U.U.U.U.U.U.U.U.U.U.U.U.U.U.U.U.U.U.U.U.",
"U.U.U.U.U.U.U.U.U.U.U.U.U.U.U.U.U.U.U.U.U.U.U.U.U.U.U.U.U.U.U.U.U.U.U.U.U.U.U.U.U.U.U.U.U.U.U.U.U.U.U.U.U.U.U.U.U.U.U.U.U.U.U.U.",
"U.U.U.U.U.U.U.U.U.U.U.U.U.U.U.U.U.U.U.U.U.U.U.U.U.U.U.U.U.U.U.U.U.U.U.U.U.U.U.U.U.U.U.U.U.U.U.U.U.U.U.U.U.U.U.U.U.U.U.U.U.U.U.U.",
"U.U.U.U.U.U.U.U.U.U.U.U.U.U.U.U.U.U.U.U.U.U.U.U.U.U.U.U.U.U.U.U.U.U.U.U.U.U.U.U.U.U.U.U.U.U.U.U.U.U.U.U.U.U.U.U.U.U.U.U.U.U.U.U.",
"U.U.U.U.U.U.U.U.U.U.U.U.U.U.U.U.U.U.U.U.U.U.U.U.U.U.U.U.U.U.U.U.U.U.U.U.U.U.U.U.U.U.U.U.U.U.U.U.U.U.U.U.U.U.U.U.U.U.U.U.U.U.U.U.",
"U.U.U.U.U.U.U.U.U.U.U.U.U.U.U.U.U.U.U.U.U.U.U.U.U.U.U.U.U.U.U.U.U.U.U.U.U.U.U.U.U.U.U.U.U.U.U.U.U.U.U.U.U.U.U.U.U.U.U.U.U.U.U.U.",
"U.U.U.U.U.U.U.U.U.U.U.U.U.U.U.U.U.U.U.U.U.U.U.U.U.U.U.U.U.U.U.U.U.U.U.U.U.U.U.U.U.U.U.U.U.U.U.U.U.U.U.U.U.U.U.U.U.U.U.U.U.U.U.U.",
"U.U.U.U.U.U.U.U.U.U.U.U.U.U.U.U.U.U.U.U.U.U.U.U.U.U.U.U.U.U.U.U.U.U.U.U.U.U.U.U.U.U.U.U.U.U.U.U.U.U.U.U.U.U.U.U.U.U.U.U.U.U.U.U.",
"U.U.U.U.7 v v U.U.U.U.U.U.U.U.U.U.U.U.U.U.U.U.U.U.U.U.U.U.U.U.U.U.U.U.U.U.U.U.U.U.U.U.U.U.U.U.U.U.U.U.U.U.U.U.U.U.U.U.U.U.U.U.U.",
"U.U.U.g a.d.d.u.u.  U.U.U.U.U.U.U.U.U.U.U.U.U.U.U.U.U.U.U.U.U.U.U.U.U.U.U.U.U.U.U.U.U.U.U.U.U.U.U.U.U.U.U.U.U.U.U.U.U.U.U.U.U.U.",
"U.U.: y.d.d.d.d.d.d.C 6 U.U.U.U.U.U.U.U.U.U.U.U.U.U.U.U.U.U.U.U.U.U.U.U.U.U.U.U.U.U.U.U.U.U.U.U.U.U.U.U.U.U.U.U.U.U.U.U.U.U.U.U.",
"U.U.7 t.d.d.d.d.d.d.d.s.=.# U.U.U.U.U.U.U.U.U.U.U.U.U.U.U.U.U.U.U.U.U.U.U.U.U.U.U.U.U.U.U.U.U.U.U.U.U.U.U.U.U.U.U.U.U.U.U.U.U.U.",
"U.  i.A G s.s.d.d.d.d.d.s.@ U.U.U.U.U.U.U.U.U.U.U.U.U.U.U.U.U.U.U.U.U.U.U.U.U.U.U.U.U.U.U.U.U.U.U.U.U.U.U.U.U.U.U.U.U.U.U.U.U.U.",
"U.  i.A A A A t.t.d.d.s.D o U.U.U.U.U.U.U.U.U.U.U.U.U.U.U.U.U.U.U.U.U.U.U.U.U.U.U.U.U.U.U.U.U.U.U.U.U.U.U.U.U.U.U.U.U.U.U.U.U.U.",
"U.  i.A A A A A A #.g i i X     U.U.U.U.U.U.U.U.U.U.U.U.U.U.U.U.U.U.U.U.U.U.U.U.U.U.U.U.U.U.U.U.U.U.U.U.U.U.U.U.U.U.U.U.U.U.U.U.",
"U.p.A V A A A A A A A Z $ a.H >   U.U.U.U.@ $ $ U.U.U.U.U.U.U.U.U.U.U.U.U.U.U.U.U.U.U.U.U.U.U.U.U.U.U.U.U.U.U.U.U.U.U.U.U.U.U.U.",
"U.p.A 7 A A A A A A A Z $ a.v G o 2       X < V J o U.U.U.U.U.U.U.U.U.U.U.U.U.U.U.U.U.U.U.U.U.U.U.U.U.U.U.U.U.U.U.U.U.U.U.U.U.U.",
"> u.A A B M A A A A A B % ; t.7 V > O.,.w.w.s i p.d.$ U.U.U.U.U.U.U.U.U.U.U.U.U.U.U.U.U.U.U.U.U.U.U.U.U.U.U.U.U.U.U.U.U.U.U.U.U.",
"V F A A 7 g A A A A A 2 p ;.2 p.3 O.w.w.w.w.w.0.g *.7 U.U.U.U.U.U.U.U.U.U.U.U.U.U.U.U.U.U.U.U.U.U.U.U.U.U.U.U.U.U.U.U.U.U.U.U.U.",
"V F A A 7 N A A A A A 2 9 T O . X.9.w.w.w.w.q.w.w.# 7 U.U.U.U.U.U.U.U.U.U.U.U.U.U.U.U.U.U.U.U.U.U.U.U.U.U.U.U.U.U.U.U.U.U.U.U.U.",
"J @.B A i V A A A A B + T O R = p p d d d 9.o.,.w.f     U.U.U.U.U.U.U.U.U.U.U.U.U.U.U.U.U.U.U.U.U.U.U.U.U.U.U.U.U.U.U.U.U.U.U.U.",
"u.A 7 A Z A A A A A 7 + T O O . T T ( ( ( # @ : y x.c.c.  U.U.U.U.U.U.U.U.U.U.U.U.U.U.U.U.U.U.U.U.U.U.U.U.U.U.U.U.U.U.U.U.U.U.U.",
"u.A A A A A A A A A , X 1 u w.w.u u p p p -.-.) E M.M.M.M.C U.U.U.U.U.U.U.U.U.U.U.U.U.U.U.U.U.U.U.U.U.U.U.U.U.U.U.U.U.U.U.U.U.U.",
"u.A A A A A A A A V $ @ &.w.w.w.w.w.%. .@ * * * E M.M.M.M.C # j.j.  U.U.U.U.U.U.U.U.U.U.U.U.U.U.U.U.U.U.U.U.U.U.U.U.U.U.U.U.U.U.",
"Z A A A A A A A A B # @ ,.w.w.w.w.0.4.4   h.w 2 b M.M.M.x.w ^ b.M.M.6 U.U.U.U.U.U.U.U.U.U.U.U.U.U.U.U.U.U.U.U.U.U.U.U.U.U.U.U.U.",
"2 Z A A A A A A A < 3 @ O.q.w.w.O.y y.    c.w F.5 m E l.^ n Q ! l.M.6     U.U.U.U.U.U.U.U.U.U.U.U.U.U.U.U.U.U.U.U.U.U.U.U.U.U.U.",
"U.    > Z Z Z Z 7 < a | | | | | . a.L.X   M.w F.t 2.k X . .   X n h.; ;.9 U.U.U.U.U.U.U.U.U.U.U.U.U.U.U.U.U.U.U.U.U.U.U.U.U.U.U.",
"U.U.U.U.          , | | | | a q b y.y.v m c.W r.$...{ X.# 5 o q o     9 = U.U.U.U.U.U.U.U.U.U.U.U.U.U.U.U.U.U.U.U.U.U.U.U.U.U.U.",
"U.U.U.U.U.U.U.U.U., | | | | a ~ h.z.z.z.m.b.b.> C.6.X.> j 1 j j o U.U.U.U.  U.U.U.U.U.U.U.U.U.U.U.U.U.U.U.U.U.U.U.U.U.U.U.U.U.U.",
"U.U.U.U.U.U.U.U.U., | o.4.| w.s ~ M.M.W 7 7 7 D.6.6.{ 1 ' ' :   U.U.U.U.U.  U.U.U.U.U.U.U.U.U.U.U.U.U.U.U.U.U.U.U.U.U.U.U.U.U.U.",
"U.U.U.U.U.U.U.U.  h t 8.4.| ,.w.; c.M.W H.S V.6.6.6.t h ' ' > U.U.U.U.U.  U.U.U.U.U.U.U.U.U.U.U.U.U.U.U.U.U.U.U.U.U.U.U.U.U.U.U.",
"U.U.U.U.U.U.U.U.  a   w.4.| a %.- ^ z.b : D.6.6.1.j 5 ' x , U.U.U.U.U.6 I.  U.U.U.U.U.U.U.U.U.U.U.U.U.U.U.U.U.U.U.U.U.U.U.U.U.U.",
"U.U.U.U.U.U.U.U.U.U.  0.u | a         7 C.6.6.1.h . ' r 3 U.U.U.U.U.U.1 H U.U.U.U.U.U.U.U.U.U.U.U.U.U.U.U.U.U.U.U.U.U.U.U.U.U.U.",
"U.U.U.U.U.U.U.U.U.U.  X U.X a U.$ x ` 6.6.6.6.j .   X   U.U.U.U.U.U.U.U.U.U.U.U.U.U.U.U.U.U.U.U.U.U.U.U.U.U.U.U.U.U.U.U.U.U.U.U.",
"U.U.U.U.U.U.U.U.U.U.U.U.U.U.  4 +.' 6.6.6.<.[ 5 ' X 0 5 U.U.U.U.U.U.U.U.U.U.U.U.U.U.U.U.U.U.U.U.U.U.U.U.U.U.U.U.U.U.U.U.U.U.U.U.",
"U.U.U.U.U.U.U.U.U.U.U.U.U.U.5 <.' 5 { 6.6.2.<.' ' X P &.  U.U.U.U.U.U.U.U.U.U.U.U.U.U.U.U.U.U.U.U.U.U.U.U.U.U.U.U.U.U.U.U.U.U.U.",
"U.U.U.U.U.U.U.U.U.U.U.U.U.U.y { z > h | 3.6.6.<.' X U &.  U.U.U.U.U.U.U.U.U.U.U.U.U.U.U.U.U.U.U.U.U.U.U.U.U.U.U.U.U.U.U.U.U.U.U.",
"U.U.U.U.U.U.U.U.U.U.U.U.U.U., 1 >   U.t } } } } t U 6 r U.U.U.U.U.U.U.U.U.U.U.U.U.U.U.U.U.U.U.U.U.U.U.U.U.U.U.U.U.U.U.U.U.U.U.U.",
"U.U.U.U.U.U.U.U.U.U.U.U.U.U.U.U.U.U.U.U.h ' ' c 4 ( o U.U.U.U.U.U.U.U.U.U.U.U.U.U.U.U.U.U.U.U.U.U.U.U.U.U.U.U.U.U.U.U.U.U.U.U.U.",
"U.U.U.U.U.U.U.U.U.U.U.U.U.U.U.U.U.U.U.U.  ' ' 5 p . t U.U.U.U.U.U.U.U.U.U.U.U.U.U.U.U.U.U.U.U.U.U.U.U.U.U.U.U.U.U.U.U.U.U.U.U.U.",
"U.U.U.U.U.U.U.U.U.U.U.U.U.U.              ' < ) t X t U.U.U.U.U.U.U.U.U.U.U.U.U.U.U.U.U.U.U.U.U.U.U.U.U.U.U.U.U.U.U.U.U.U.U.U.U.",
"U.U.U.U.U.U.U.U.U.U.U.U.U.= p p K 0 p 9 = = 9 4 ' X ' $ U.U.U.U.U.U.U.U.U.U.U.U.U.U.U.U.U.U.U.U.U.U.U.U.U.U.U.U.U.U.U.U.U.U.U.U.",
"U.U.U.U.U.U.U.U.U.U.U.U.8 * h h y K   8 = * O : : . : p       U.U.U.U.U.U.U.U.U.U.U.U.U.U.U.U.U.U.U.U.U.U.U.U.U.U.U.U.U.U.U.U.U.",
"U.U.U.U.U.U.U.U.U.U.U.+ 8 l >.6.7.3 T     L L Y ( ;./ - k.M.M.E > U.U.U.U.U.U.U.U.U.U.U.U.U.U.U.U.U.U.U.U.U.U.U.U.U.U.U.U.U.U.U.",
"U.U.U.U.U.U.U.U.U.U.U.+ 8 l C.D.B.y T   q I E W L ;.8 _ z.M.M.M.M.b U.U.U.U.U.U.U.U.U.U.U.U.U.U.U.U.U.U.U.U.U.U.U.U.U.U.U.U.U.U.",
"U.U.U.U.U.U.U.U.U.U.U.+ 8 l 5.L.7.y T w g.M.M.c.w T ; I g.x.n.M.M.Q U.U.U.U.U.U.U.U.U.U.U.U.U.U.U.U.U.U.U.U.U.U.U.U.U.U.U.U.U.U.",
"U.U.U.U.U.U.U.U.U.U.U.+ 8 l e.<.V.5 T q h.M.M.j.-   & 8 @ n h.z.z.W U.U.U.U.U.U.U.U.U.U.U.U.U.U.U.U.U.U.U.U.U.U.U.U.U.U.U.U.U.U.",
"U.U.U.U.U.U.U.U.U.U.U.U.9 $ ' ] &.I % ~ v.M.M.^     Z A K # W ^ h.% U.U.U.U.U.U.U.U.U.U.U.U.U.U.U.U.U.U.U.U.U.U.U.U.U.U.U.U.U.U.",
"U.U.U.U.U.U.U.U.U.U.U.U.U.p = = 0 ) o ~ b.M.M.n U.> u.d.G.v.e &   U.U.U.U.U.U.U.U.U.U.U.U.U.U.U.U.U.U.U.U.U.U.U.U.U.U.U.U.U.U.U.",
"U.U.U.U.U.U.U.U.U.U.U.U.U.U.* * w % o g.b.M.l.    : d.F.I.I.N.; U.U.U.U.U.U.U.U.U.U.U.U.U.U.U.U.U.U.U.U.U.U.U.U.U.U.U.U.U.U.U.U.",
"U.U.U.U.U.U.U.U.U.U.U.U.U.U.U.U.U.@ $ m l.z.h.    p.v A.I.I.A.U.U.U.U.U.U.U.U.U.U.U.U.U.U.U.U.U.U.U.U.U.U.U.U.U.U.U.U.U.U.U.U.U.",
"U.U.U.U.U.U.U.U.U.U.U.U.U.U.U.U.U.q I f.y.y.2 U.U.e ~ y.H H   U.U.U.U.U.U.U.U.U.U.U.U.U.U.U.U.U.U.U.U.U.U.U.U.U.U.U.U.U.U.U.U.U.",
"U.U.U.U.U.U.U.U.U.U.U.U.U.U.U.U.$ A s./ ;.;.e U.U.U.9 J.P.P.  U.U.U.U.U.U.U.U.U.U.U.U.U.U.U.U.U.U.U.U.U.U.U.U.U.U.U.U.U.U.U.U.U.",
"U.U.U.U.U.U.U.U.U.U.U.U.U.U.U.U.$ u.D.I.I.S.2 U.U.U.U.K I I   U.U.U.U.U.U.U.U.U.U.U.U.U.U.U.U.U.U.U.U.U.U.U.U.U.U.U.U.U.U.U.U.U.",
"U.U.U.U.U.U.U.U.U.U.U.U.U.U.U.  A s.I.I.I.t.U.U.U.U.U.U.U.U.U.U.U.U.U.U.U.U.U.U.U.U.U.U.U.U.U.U.U.U.U.U.U.U.U.U.U.U.U.U.U.U.U.U.",
"U.U.U.U.U.U.U.U.U.U.U.U.U.U.U.: t.H.I.I.K.D U.U.U.U.U.U.U.U.U.U.U.U.U.U.U.U.U.U.U.U.U.U.U.U.U.U.U.U.U.U.U.U.U.U.U.U.U.U.U.U.U.U.",
"U.U.U.U.U.U.U.U.U.U.U.U.U.U.U.: d.H.I.I.Z.  U.U.U.U.U.U.U.U.U.U.U.U.U.U.U.U.U.U.U.U.U.U.U.U.U.U.U.U.U.U.U.U.U.U.U.U.U.U.U.U.U.U.",
"U.U.U.U.U.U.U.U.U.U.U.U.U.U.U.r.2 A.J.J.a.  U.U.U.U.U.U.U.U.U.U.U.U.U.U.U.U.U.U.U.U.U.U.U.U.U.U.U.U.U.U.U.U.U.U.U.U.U.U.U.U.U.U.",
"U.U.U.U.U.U.U.U.U.U.U.U.U.U.U.e ! H t.t.t.  U.U.U.U.U.U.U.U.U.U.U.U.U.U.U.U.U.U.U.U.U.U.U.U.U.U.U.U.U.U.U.U.U.U.U.U.U.U.U.U.U.U.",
"U.U.U.U.U.U.U.U.U.U.U.U.U.U.U.U.* ( :.:.:.  U.U.U.U.U.U.U.U.U.U.U.U.U.U.U.U.U.U.U.U.U.U.U.U.U.U.U.U.U.U.U.U.U.U.U.U.U.U.U.U.U.U.",
"U.U.U.U.U.U.U.U.U.U.U.U.U.U.U.U.U.        U.U.U.U.U.U.U.U.U.U.U.U.U.U.U.U.U.U.U.U.U.U.U.U.U.U.U.U.U.U.U.U.U.U.U.U.U.U.U.U.U.U.U.",
"U.U.U.U.U.U.U.U.U.U.U.U.U.U.U.U.U.U.U.U.U.U.U.U.U.U.U.U.U.U.U.U.U.U.U.U.U.U.U.U.U.U.U.U.U.U.U.U.U.U.U.U.U.U.U.U.U.U.U.U.U.U.U.U."
};
