/* XPM */
static char *result[] = {
/* columns rows colors chars-per-pixel */
"64 64 172 2 ",
"   c black",
".  c #020101",
"X  c #050203",
"o  c #090407",
"O  c #0E050A",
"+  c #0E0A0F",
"@  c #11060C",
"#  c #10080D",
"$  c #0D0D12",
"%  c #0C1015",
"&  c #0D1116",
"*  c #0E1218",
"=  c #0F161C",
"-  c #17161D",
";  c #1F1319",
":  c #1B161C",
">  c #260F19",
",  c #2D0D1A",
"<  c #320D1B",
"1  c #3A0D1E",
"2  c #321D2C",
"3  c #3D182B",
"4  c #1A222D",
"5  c #1B222E",
"6  c #1F212D",
"7  c #1C2831",
"8  c #1D2D34",
"9  c #1C343B",
"0  c #1D353F",
"q  c #23222D",
"w  c #2A202C",
"e  c #37323F",
"r  c #420D21",
"t  c #460F24",
"y  c #451429",
"u  c #491128",
"i  c #7C1C3F",
"p  c #4A2F3C",
"a  c #572B39",
"s  c #512E3A",
"d  c #41313D",
"f  c #612639",
"g  c #68223B",
"h  c #74203D",
"j  c #213440",
"k  c #243541",
"l  c #293340",
"z  c #2E3240",
"x  c #25495D",
"c  c #29485C",
"v  c #33475C",
"b  c #3E4759",
"n  c #234C61",
"m  c #224D66",
"M  c #22516C",
"N  c #23546F",
"B  c #245773",
"V  c #245A78",
"C  c #245D7D",
"Z  c #29617D",
"A  c #2B647E",
"S  c #434758",
"D  c #474959",
"F  c #4F4D5C",
"G  c #554F5C",
"H  c #5D535B",
"J  c #6B565B",
"K  c #735A5B",
"L  c #7C5B58",
"P  c #535F7F",
"I  c #5B5C7E",
"U  c #585E7E",
"Y  c #5C5C7E",
"T  c #5E5E7F",
"R  c #5F5F7F",
"E  c #67667A",
"W  c #63637D",
"Q  c #6C6B78",
"!  c #706F79",
"~  c #78767C",
"^  c #831D43",
"/  c #8A1F47",
"(  c #93214B",
")  c #9D2451",
"_  c #9F2C55",
"`  c #9B3556",
"'  c #A32453",
"]  c #964357",
"[  c #8F5B57",
"{  c #865C58",
"}  c #915456",
"|  c #DA627D",
" . c #D5687B",
".. c #C07D7F",
"X. c #C87D7E",
"o. c #D07B7B",
"O. c #2E6780",
"+. c #326F83",
"@. c #347086",
"#. c #397285",
"$. c #5D5D80",
"%. c #426C83",
"&. c #7D7B82",
"*. c #7F7E85",
"=. c #BA7F83",
"-. c #DD6681",
";. c #E56489",
":. c #E9668E",
">. c #7E8595",
",. c #768698",
"<. c #4B8CAD",
"1. c #4B8FAF",
"2. c #5587A6",
"3. c #4C90AF",
"4. c #4D92AF",
"5. c #539EAB",
"6. c #5099AD",
"7. c #4F95B0",
"8. c #58A8A9",
"9. c #5AADAA",
"0. c #5EB2AD",
"q. c #5FB3AF",
"w. c #61B7B1",
"e. c #62B8B2",
"r. c #66B9B4",
"t. c #74B8B9",
"y. c #7CB9BC",
"u. c #838289",
"i. c #86858D",
"p. c #858795",
"a. c #888890",
"s. c #AF878C",
"d. c #B58186",
"f. c #A98F93",
"g. c #A3959C",
"h. c #9F98A5",
"j. c #A19BA8",
"k. c #83BBBE",
"l. c #A5A3B2",
"z. c #A7A7B7",
"x. c #AAAABB",
"c. c #ABABBD",
"v. c #ABACBD",
"b. c #ADB0BD",
"n. c #ACB3BF",
"m. c #E5A2A2",
"M. c #E2ABA2",
"N. c #E4B0A5",
"B. c #E5B4A7",
"V. c #EABAAB",
"C. c #EFC2B1",
"Z. c #F4C9B4",
"A. c #F6CBB7",
"S. c #F7CDB9",
"D. c #F7CEB9",
"F. c #94B9C0",
"G. c #9DB8C1",
"H. c #A9B6C1",
"J. c #A4B8C2",
"K. c #DED4D7",
"L. c #D7D7DD",
"P. c #F1CFC2",
"I. c #D6DCE2",
"U. c #D5E0E6",
"Y. c #D7E7EA",
"T. c #DDEFF0",
"R. c #E6F5F5",
"E. c #F5FBFB",
"W. c #FAFBFC",
"Q. c #FDFDFD",
"!. c white",
"~. c None",
/* pixels */
"~.~.~.~.~.~.~.~.~.~.~.~.~.~.~.~.~.~.~.~.~.~.~.~.~.~.~.~.~.~.~.~.~.~.~.~.~.~.~.~.~.~.~.~.~.~.~.~.~.~.~.~.~.~.~.~.~.~.~.~.~.~.~.~.",
"~.~.~.~.~.~.~.~.~.~.~.~.~.~.~.~.~.~.~.~.~.~.~.~.~.~.~.~.~.~.~.~.~.~.~.~.~.~.~.~.~.~.~.~.~.~.~.~.~.~.~.~.~.~.~.~.~.~.~.~.~.~.~.~.",
"~.~.~.~.~.~.~.~.~.~.~.~.~.~.~.~.~.~.~.~.~.~.~.~.~.~.~.~.~.~.~.~.~.~.~.~.~.~.~.~.~.~.~.~.~.~.~.~.~.~.~.~.~.~.~.~.~.~.~.~.~.~.~.~.",
"~.~.~.~.~.~.~.~.~.~.~.~.~.~.~.~.~.~.~.~.~.~.~.~.~.~.~.~.~.~.~.~.~.~.~.~.~.~.~.~.~.~.~.~.~.~.~.~.~.~.~.~.~.~.~.~.~.~.~.~.~.~.~.~.",
"~.~.~.~.~.~.~.~.~.~.~.~.~.~.~.~.~.~.~.~.~.~.~.~.~.~.~.~.~.~.~.~.~.~.~.~.~.~.~.~.~.~.~.~.~.~.~.~.~.~.~.~.~.~.~.~.~.~.~.~.~.~.~.~.",
"~.~.~.~.~.~.~.~.~.~.~.~.~.~.~.~.~.~.~.~.~.~.~.~.~.~.~.~.~.~.~.~.~.~.~.~.~.~.~.~.~.~.~.~.~.~.~.~.~.~.~.~.~.~.~.~.~.~.~.~.~.~.~.~.",
"~.~.~.~.~.~.~.~.~.~.~.~.~.~.~.~.~.~.~.~.~.~.~.~.~.~.~.~.~.~.~.~.~.~.~.~.~.~.~.~.~.~.~.~.~.~.~.~.~.~.~.~.~.~.~.~.~.~.~.~.~.~.~.~.",
"~.~.~.~.~.~.~.~.~.: : : - ~.~.~.~.~.~.~.~.~.~.~.~.~.~.~.~.~.~.~.~.~.~.~.~.~.~.~.~.~.~.~.~.~.~.~.~.~.~.~.~.~.~.~.~.~.~.~.~.~.~.~.",
"~.~.~.~.~.~.~.~.H v.v.v.j.E G * ~.~.~.~.~.~.~.~.~.~.~.~.~.~.~.~.~.~.~.~.~.~.~.~.~.~.~.~.~.~.~.~.~.~.~.~.~.~.~.~.~.~.~.~.~.~.~.~.",
"~.~.~.~.~.~.~.D c.v.v.v.v.v.v.v.F ~.~.~.~.~.~.~.~.~.~.~.~.~.~.~.~.~.~.~.~.~.~.~.~.~.~.~.~.~.~.~.~.~.~.~.~.~.~.~.~.~.~.~.~.~.~.~.",
"~.~.~.~.~.~.~.E W p.l.v.v.v.v.v.v.! ~.~.~.~.~.~.~.~.~.~.~.~.~.~.~.~.~.~.~.~.~.~.~.~.~.~.~.~.~.~.~.~.~.~.~.~.~.~.~.~.~.~.~.~.~.~.",
"~.~.~.~.~.~.  p.T T E Q p.v.v.v.v.v.p.~.~.~.~.~.~.~.~.~.~.~.~.~.~.~.~.~.~.~.~.~.~.~.~.~.~.~.~.~.~.~.~.~.~.~.~.~.~.~.~.~.~.~.~.~.",
"~.~.~.~.~.~.z >.T T T T T T h.h.v.v.z.  ~.~.~.~.~.~.~.~.~.~.~.~.~.~.~.~.~.~.~.~.~.~.~.~.~.~.~.~.~.~.~.~.~.~.~.~.~.~.~.~.~.~.~.~.",
"~.~.~.~.~.  c.T T S T T T T T T ,.,.!   ~.~.~.~.~.~.~.~.~.~.~.~.~.~.~.~.~.~.~.~.~.~.~.~.~.~.~.~.~.~.~.~.~.~.~.~.~.~.~.~.~.~.~.~.",
"~.~.~.~.~.* l.T I b T T T T T T T b   ~.~.~.~.~.~.~.~.~.~.~.~.~.~.~.~.~.~.~.~.~.~.~.~.~.~.~.~.~.~.~.~.~.~.~.~.~.~.~.~.~.~.~.~.~.",
"~.~.~.~.~.W R T z U b T T T T T U q ~.~.~.~.~.~.~.~.~.~.~.~.~.~.~.~.~.~.~.~.~.~.~.~.~.~.~.~.~.~.~.~.~.~.~.~.~.~.~.~.~.~.~.~.~.~.",
"~.~.~.~.~.W R T Y F l T T T T T P &   ~.~.~.~.~.~.~.~.~.~.~.~.~.~.~.~.~.~.~.~.~.~.~.~.~.~.~.~.~.~.~.~.~.~.~.~.~.~.~.~.~.~.~.~.~.",
"~.~.~.~.: >.T U I e b T T T T T 6 1 f   ~.~.~.~.$ & $ ~.~.~.~.~.~.~.~.~.~.~.~.~.~.~.~.~.~.~.~.~.~.~.~.~.~.~.~.~.~.~.~.~.~.~.~.~.",
"~.~.~.~.: >.T D U e b T T T T b , -.;.& 6       o q F *.  ~.~.~.~.~.~.~.~.~.~.~.~.~.~.~.~.~.~.~.~.~.~.~.~.~.~.~.~.~.~.~.~.~.~.~.",
"~.~.~.~.: >.T b T z F T T T T z > | . w o #.9.r.5.7 b z.p.~.~.~.~.~.~.~.~.~.~.~.~.~.~.~.~.~.~.~.~.~.~.~.~.~.~.~.~.~.~.~.~.~.~.~.",
"~.~.~.~.! Q T P T T T T T T G - / h i / / k 6.r.r.r.#.e ~ 6 ~.~.~.~.~.~.~.~.~.~.~.~.~.~.~.~.~.~.~.~.~.~.~.~.~.~.~.~.~.~.~.~.~.~.",
"~.~.~.  l.T T T T T T T T T D # ' r $ u  .;.y : 9.r.r.#.- 6 ~.~.~.~.~.~.~.~.~.~.~.~.~.~.~.~.~.~.~.~.~.~.~.~.~.~.~.~.~.~.~.~.~.~.",
"~.~.~.  >.T T T T T T T T T - q q 9 w.v f ^ | ;.h v %.5.n   ~.~.~.~.~.~.~.~.~.~.~.~.~.~.~.~.~.~.~.~.~.~.~.~.~.~.~.~.~.~.~.~.~.~.",
"~.~.~.  z T T T T T T T T z & l 7 q.r.r.9.%.O ' | -.` % n     ~.~.~.~.~.~.~.~.~.~.~.~.~.~.~.~.~.~.~.~.~.~.~.~.~.~.~.~.~.~.~.~.~.",
"~.~.~.~.o z F T T T T T P 6 $ 9 y.T.T.T.U.F.r.8 t i | ` L D.D.s.s ~.~.~.~.~.~.~.~.~.~.~.~.~.~.~.~.~.~.~.~.~.~.~.~.~.~.~.~.~.~.~.",
"~.~.~.~.~.~.+ - z T T I z X 7 8.k.k.k.k.r.r.r.q [ X , X D.D.D.D.D.  ~.~.~.~.~.~.~.~.~.~.~.~.~.~.~.~.~.~.~.~.~.~.~.~.~.~.~.~.~.~.",
"~.~.~.~.~.~.~.~.    - 6 - 6 k r.r.r.r.r.r.%.= ; o.X :   Z.D.D.D.C.  w w ; ~.~.~.~.~.~.~.~.~.~.~.~.~.~.~.~.~.~.~.~.~.~.~.~.~.~.~.",
"~.~.~.~.~.~.~.~.~.~.~.~.0 n A 0.r.r.e.#.x Q   ; C.X g.  o.C.D.V.f 2 B.D.s.  ~.~.~.~.~.~.~.~.~.~.~.~.~.~.~.~.~.~.~.~.~.~.~.~.~.~.",
"~.~.~.~.~.~.~.~.~.~.~.~.0 +.+.+.Z . X X I.n.. ; D.X g.. X [ o...# p V.D.D.Z.  ~.~.~.~.~.~.~.~.~.~.~.~.~.~.~.~.~.~.~.~.~.~.~.~.~.",
"~.~.~.~.~.~.~.~.~.~.~.~.0 +.+.+.+.8 [ K a.a.w { N.K a.: 2.N x 4 h ..L V.D.Z.< + ~.~.! D ~.~.~.~.~.~.~.~.~.~.~.~.~.~.~.~.~.~.~.~.",
"~.~.~.~.~.~.~.~.~.~.~.~.0 +.+.+.#.k o.m.N.N.N.D.C.D.{ n.1.@.O.0   ; g o.V.Z.u @ ~.  !.~ ~.~.~.~.~.~.~.~.~.~.~.~.~.~.~.~.~.~.~.~.",
"~.~.~.~.~.~.~.~.~.~.~.7 +.+.3.#.#.q.j X.D.D.d D D . ~ H.7.7.V   = 0 = h [   t @       ~.~.~.~.~.~.~.~.~.~.~.~.~.~.~.~.~.~.~.~.~.",
"~.~.~.~.~.~.~.~.~.~.0 +.+.7 9.#.+.#.j =.Z.D.d !.g.. J.6.7.#.= 5 C 0 =     ~.~.~.~.~.~.~.~.~.~.~.~.~.~.~.~.~.~.~.~.~.~.~.~.~.~.~.",
"~.~.~.~.~.~.~.~.~.~.      & 0.#.+.+.  a ..N.N.X h.R.7.7.7.O.* C C C B   ~.~.~.~.~.~.~.~.~.~.~.~.~.~.~.~.~.~.~.~.~.~.~.~.~.~.~.~.",
"~.~.~.~.~.~.~.~.~.~.~.~.  c k   O.&         E g.G.7.7.7.O.0 C C C m & ~.~.~.~.~.~.~.~.~.~.~.~.~.~.~.~.~.~.~.~.~.~.~.~.~.~.~.~.~.",
"~.~.~.~.~.~.~.~.~.~.~.~.~.~.~.  . B 4.#.C +.7.7.7.7.7.O.. . + C + X ~.~.~.~.~.~.~.~.~.~.~.~.~.~.~.~.~.~.~.~.~.~.~.~.~.~.~.~.~.~.",
"~.~.~.~.~.~.~.~.~.~.~.~.~.~.~.~.= <.C m V 7.7.7.<.2.x o ( Z 0   ~.~.~.~.~.~.~.~.~.~.~.~.~.~.~.~.~.~.~.~.~.~.~.~.~.~.~.~.~.~.~.~.",
"~.~.~.~.~.~.~.~.~.~.~.~.~.~.~.~.= Z C 0 % #.7.7.3.<.B & ` Z <.  ~.~.~.~.~.~.~.~.~.~.~.~.~.~.~.~.~.~.~.~.~.~.~.~.~.~.~.~.~.~.~.~.",
"~.~.~.~.~.~.~.~.~.~.~.~.~.~.~.~.~.        M #.7.7.7.B  .= @.  ~.~.~.~.~.~.~.~.~.~.~.~.~.~.~.~.~.~.~.~.~.~.~.~.~.~.~.~.~.~.~.~.~.",
"~.~.~.~.~.~.~.~.~.~.~.~.~.~.~.~.~.~.~.~.~.= C @.@.@.s f 0 = ~.~.~.~.~.~.~.~.~.~.~.~.~.~.~.~.~.~.~.~.~.~.~.~.~.~.~.~.~.~.~.~.~.~.",
"~.~.~.~.~.~.~.~.~.~.~.~.~.~.~.~.~.~.~.~.~.= C C C B g > n ~.~.~.~.~.~.~.~.~.~.~.~.~.~.~.~.~.~.~.~.~.~.~.~.~.~.~.~.~.~.~.~.~.~.~.",
"~.~.~.~.~.~.~.~.~.~.~.~.~.~.~.~.        ~.~.x C x i s + n ~.~.~.~.~.~.~.~.~.~.~.~.~.~.~.~.~.~.~.~.~.~.~.~.~.~.~.~.~.~.~.~.~.~.~.",
"~.~.~.~.~.~.~.~.~.~.~.~.~.~.~./ ' ' X ' @   x N ^ # C & n ~.~.~.~.~.~.~.~.~.~.~.~.~.~.~.~.~.~.~.~.~.~.~.~.~.~.~.~.~.~.~.~.~.~.~.",
"~.~.~.~.~.~.~.~.~.~.~.~.~.~.u w 4 4 i u '   < t 3 C N 7 n ~.~.~.~.~.~.~.~.~.~.~.~.~.~.~.~.~.~.~.~.~.~.~.~.~.~.~.~.~.~.~.~.~.~.~.",
"~.~.~.~.~.~.~.~.~.~.~.~.~./ w V <.<.n u 1 ( t > 0 C 0 m w 1       ~.~.~.~.~.~.~.~.~.~.~.~.~.~.~.~.~.~.~.~.~.~.~.~.~.~.~.~.~.~.~.",
"~.~.~.~.~.~.~.~.~.~.~.~.  ' 5 K.t.I.3.u @   h ( u > < < i [ D.D.D.2 ~.~.~.~.~.~.~.~.~.~.~.~.~.~.~.~.~.~.~.~.~.~.~.~.~.~.~.~.~.~.",
"~.~.~.~.~.~.~.~.~.~.~.~.  ' 5 +.!.F.3.g # ; L u.g ' | h L V.D.D.D.D.s.  ~.~.~.~.~.~.~.~.~.~.~.~.~.~.~.~.~.~.~.~.~.~.~.~.~.~.~.~.",
"~.~.~.~.~.~.~.~.~.~.~.~.  ' 5 L.7.I.1.h ; [ V.D.D.+ h h } ..A.A.A.D.D.  ~.~.~.~.~.~.~.~.~.~.~.~.~.~.~.~.~.~.~.~.~.~.~.~.~.~.~.~.",
"~.~.~.~.~.~.~.~.~.~.~.~.  ' 5 C A <.0 ` ; ..V.D.D.o.    # s L ..o.N.N.  ~.~.~.~.~.~.~.~.~.~.~.~.~.~.~.~.~.~.~.~.~.~.~.~.~.~.~.~.",
"~.~.~.~.~.~.~.~.~.~.~.~.~.@ h + + % | ` h m.S.D.N.[     J J . # X.o.[   ~.~.~.~.~.~.~.~.~.~.~.~.~.~.~.~.~.~.~.~.~.~.~.~.~.~.~.~.",
"~.~.~.~.~.~.~.~.~.~.~.~.~.~.1 ^ ^ _ `   L m.D.D.M.X ~.: W d.:.M.a y @ ~.~.~.~.~.~.~.~.~.~.~.~.~.~.~.~.~.~.~.~.~.~.~.~.~.~.~.~.~.",
"~.~.~.~.~.~.~.~.~.~.~.~.~.~.~.~.~.~.~.  [ m.D.Z.{ ~.~.F x.E.Q.P.P.f.~.~.~.~.~.~.~.~.~.~.~.~.~.~.~.~.~.~.~.~.~.~.~.~.~.~.~.~.~.~.",
"~.~.~.~.~.~.~.~.~.~.~.~.~.~.~.~.~.~.  H e N.N.M.a ~.o &.K.!.!.!.!.  ~.~.~.~.~.~.~.~.~.~.~.~.~.~.~.~.~.~.~.~.~.~.~.~.~.~.~.~.~.~.",
"~.~.~.~.~.~.~.~.~.~.~.~.~.~.~.~.~.~.e d.E.a.a.*.~.~.3 J a.!.!.!.~ ~.~.~.~.~.~.~.~.~.~.~.~.~.~.~.~.~.~.~.~.~.~.~.~.~.~.~.~.~.~.~.",
"~.~.~.~.~.~.~.~.~.~.~.~.~.~.~.~.~.  c.L.:.:.:. .~.~.~.) u.. . .   ~.~.~.~.~.~.~.~.~.~.~.~.~.~.~.~.~.~.~.~.~.~.~.~.~.~.~.~.~.~.~.",
"~.~.~.~.~.~.~.~.~.~.~.~.~.~.~.~.$ $.L.!.!.!.K.  ~.~.~.~.] P.P.P.$ ~.~.~.~.~.~.~.~.~.~.~.~.~.~.~.~.~.~.~.~.~.~.~.~.~.~.~.~.~.~.~.",
"~.~.~.~.~.~.~.~.~.~.~.~.~.~.~.~.* h.!.!.!.!.H ~.~.~.~.~.~.> > > . ~.~.~.~.~.~.~.~.~.~.~.~.~.~.~.~.~.~.~.~.~.~.~.~.~.~.~.~.~.~.~.",
"~.~.~.~.~.~.~.~.~.~.~.~.~.~.~.  I U.!.!.!.L.8 ~.~.~.~.~.~.~.~.~.~.~.~.~.~.~.~.~.~.~.~.~.~.~.~.~.~.~.~.~.~.~.~.~.~.~.~.~.~.~.~.~.",
"~.~.~.~.~.~.~.~.~.~.~.~.~.~.~.  Q b.!.!.!.a.~.~.~.~.~.~.~.~.~.~.~.~.~.~.~.~.~.~.~.~.~.~.~.~.~.~.~.~.~.~.~.~.~.~.~.~.~.~.~.~.~.~.",
"~.~.~.~.~.~.~.~.~.~.~.~.~.~.~.  ` D 6 Y.Y.Q ~.~.~.~.~.~.~.~.~.~.~.~.~.~.~.~.~.~.~.~.~.~.~.~.~.~.~.~.~.~.~.~.~.~.~.~.~.~.~.~.~.~.",
"~.~.~.~.~.~.~.~.~.~.~.~.~.~.~.~.@ ] W.i.i.H ~.~.~.~.~.~.~.~.~.~.~.~.~.~.~.~.~.~.~.~.~.~.~.~.~.~.~.~.~.~.~.~.~.~.~.~.~.~.~.~.~.~.",
"~.~.~.~.~.~.~.~.~.~.~.~.~.~.~.~.~.o & :.:.] ~.~.~.~.~.~.~.~.~.~.~.~.~.~.~.~.~.~.~.~.~.~.~.~.~.~.~.~.~.~.~.~.~.~.~.~.~.~.~.~.~.~.",
"~.~.~.~.~.~.~.~.~.~.~.~.~.~.~.~.~.~.~.      ~.~.~.~.~.~.~.~.~.~.~.~.~.~.~.~.~.~.~.~.~.~.~.~.~.~.~.~.~.~.~.~.~.~.~.~.~.~.~.~.~.~.",
"~.~.~.~.~.~.~.~.~.~.~.~.~.~.~.~.~.~.~.~.~.~.~.~.~.~.~.~.~.~.~.~.~.~.~.~.~.~.~.~.~.~.~.~.~.~.~.~.~.~.~.~.~.~.~.~.~.~.~.~.~.~.~.~."
};
