/* XPM */
static char *result[] = {
/* columns rows colors chars-per-pixel */
"64 64 185 2 ",
"   c black",
".  c #020102",
"X  c #040203",
"o  c #060204",
"O  c #060305",
"+  c #070406",
"@  c #070507",
"#  c #080508",
"$  c #09070A",
"%  c #0A090C",
"&  c #0F0A0F",
"*  c #170A11",
"=  c #1F0B14",
"-  c #171319",
";  c #16171D",
":  c #1B1B21",
">  c #192026",
",  c #162229",
"<  c #15262E",
"1  c #162832",
"2  c #172B36",
"3  c #192E39",
"4  c #1A2F3B",
"5  c #1C2E3C",
"6  c #1A303C",
"7  c #26263B",
"8  c #27273C",
"9  c #28283D",
"0  c #292A3F",
"q  c #3F3032",
"w  c #373239",
"e  c #4F1D29",
"r  c #57192C",
"t  c #60142F",
"y  c #671533",
"u  c #6E1737",
"i  c #77193C",
"p  c #452F2E",
"a  c #4A2C2D",
"s  c #6A413F",
"d  c #2A2B40",
"f  c #2B2C41",
"g  c #2C2D42",
"h  c #2D2E43",
"j  c #2E2E42",
"k  c #323040",
"l  c #34364D",
"z  c #35364D",
"x  c #37384E",
"c  c #2F3B50",
"v  c #393A51",
"b  c #3B3B53",
"n  c #3D3D55",
"m  c #3E3F58",
"M  c #2B4254",
"N  c #29495D",
"B  c #285267",
"V  c #26596E",
"C  c #265B73",
"Z  c #265F77",
"A  c #296677",
"S  c #2C6C79",
"D  c #2E6F7D",
"F  c #30737F",
"G  c #4F4856",
"H  c #404059",
"J  c #41415A",
"K  c #43435C",
"L  c #45465E",
"P  c #4B495F",
"I  c #614343",
"U  c #6F4041",
"Y  c #764143",
"T  c #7F4145",
"R  c #474760",
"E  c #494860",
"W  c #55576D",
"Q  c #55566E",
"!  c #555672",
"~  c #555674",
"^  c #565776",
"/  c #535A71",
"(  c #595979",
")  c #5A5A7B",
"_  c #5B5B7D",
"`  c #5C5C7F",
"'  c #5D5D7F",
"]  c #4C657A",
"[  c #7D727F",
"{  c #831840",
"}  c #961848",
"|  c #A81A50",
" . c #B31D55",
".. c #B91F59",
"X. c #BF1E5A",
"o. c #8B3C4D",
"O. c #913B51",
"+. c #993953",
"@. c #B32959",
"#. c #A23B56",
"$. c #A93558",
"%. c #C01F5B",
"&. c #C62561",
"*. c #854049",
"=. c #83757B",
"-. c #87787A",
";. c #887D7E",
":. c #D9837F",
">. c #D68E7F",
",. c #D88B7E",
"<. c #337881",
"1. c #347984",
"2. c #357886",
"3. c #37768A",
"4. c #3E7688",
"5. c #5D5D80",
"6. c #5E5E81",
"7. c #437183",
"8. c #626283",
"9. c #676780",
"0. c #666684",
"q. c #696984",
"w. c #6B6B87",
"e. c #6E6E88",
"r. c #777383",
"t. c #747286",
"y. c #717189",
"u. c #7E7E91",
"i. c #7D7D94",
"p. c #817F8C",
"a. c #E6728E",
"s. c #E97D94",
"d. c #7F8097",
"f. c #79829C",
"g. c #5C8BAB",
"h. c #5595B6",
"j. c #579CBB",
"k. c #589FB9",
"l. c #6486A5",
"z. c #5AA6B3",
"x. c #58A2B6",
"c. c #5CACB3",
"v. c #5FB3B4",
"b. c #61B8B3",
"n. c #65B9B4",
"m. c #6FB8B5",
"M. c #858084",
"N. c #838089",
"B. c #8F90A5",
"V. c #8F91A5",
"C. c #8E95A8",
"Z. c #9090A5",
"A. c #9595AA",
"S. c #9A9AAE",
"D. c #9E9EB1",
"F. c #B6A0A6",
"G. c #B2A5AF",
"H. c #A0A0B3",
"J. c #A3A3B7",
"K. c #A6A6B9",
"L. c #A8A8BB",
"P. c #ABABBD",
"I. c #ACACBE",
"U. c #ADADBE",
"Y. c #C99C8F",
"T. c #D59283",
"R. c #D0988A",
"E. c #EB8A9A",
"W. c #F0AAA3",
"Q. c #F2B8AA",
"!. c #F4C7B2",
"~. c #F5CBB5",
"^. c #F7CEB8",
"/. c #AAAFC0",
"(. c #DAD9D6",
"). c #D5DDDD",
"_. c #EDD1C3",
"`. c #D7E4E5",
"'. c #DDE9EA",
"]. c #DEEDEE",
"[. c #EDF6F6",
"{. c #F8F9FA",
"}. c #FEFDFD",
"|. c white",
" X c None",
/* pixels */
" X X X X X X X X X X X X X X X X X X X X X X X X X X X X X X X X X X X X X X X X X X X X X X X X X X X X X X X X X X X X X X X X",
" X X X X X X X X X X X X X X X X X X X X X X X X X X X X X X X X X X X X X X X X X X X X X X X X X X X X X X X X X X X X X X X X",
" X X X X X X X X X X X X X X X X X X X X X X X X X X X X X X X X X X X X X X X X X X X X X X X X X X X X X X X X X X X X X X X X",
" X X X X X X X X X X X X X X X X X X X X X X X X X X X X X X X X X X X X X X X X X X X X X X X X X X X X X X X X X X X X X X X X",
" X X X X X X X X X X X X X X X X X X X X X X X X X X X X X X X X X X X X X X X X X X X X X X X X X X X X X X X X X X X X X X X X",
" X X X X X X X X X X X X X X X X X XQ Q  X X X X X X X X X X X X X X X X X X X X X X X X X X X X X X X X X X X X X X X X X X X X",
" X X X X X X X X X X X X X X X7 m B.I.I.B.7  X X8 8 8 8 8 8  X X X X X X X X X X X X X X X X X X X X X X X X X X X X X X X X X X",
" X X X X X X X X X X X X X X XB.J.I.I.I.I.g n P H.H.H.H.H.H.n n n n n  X X X X X X X X X X X X X X X X X X X X X X X X X X X X X",
" X X X X X X X X X X X X X8 u.0.B.S.I.I.9.^ d.i.6.6.6.6.6.6.d.d.d.B.I.t.t.t. X X X X X X X X X X X X X X X X X X X X X X X X X X",
" X X X X X X X X X X X X0 J.6.S.6.B.I.I.x 6.6.6.6.6.6.6.6.6.P.P.P.V.6.I.I.I.y. X X X X X X X X X X X X X X X X X X X X X X X X X",
" X X X X X X X X X X X Xt.8.f.q.f.e.I.I.x 6.6.6.6.6.6.6.6.6.6.6.6.e.J.I.I.I.y. X X X X X X X X X X X X X X X X X X X X X X X X X",
" X X X X X X X X X X7 A.0.6.0.6.0.6.w.I.x 6.6.6.6.6.6.6.6.6.6.d.H.H.L.I.I.I.y. X Xu.S.6.8  X X X X X X X X X X X X X X X X X X X",
" X X X X X X X X X Xi.6.6.6.6.6.6.6.6.f.x 6.6.6.6.6.6.6.6.6.6.6.6.6.e.d.I.I.y. Xf ! 0.J.I.P  X X X X X X X X X X X X X X X X X X",
" X X X X X X X X9 d.0.6.6.6.6.6.6.6.6.q.k 6.6.6.6.6.6.6.6.6.6.6.6.6.S.I.I.I.y.8 ! 6.6.w.i.I.B.8  X X X X X X X X X X X X X X X X",
" X X X X X X X Xz V.6.6.6.6.6.6.6.6.6.J h ( 6.6.6.6.6.6.6.6.6.6.6.6.S.I.I.P.L ^ 6.6.6.6.6.i.P.V. X X X X X X X X X X X X X X X X",
" X X X X X X X XA.6.6.6.6.6.6.6.6.6.m z _ j H H H H H H 6.6.6.6.6.6.S.I.I.d.m 6.6.6.6.6.6.6.i.I.d.9  X X X X X X X X X X X X X X",
" X X X X X X X/ e.6.6.6.6.6.6.6.6.6.0 5.k 8 8 ` ` ` ` ` 6.6.6.6.6.6.S.I.I.d 5.6.6.6.6.6.6.6.6.y.I.D. X X X X X X X X X X X X X X",
" X X X X X X Xm 6.6.6.6.6.6.6.6.) J 5.v 8  X8 8 8 8 8 8 8 8 8 v E E e.p.E n 6.6.6.6.6.6.6.6.6.6.i.I.d. X X X X X X X X X X X X X",
" X X X X X X Xj ^ 6.6.6.6.6.6.6.` ) k 9  X X X X X X X X X X X X X X X X7 l 6.6.6.6.6.6.6.6.6.6.6.y.I.A.8  X X X X X X X X X X X",
" X X X X X X X X8 ~ 6.6.6.6.6.6.` x 8  X X X X X X%.%.%.%.%.%.%. X X X X X8 b ` ~ 6.6.6.6.6.6.6.6.6.f.I.d. X X X X X X X X X X X",
" X X X X X X X X Xk b 6.6.6.6.6.x 7  X X X X X X X X XX.%.%.%.%. X X X X X X8 v R ~ 6.6.6.6.6.6.6.6.w.L.D.L  X X X X X X X X X X",
" X X X X X X X X X X X8 K 6.' l  X X X X X X X X X X X X X%.%.%. X X X XX. X X8 z v _ 6.6.B.6.6.8.6.6.K.I.P  X X X X X X X X X X",
" X X X X X X X X X X X X XK n  X X X X X X X X X X X X X Xe t t  X X X X X%.%. X8 b K ! 6.e.f.0.f.6.y.L.I.I.7  X X X X X X X X X",
" X X X X X X X X X X X X X X X X X X X X X X X X X X XR ^ d.D.G    X X X X X%.%. X7 k J ` 6.8.A.8.K.f.K.I.I.7  X X X X X X X X X",
" X X X X X X X X X X X X X X X X X X X X X X X X X Xx y.I.I.w.m $ &  X X X Xe & &  X9 b b ! 6.w.d.I.I.I.D.L  X X X X X X X X X X",
" X X X X X X X X X X X X X X X X X X X X X X X X X  L e.y.J u.i.$ K % V V   - 8 Q :  X7 l R ^ w.K.I.I.i.K  X X X X X X X X X X X",
" X X X X X X X X X X X X X X X X X X X X X X X X X  $ & - r.L.Q ( x S n.n.b.B L d.I.:  X8 b K I.J.Z.m k z m m m  X X X X X X X X",
" X X X X X X X X X X X X X X X X X X X X X X X X    8 ~ 6.V.G d.k A v.n.n.n.c.B 8.I.t.,  X XW / E E E ` q.H.I.I.t. X X X X X X X",
" X X X X X X X X X X X X X X X X X X X X X X XX . . 7 ! ` , P.Q D n.n.n.n.n.n.n.V J ^ -  X X9 l 6.6.6.6.6.6.I.I.P.d  X X X X X X",
" X X X X X X X X X X X X X X X X X X. <  X; 3 <.3 7 - 7 0 P k A b.n.n.n.n.n.n.n.c.< 8 -  X Xb 6.6.6.6.6.6.6.B.I.I.t. X X X X X X",
" X X X X X X X X X X X X X X X X X XO F S S <.<.D $ 8 h & & x.b.n.n.n.n.n.n.n.n.n.6 7 +  X X! 6.6.6.6.6.6.6.w.I.I.t. X X X X X X",
" X X X X X X X X X X X X X X X X X X X1 F <.<.<.<.X $ ; 4.z.n.n.n.m.m./.`.V m.m.n.6    X X X8 6.6.6.6.6.6.6.6.B.I.I.b  X X X X X",
" X X X X X X X X X X X X X X X X X X X X, <.<.<.<.X 6 /.`.`.`.`.`.`.].m.7.X z.].`.z |.   X X8 6.6.6.6.6.6.6.6.B.I.I.b  X X X X X",
" X X X X X X X X X X X X X X X X X X X# % 1 <.1.2.b.n.n.m.'.'.'.'.b.z.7.s ,.N b.'.G < M  X X8 6.6.6.6.6.6.6.6.f.I.I.b  X X X X X",
" X X X X X X X X X X X X X X X X X X X, D <.<.1.h.b.n.n.n.n.n.z.N N p *.T.W.I 4.n.n.n.M  X X8 6.6.6.6.6.6.6.6.6.I.I.u. X X X X X",
" X X X X X X X X X X X X X X X X X X X XX < <.<.<.1.1.c.n.n.D X *.a ,.T.^.^.-.A 4.n.n.M  X X8 6.6.6.6.6.6.6.6.6.I.I.I.7  X X X X",
" X X X X X X X X X X X X X X X X X X X X X- 1 2 N <.<.<.S ; # 9.a a U ^.^.-.  6 <.<.M  X X X8 l 6.6.6.6.6.6.6.6.I.I.I.7  X X X X",
" X X X X X X X X X X X X X X X X X X X X X> Z : A <.<.<.%   - |.(.# s ^.W.O r.  <.3  X X X%.8 l 6.6.6.6.6.6.6.6.I.I.I.7  X X X X",
" X X X X X X X X X X X X X X X X X X X X X; N C ; ; ; + #.,.: [ & & q ~.Y U.    V V    X%.%.8 l 6.6.6.6.6.6.6.6.I.I.I.7  X X X X",
" X X X X X X X X X X X X X X X X X X X X X X X, , , D B a :.>.Y.;.Y.~.!.W.o.   X X X XX.%.%.8 l 6.6.6.6.6.6.0.y.I.I.I.7  X X X X",
" X X X X X X X X X X X X X X# # # #   #  X X X X  Z 3.h./.@ :.R.Q.Q.Q.Q.R.   X X X X%.%.%.%.8 l 6.) 6.6.6.6.w.d.I.I.I.7  X X X X",
" X X X X X X X X X X X X Xt t t t } t { u  X X X< Z 3.h.k.C.# U U        X X X X X%.%.%.%. X Xl 6.f 6.6.6.6.w.d.I.I.I.7  X X X X",
" X X X X X X X X X X X Xt * C C C 1 X.y | {  X X6 Z 2 h.h.).. & &   {    X X X%.%.%.%.%. X X Xl 6.f 6.6.6.6.w.d.I.I.I.7  X X X X",
" X X X X X X X X X X X Xt + 4.h.j.g.o y | {  X X6 Z 1 3.h.h.'.4 Z h u   e %.%.%.%.%.%. X X X X8 P 0 ~ 6.6.6.w.B.I.A.u. X X X X X",
" X X X X X X X X X X X Xt + 3.).).k.o y | =  X% C Z 6 V h.h.'.4 : O.C Z =  X X X X X X X X X X Xj 8 h ) 6.6.) L L H  X X X X X X",
" X X X X X X X X X X X Xt + 3.).`.j.o u   } o % B B 5 B h.h.j.M.} c h.4. X X X X X X X X X%. X X$ % 8 8 d l k h k - -  X X X X X",
" X X X X X X X X X X X Xt + 4.4.l.] +.o.y u $.+.+.i e B D h.j.M.6 Z 3.6  X X X X X X%.%.%.%.= > L E E E Q 6.~ R B.B.B.j  X X X X",
" X X X X X X X X X X X X X| o o o +.a.t ..    O O O O   Z g.h./.:      X X X X%.%.%.%.%.%.%.= z 6.6.6.6.6.6.6.m I.I.I.S.>  X X X",
" X X X X X X X X X X X X X  y y u *.. y + r r 6 6 6 6 % M 3.B B N.   XX.%.%.%.%.%.%.%.%.%. X  6.6.6.6.6.6.6.6.m I.I.I.S.>  X X X",
" X X X X X X X X X X X X X X X X X X X  U * } | &.:.:.= X % l.l.l.V  X X X X X X X X X X X X  6.6.6.6.6.6.6.6.m I.I.I.S.>  X X X",
" X X X X X X X X X X X X X X X X X X XT ,.R.Y { %.a.$.= % M p p a a  X X X X X X X X X X X X  6.6.6.6.6.P Q 6.m I.I.I.I.w  X X X",
" X X X X X X X X X X X X X X X X X XU :.Q.^.^.;.{ e     a s Q.Q.^.^.Y.       X X X X X X X= * 6.6.6.P z P Q 6.m I.I.I.I.w  X X X",
" X X X X X X X X X X X X X X X X Xs ,.W.^.^.^.!.I   %.= #.a >.~.^.^.^.= a.a.= = = = = = * e = 6.6.) K g 6.6.6.m I.I.I.I.w  X X X",
" X X X X X X X X X X X X X X Xt = :.W.^.^.^.^.R.q   e + a o.s T.^.^.^.+ e r &.&.&.&.&.&.%.e = 6.6.) K g 6.6.6.m I.I.I.I.w  X X X",
" X X X X X X X X X X X X X X, $.d.*.^.^.^.^.R..  X X X  U .   . . . .    X X              e = 6.6.) K g 6.6.6.m I.I.I.I.w  X X X",
" X X X X X X X X X X X X X7 B.E.F.Z.-.-.-.-.:  X X X X X# e E.Q.Q.^.|.`.J  X X X X X X X X= * 6.6.` K d P Q 6.m I.I.I.I.w  X X X",
" X X X X X X X X X X X Xf S.(.}._.a.(.(.A.   X X X X X X XG G.'.'.|.|.|.'.   X X X X X X X X  6.6.6.) ~ P Q 6.m I.I.I.I.w  X X X",
" X X X X X X X X X X X XR L.|.|.|.|.s.a.=  X X X X X X X X XP I.'.].{.[.9.   X X X X X X X Xd 6.6.6.6.6.Q ~ ` H I.I.I.Z.:  X X X",
" X X X X X X X X X X XX 9.`.|.|.|.|.{.H  X X X X X X X X X X Xw w w G W =.   X X X X X X X XP 6.6.6.6.6.6.6.~ 9.I.I.I.p. X X X X",
" X X X X X X X X X X X& Q (.`.`.`.`.). X X X X X X X X X X X X=.{.{.{.F. .   X X X X X X X XP 6.6.6.6.6.6.6.~ P 0.0.0.P  X X X X",
" X X X X X X X X X X X# o.W M.M.M.M.   X X X X X X X X X X X X: i i i t =  X X X X X X X X XP 6.6.6.6.6.6.6.K q.f.f.f.L  X X X X",
" X X X X X X X X X X X X+ @.&.a.a.a.   X X X X X X X X X X X X X X X X X X X X X X X X X X X+ @ @ @ @ @ @ @ X @ @ @ @  X X X X X",
" X X X X X X X X X X X X X             X X X X X X X X X X X X X X X X X X X X X X X X X X X X X X X X X X X X X X X X X X X X X",
" X X X X X X X X X X X X X X X X X X X X X X X X X X X X X X X X X X X X X X X X X X X X X X X X X X X X X X X X X X X X X X X X"
};
