/* XPM */
static char *result[] = {
/* columns rows colors chars-per-pixel */
"64 64 170 2 ",
"   c black",
".  c #000101",
"X  c #020203",
"o  c #060305",
"O  c #070507",
"+  c #09080B",
"@  c #0B0B0F",
"#  c #0D0E12",
"$  c #110D11",
"%  c #180C11",
"&  c #1A161E",
"*  c #1F141E",
"=  c #18181F",
"-  c #250C14",
";  c #2A0E18",
":  c #27121C",
">  c #171A21",
",  c #161C23",
"<  c #171E27",
"1  c #18242F",
"2  c #192733",
"3  c #1A2935",
"4  c #1A2B37",
"5  c #192F39",
"6  c #18363C",
"7  c #1A383F",
"8  c #39343E",
"9  c #3D353C",
"0  c #5D1D2F",
"q  c #721F3B",
"w  c #5C252F",
"e  c #4D3633",
"r  c #443538",
"t  c #533331",
"y  c #573230",
"u  c #682236",
"i  c #1F3A43",
"p  c #2B3744",
"a  c #213A44",
"s  c #233A44",
"d  c #273844",
"f  c #303443",
"g  c #343442",
"h  c #2C4F5C",
"j  c #384659",
"k  c #3E445A",
"l  c #30495A",
"z  c #255464",
"x  c #23566A",
"c  c #225870",
"v  c #235A75",
"b  c #245D76",
"n  c #265F79",
"m  c #286278",
"M  c #2B6679",
"N  c #2F6B7A",
"B  c #316F7C",
"V  c #34757F",
"C  c #43455B",
"Z  c #49485F",
"A  c #4F4A5D",
"S  c #584A56",
"D  c #634A4F",
"F  c #704847",
"G  c #7A4B47",
"H  c #565776",
"J  c #535A75",
"K  c #575877",
"L  c #585979",
"P  c #5A5A7B",
"I  c #5B5B7C",
"U  c #5F5F7C",
"Y  c #5C5C7F",
"T  c #5E5E7F",
"R  c #66667B",
"E  c #62627C",
"W  c #6B6B7C",
"Q  c #801A3F",
"!  c #891942",
"~  c #931A47",
"^  c #9F1C4D",
"/  c #A81E51",
"(  c #9D2A52",
")  c #963951",
"_  c #814A48",
"`  c #89484B",
"'  c #BD6C6D",
"]  c #BA726D",
"[  c #BA7870",
"{  c #B87D75",
"}  c #CC5F7B",
"|  c #C06672",
" . c #B6827A",
".. c #337882",
"X. c #367988",
"o. c #397A8D",
"O. c #3B7C8E",
"+. c #3E7F8D",
"@. c #477882",
"#. c #457B83",
"$. c #437E85",
"%. c #717185",
"&. c #7A7B87",
"*. c #787889",
"=. c #E25A86",
"-. c #E9588A",
";. c #EB5A8D",
":. c #ED5E91",
">. c #EC6990",
",. c #7E808A",
"<. c #7F848E",
"1. c #7F8794",
"2. c #548DAC",
"3. c #5290B1",
"4. c #5092B4",
"5. c #5194B6",
"6. c #5497B5",
"7. c #589DB2",
"8. c #688BA2",
"9. c #58A0AF",
"0. c #59A6AD",
"q. c #5BACAD",
"w. c #5DB1AF",
"e. c #63BAB4",
"r. c #68B7B9",
"t. c #6CB6BA",
"y. c #74B6BD",
"u. c #808691",
"i. c #AE9091",
"p. c #AB979B",
"a. c #A89EA6",
"s. c #A49FAA",
"d. c #A6A4B0",
"f. c #A9ADBB",
"g. c #A6B0BF",
"h. c #E58D8F",
"j. c #E69996",
"k. c #E7A69A",
"l. c #EBB1A1",
"z. c #EDBAA8",
"x. c #F0BFAC",
"c. c #F3C5B2",
"v. c #F4C8B6",
"b. c #F3CCBA",
"n. c #F4CCB9",
"m. c #80B6C2",
"M. c #87B6C4",
"N. c #8EB4C4",
"B. c #94B4C4",
"V. c #9BB3C2",
"C. c #BAE3E2",
"Z. c #BCE3E3",
"A. c #DDCEC8",
"S. c #CBD4D5",
"D. c #C0DFDE",
"F. c #D2D0D0",
"G. c #C3E7E6",
"H. c #C6E8E8",
"J. c #D6EAEB",
"K. c #DCEAEB",
"L. c #DEEAEB",
"P. c #E6ECED",
"I. c #EFF2F3",
"U. c #F6F6F7",
"Y. c #FDF8FA",
"T. c #FDF9FA",
"R. c #FDFBFC",
"E. c #FEFDFD",
"W. c white",
"Q. c None",
/* pixels */
"Q.Q.Q.Q.Q.Q.Q.Q.Q.Q.Q.Q.Q.Q.Q.Q.Q.Q.Q.Q.Q.Q.Q.Q.Q.Q.Q.Q.Q.Q.Q.Q.Q.Q.Q.Q.Q.Q.Q.Q.Q.Q.Q.Q.Q.Q.Q.Q.Q.Q.Q.Q.Q.Q.Q.Q.Q.Q.Q.Q.Q.Q.Q.Q.",
"Q.Q.Q.Q.Q.Q.Q.Q.Q.Q.Q.Q.Q.Q.Q.Q.Q.Q.Q.Q.Q.Q.Q.Q.Q.Q.Q.Q.Q.Q.Q.Q.Q.Q.Q.Q.Q.Q.Q.Q.Q.Q.Q.Q.Q.Q.Q.Q.Q.Q.Q.Q.Q.Q.Q.Q.Q.Q.Q.Q.Q.Q.Q.Q.",
"Q.Q.Q.Q.Q.Q.Q.Q.Q.Q.Q.Q.Q.Q.Q.Q.Q.Q.Q.Q.Q.Q.Q.Q.Q.Q.Q.Q.Q.Q.Q.Q.Q.Q.Q.Q.Q.Q.Q.Q.Q.Q.Q.Q.Q.Q.Q.Q.Q.Q.Q.Q.Q.Q.Q.Q.Q.Q.Q.Q.Q.Q.Q.Q.",
"Q.Q.Q.Q.Q.Q.Q.Q.Q.Q.Q.Q.Q.Q.Q.Q.Q.Q.Q.Q.Q.Q.Q.Q.Q.Q.Q.Q.Q.Q.Q.Q.Q.Q.Q.Q.Q.Q.Q.Q.Q.Q.Q.Q.Q.Q.Q.Q.Q.Q.Q.Q.Q.Q.Q.Q.Q.Q.Q.Q.Q.Q.Q.Q.",
"Q.Q.Q.Q.Q.Q.Q.Q.Q.Q.Q.Q.Q.Q.Q.Q.Q.Q.Q.Q.Q.Q.Q.Q.Q.Q.Q.Q.Q.Q.Q.Q.Q.Q.Q.Q.Q.Q.Q.Q.Q.Q.Q.Q.Q.Q.Q.Q.Q.Q.Q.Q.Q.Q.Q.Q.Q.Q.Q.Q.Q.Q.Q.Q.",
"Q.Q.Q.Q.Q.Q.Q.Q.Q.Q.Q.Q.Q.Q.Q.Q.Q.Q.Q.Q.Q.Q.Q.Q.Q.Q.Q.Q.Q.Q.Q.Q.Q.Q.Q.Q.Q.Q.Q.Q.Q.Q.Q.Q.Q.Q.Q.Q.Q.Q.Q.Q.Q.Q.Q.Q.Q.Q.Q.Q.Q.Q.Q.Q.",
"Q.Q.Q.Q.Q.Q.Q.Q.Q.Q.Q.Q.Q.Q.Q.Q.Q.Q.Q.Q.Q.Q.Q.Q.Q.Q.Q.Q.Q.Q.Q.Q.Q.Q.Q.Q.Q.Q.Q.Q.Q.Q.Q.Q.Q.Q.Q.Q.Q.Q.Q.Q.Q.Q.Q.Q.Q.Q.Q.Q.Q.Q.Q.Q.",
"Q.Q.Q.Q.Q.Q.Q.Q.Q.Q.Q.Q.Q.Q.Q.Q.Q.Q.Q.Q.Q.Q.Q.Q.Q.Q.Q.Q.Q.Q.Q.Q.Q.Q.Q.Q.Q.Q.Q.Q.Q.Q.Q.Q.Q.Q.Q.Q.Q.Q.Q.Q.Q.Q.Q.Q.Q.Q.Q.Q.Q.Q.Q.Q.",
"Q.Q.Q.Q.Q.Q.Q.Q.Q.Q.Q.Q.Q.Q.Q.Q.Q.Q.Q.Q.Q.Q.Q.Q.Q.Q.Q.Q.Q.Q.Q.Q.Q.Q.Q.Q.Q.Q.Q.Q.Q.Q.Q.Q.Q.Q.Q.Q.Q.Q.Q.Q.Q.Q.Q.Q.Q.Q.Q.Q.Q.Q.Q.Q.",
"Q.Q.Q.Q.Q.Q.Q.Q.Q.Q.Q.Q.Q.Q.Q.Q.Q.Q.Q.Q.Q.Q.Q.Q.Q.Q.Q.Q.Q.Q.Q.Q.Q.Q.Q.Q.Q.Q.Q.Q.Q.Q.Q.Q.Q.Q.Q.Q.Q.Q.Q.Q.Q.Q.Q.Q.Q.Q.Q.Q.Q.Q.Q.Q.",
"Q.Q.Q.Q.Q.Q.Q.Q.Q.Q.Q.Q.Q.Q.Q.Q.Q.Q.Q.Q.Q.Q.Q.Q.Q.Q.Q.Q.Q.Q.Q.Q.Q.Q.Q.Q.Q.Q.Q.Q.Q.Q.Q.Q.Q.Q.Q.Q.Q.Q.Q.Q.Q.Q.Q.Q.Q.Q.Q.Q.Q.Q.Q.Q.",
"Q.Q.Q.Q.Q.Q.Q.Q.Q.Q.Q.Q.Q.Q.Q.Q.Q.Q.Q.Q.Q.Q.Q.Q.Q.Q.Q.Q.Q.Q.Q.Q.Q.Q.Q.Q.Q.Q.Q.Q.Q.Q.Q.Q.Q.Q.Q.Q.Q.Q.Q.Q.Q.Q.Q.Q.Q.Q.Q.Q.Q.Q.Q.Q.",
"Q.Q.Q.Q.Q.Q.Q.Q.Q.Q.Q.Q.Q.Q.Q.Q.Q.Q.Q.Q.Q.Q.Q.Q.Q.Q.Q.Q.Q.Q.Q.Q.Q.Q.Q.Q.Q.Q.Q.Q.Q.Q.Q.Q.Q.Q.Q.Q.Q.Q.Q.Q.Q.Q.Q.Q.Q.Q.Q.Q.Q.Q.Q.Q.",
"Q.Q.Q.Q.Q.Q.Q.Q.Q.Q.Q.Q.Q.Q.Q.Q.Q.Q.Q.Q.Q.Q.Q.Q.Q.Q.Q.Q.Q.Q.Q.Q.Q.Q.Q.Q.Q.Q.Q.Q.Q.Q.Q.Q.Q.Q.Q.Q.Q.Q.Q.Q.Q.Q.Q.Q.Q.Q.Q.Q.Q.Q.Q.Q.",
"Q.Q.Q.Q.Q.Q.Q.Q.Q.Q.Q.Q.Q.Q.Q.Q.Q.Q.Q.Q.Q.Q.Q.Q.Q.Q.Q.Q.Q.Q.Q.Q.Q.Q.Q.Q.Q.Q.Q.Q.Q.Q.Q.Q.Q.Q.Q.Q.Q.Q.Q.Q.Q.Q.Q.Q.Q.Q.Q.Q.Q.Q.Q.Q.",
"Q.Q.Q.Q.Q.Q.Q.Q.Q.Q.Q.Q.Q.Q.Q.Q.Q.Q.Q.Q.Q.Q.Q.Q.Q.Q.Q.Q.Q.Q.Q.Q.Q.Q.Q.Q.Q.Q.Q.Q.Q.Q.Q.Q.Q.Q.Q.Q.Q.Q.Q.Q.Q.Q.Q.Q.Q.Q.Q.Q.Q.Q.Q.Q.",
"Q.Q.Q.Q.Q.Q.Q.Q.Q.Q.Q.Q.Q.Q.Q.Q.Q.Q.Q.Q.Q.Q.Q.Q.Q.Q.Q.Q.Q.Q.Q.Q.Q.Q.Q.Q.Q.Q.Q.Q.Q.Q.Q.Q.Q.Q.Q.Q.Q.Q.Q.Q.Q.Q.Q.Q.Q.Q.Q.Q.Q.Q.Q.Q.",
"Q.Q.Q.Q.Q.Q.Q.Q.Q.Q.Q.Q.Q.Q.Q.Q.Q.Q.Q.Q.Q.Q.Q.Q.Q.Q.Q.Q.Q.Q.Q.Q.Q.Q.Q.Q.Q.Q.Q.Q.Q.Q.Q.Q.Q.Q.Q.Q.Q.Q.Q.Q.Q.Q.Q.Q.Q.Q.Q.Q.Q.Q.Q.Q.",
"Q.Q.Q.Q.Q.Q.Q.Q.Q.Q.Q.Q.Q.Q.Q.Q.Q.Q.Q.Q.Q.Q.Q.Q.Q.Q.Q.Q.Q.Q.Q.Q.Q.Q.Q.Q.Q.Q.Q.Q.Q.Q.Q.Q.Q.Q.Q.Q.Q.Q.Q.Q.Q.Q.Q.Q.Q.Q.Q.Q.Q.Q.Q.Q.",
"Q.Q.Q.Q.Q.Q.Q.Q.Q.Q.Q.Q.Q.Q.Q.Q.Q.Q.Q.Q.Q.Q.Q.Q.Q.Q.Q.Q.Q.Q.Q.Q.Q.Q.Q.Q.Q.Q.Q.Q.Q.Q.Q.Q.Q.Q.Q.Q.Q.Q.Q.Q.Q.Q.Q.Q.Q.Q.Q.Q.Q.Q.Q.Q.",
"Q.Q.Q.Q.Q.Q.Q.Q.Q.Q.Q.Q.Q.Q.Q.Q.Q.Q.Q.Q.Q.Q.Q.Q.Q.Q.Q.Q.Q.Q.Q.Q.Q.Q.Q.Q.Q.Q.Q.Q.Q.Q.Q.Q.Q.Q.Q.Q.Q.Q.Q.Q.Q.Q.Q.Q.Q.Q.Q.Q.Q.Q.Q.Q.",
"Q.Q.Q.Q.Q.Q.Q.Q.Q.Q.Q.Q.Q.Q.Q.Q.Q.Q.Q.Q.Q.Q.Q.Q.Q.Q.Q.Q.Q.Q.Q.Q.Q.Q.Q.Q.Q.Q.Q.Q.Q.Q.Q.Q.Q.Q.Q.Q.Q.Q.Q.Q.Q.Q.Q.Q.Q.Q.Q.Q.Q.Q.Q.Q.",
"Q.Q.Q.Q.Q.Q.Q.Q.Q.Q.Q.Q.Q.Q.Q.Q.Q.Q.Q.Q.Q.Q.Q.Q.Q.Q.> f A A     Q.Q.Q.Q.Q.Q.Q.Q.Q.Q.Q.Q.Q.Q.Q.Q.Q.Q.Q.Q.Q.Q.Q.Q.Q.Q.Q.Q.Q.Q.Q.Q.",
"Q.Q.Q.Q.Q.Q.Q.Q.Q.Q.Q.Q.Q.Q.Q.Q.Q.Q.Q.Q.Q.Q.Q.Q.Q.  L s.f.C A & 3     Q.Q.      Q.Q.Q.Q.Q.Q.Q.Q.Q.Q.Q.Q.Q.Q.Q.Q.Q.Q.Q.Q.Q.Q.Q.Q.",
"Q.Q.Q.Q.Q.Q.Q.Q.Q.Q.Q.Q.Q.Q.Q.Q.Q.Q.Q.Q.Q.Q.Q.Q.  Z %.s.R u.k k 1 h +.a 5 . 3 P g Q.Q.Q.Q.Q.Q.Q.Q.Q.Q.Q.Q.Q.Q.Q.Q.Q.Q.Q.Q.Q.Q.Q.",
"Q.Q.Q.Q.Q.Q.Q.Q.Q.Q.Q.Q.Q.Q.Q.Q.Q.Q.Q.Q.Q.Q.Q.Q.  + = = 1.A <.j z q.e.e.w.$.a 1.d.f Q.Q.Q.Q.Q.Q.Q.Q.Q.Q.Q.Q.Q.Q.Q.Q.Q.Q.Q.Q.Q.Q.",
"Q.Q.Q.Q.Q.Q.Q.Q.Q.Q.Q.Q.Q.Q.Q.Q.Q.Q.Q.Q.Q.Q.Q.Q.  3 k T %.&.u.B e.e.e.e.e.e.9.< J 1 Q.Q.Q.Q.Q.Q.Q.Q.Q.Q.Q.Q.Q.Q.Q.Q.Q.Q.Q.Q.Q.Q.",
"Q.Q.Q.Q.Q.Q.Q.Q.Q.Q.Q.Q.Q.Q.Q.Q.Q.Q.Q.Q.Q.Q.Q.  # # = 2 Z K V e.e.e.e.e.e.e.e.0.$ f   Q.Q.Q.Q.Q.Q.Q.Q.Q.Q.Q.Q.Q.Q.Q.Q.Q.Q.Q.Q.Q.",
"Q.Q.Q.Q.Q.Q.Q.Q.Q.Q.Q.Q.Q.Q.Q.Q.Q.Q.Q.Q.Q.Q.Q.  > 3 k Y Z #.e.e.e.e.e.e.e.e.e.e.z <   Q.Q.Q.Q.Q.Q.Q.Q.Q.Q.Q.Q.Q.Q.Q.Q.Q.Q.Q.Q.Q.",
"Q.Q.Q.Q.Q.Q.Q.Q.Q.Q.Q.Q.Q.Q.Q.Q.Q.Q.Q.Q.Q.Q.Q.i 6 = > d N e.e.e.e.e.e.e.e.e.e.e.8.# Q.Q.Q.Q.Q.Q.Q.Q.Q.Q.Q.Q.Q.Q.Q.Q.Q.Q.Q.Q.Q.Q.",
"Q.Q.Q.Q.Q.Q.Q.Q.Q.Q.Q.Q.Q.Q.Q.Q.Q.Q.Q.Q.    h ..6 2 s D.H.H.e.e.e.e.e.e.e.e.e.C.V.Q.Q.Q.Q.Q.Q.Q.Q.Q.Q.Q.Q.Q.Q.Q.Q.Q.Q.Q.Q.Q.Q.Q.",
"Q.Q.Q.Q.Q.Q.Q.Q.Q.Q.Q.Q.Q.Q.Q.Q.Q.Q.Q.> N ......z 6 M.C.C.C.C.C.C.C.C.C.M.z C.C.1.Q.Q.Q.Q.Q.Q.Q.Q.Q.Q.Q.Q.Q.Q.Q.Q.Q.Q.Q.Q.Q.Q.Q.",
"Q.Q.Q.Q.Q.Q.Q.Q.Q.Q.Q.Q.Q.Q.Q.Q.Q.Q.Q.# < < m ..7.+.e.e.e.e.e.e.e.e.e.w.h X 9.e.#.Q.Q.Q.Q.Q.Q.Q.Q.Q.Q.Q.Q.Q.Q.Q.Q.Q.Q.Q.Q.Q.Q.Q.",
"Q.Q.Q.Q.Q.Q.Q.Q.Q.Q.Q.Q.Q.Q.Q.Q.Q.Q.Q.Q.  5 ........e.w...9.e.e.w.q.V z y X ..q.@.Q.Q.Q.Q.Q.Q.Q.Q.Q.Q.Q.Q.Q.Q.Q.Q.Q.Q.Q.Q.Q.Q.Q.",
"Q.Q.Q.Q.Q.Q.Q.Q.Q.Q.Q.Q.Q.Q.Q.Q.Q.Q.Q.1 i ..........4.X...h h h 6 p t y ` . z ..  Q.Q.Q.Q.Q.Q.Q.Q.Q.Q.Q.Q.Q.Q.Q.Q.Q.Q.Q.Q.Q.Q.Q.",
"Q.Q.Q.Q.Q.Q.Q.Q.Q.Q.Q.Q.Q.Q.Q.Q.Q.Q.Q.. X ..............z . T.&.  y F h.y   6 ..  Q.Q.Q.Q.Q.Q.Q.Q.Q.Q.Q.Q.Q.Q.Q.Q.Q.Q.Q.Q.Q.Q.Q.",
"Q.Q.Q.Q.Q.Q.Q.Q.Q.Q.Q.Q.Q.Q.Q.Q.Q.Q.Q.Q.Q.  7 h ......+.j % s.F.@ % [ j.F p.6 ..M = Q.Q.Q.Q.Q.Q.Q.Q.Q.Q.Q.Q.Q.Q.Q.Q.Q.Q.Q.Q.Q.Q.",
"Q.Q.Q.Q.Q.Q.Q.Q.Q.Q.Q.Q.Q.Q.Q.Q.Q.Q.Q.Q.Q.    X # # # , _ ' ] =   { z.] D   6 ..# O Q.Q.Q.Q.Q.Q.Q.Q.Q.Q.Q.Q.Q.Q.Q.Q.Q.Q.Q.Q.Q.Q.",
"Q.Q.Q.Q.Q.Q.Q.Q.Q.Q.Q.Q.Q.Q.Q.Q.Q.Q.Q.Q.& n n b n 5.s.@ % ] x.n.n.n.n.n. .X M ..  Q.Q.Q.Q.Q.Q.Q.Q.Q.Q.Q.Q.Q.Q.Q.Q.Q.Q.Q.Q.Q.Q.Q.",
"Q.Q.Q.Q.Q.Q.Q.Q.Q.Q.Q.Q.Q.Q.Q.Q.Q.Q.Q.Q.c n o.1 o.5.r.d.- y e t t t t e : Q., 1   Q.Q.Q.Q.Q.Q.Q.Q.Q.Q.Q.Q.Q.Q.Q.Q.Q.Q.Q.Q.Q.Q.Q.",
"Q.Q.Q.Q.Q.Q.Q.Q.Q.Q.Q.Q.Q.Q.Q.Q.Q.Q.Q.Q.x 2.2.# O.2.5.J.$ _ [   + X Q.Q.Q.Q.Q.Q.Q.Q.Q.Q.Q.Q.Q.Q.Q.Q.Q.Q.Q.Q.Q.Q.Q.Q.Q.Q.Q.Q.Q.Q.",
"Q.Q.Q.Q.Q.Q.Q.Q.Q.Q.Q.Q.Q.Q.Q.Q.Q.Q.Q.Q.Q.Q.Q.# O.X 2.5.F.7 h 1 =.7 1 Q.Q.Q.Q.Q.Q.Q.Q.Q.Q.Q.Q.Q.Q.Q.Q.Q.Q.Q.Q.Q.Q.Q.Q.Q.Q.Q.Q.Q.",
"Q.Q.Q.Q.Q.Q.Q.Q.Q.Q.Q.Q.Q.Q.            Q.Q.Q.# O.X o.5.m.S 5.h =.1 = Q.Q.Q.Q.Q.Q.Q.Q.Q.Q.Q.Q.Q.Q.Q.Q.Q.Q.Q.Q.Q.Q.Q.Q.Q.Q.Q.Q.Q.",
"Q.Q.Q.Q.Q.Q.Q.Q.Q.Q.Q.Q.Q.; Q Q ! q Q ! Q.Q.Q.4 n 1 z 3.t.,.i Q 1 7 # Q.Q.Q.Q.Q.Q.Q.Q.Q.Q.Q.Q.Q.Q.Q.Q.Q.Q.Q.Q.Q.Q.Q.Q.Q.Q.Q.Q.Q.",
"Q.Q.Q.Q.Q.Q.Q.Q.Q.Q.Q.Q.0 ; z z i ! ~ q ~     n n n 2 M 5.G.X p b m Q.Q.Q.Q.Q.Q.Q.Q.Q.Q.Q.Q.Q.Q.Q.Q.Q.            Q.Q.Q.Q.Q.Q.Q.",
"Q.Q.Q.Q.Q.Q.Q.Q.Q.Q.Q.O 0 v 2.5.7.3 / 0 ^   7 x x : % x 4.5.P.5 n 6 Q.Q.Q.Q.Q.Q.Q.Q.Q.Q.Q.Q.Q.Q.# $ $ f k T f T T k Q.Q.Q.Q.Q.Q.",
"Q.Q.Q.Q.Q.Q.Q.Q.Q.Q.Q.O 0 v N.Z.M.i / - q q q ) ) 0 : < N 5.B.J 1 Q.Q.Q.Q.Q.Q.Q.Q.Q.Q.Q.Q.Q.Q.+ Z T T T T T Z J T T # Q.Q.Q.Q.Q.",
"Q.Q.Q.Q.Q.Q.Q.Q.Q.Q.Q.O 0 v 7.R.6.i /     o o       v # b 2.7.&.  Q.Q.Q.Q.Q.Q.Q.Q.Q.Q.Q.Q.Q.Q.+ Z T T T T T H *.f.f.& Q.Q.Q.Q.Q.",
"Q.Q.Q.Q.Q.Q.Q.Q.Q.Q.Q.O 0 v y.4.B.5 -.  : u / 0 u q q + @ l h l l Q.Q.Q.Q.Q.Q.Q.Q.Q.Q.Q.Q.Q.Q.& T T T T T T H U 1.1.8 Q.Q.Q.Q.Q.",
"Q.Q.Q.Q.Q.Q.Q.Q.Q.Q.Q.O 0 v n m O.) -.: [ [ w ; / -.( F # c x # #   Q.Q.Q.Q.Q.Q.Q.Q.Q.Q.Q.Q.Q.& T T T T T T H Z T T T   Q.Q.Q.Q.",
"Q.Q.Q.Q.Q.Q.Q.Q.Q.Q.Q.Q.0 ; ; ; u } . G j.n.n.z.u Q ; $ - ; t z.n.i.Q.Q.Q.Q.Q.Q.Q.Q.Q.Q.Q.Q.Q.& T T T T A J H *.f.f.f.  Q.Q.Q.Q.",
"Q.Q.Q.Q.Q.Q.Q.Q.Q.Q.Q.Q.Q.; ; ; : % o ] c.n.n.n.D   ! % ` y h.n.n.n.9 ! ( ) ) ) )           q & T T Z g P P H *.f.f.f.  Q.Q.Q.Q.",
"Q.Q.Q.Q.Q.Q.Q.Q.Q.Q.Q.Q.Q.Q.Q.Q.Q.+ ` k.n.n.n.k.Q.  ^ % ` y [ k.n.n.9 ^ ^ ^ ^ ^ / / / / / ; / & T P C f T T H *.f.f.f.  Q.Q.Q.Q.",
"Q.Q.Q.Q.Q.Q.Q.Q.Q.Q.Q.Q.Q.Q.Q.Q.4 y [ x.n.n.l.y Q.Q.- G F t O y D D : Q.Q.Q.Q.Q.- 0 0 0 0 % / & T P C f T T H *.f.f.f.  Q.Q.Q.Q.",
"Q.Q.Q.Q.Q.Q.Q.Q.Q.Q.Q.Q.Q.Q.Q.Z | C h.n.n.z.r   Q.Q.  . . a.E.v.U.a.Q.Q.Q.Q.Q.Q.Q.Q.Q.Q.Q.Q.  & T T C 3 T T H *.f.f.f.  Q.Q.Q.Q.",
"Q.Q.Q.Q.Q.Q.Q.Q.Q.Q.Q.Q.Q.Q.4 d.F.j.W W W g   Q.Q.Q.Q.f i.h.j.b.W.W.u.Q.Q.Q.Q.Q.Q.Q.Q.Q.Q.Q.Q.& T T T T A J H *.f.f.W Q.Q.Q.Q.Q.",
"Q.Q.Q.Q.Q.Q.Q.Q.Q.Q.Q.Q.Q.  %.L.W.P.>.>.>.& Q.Q.Q.Q.Q.Q.: s.W.W.W.W.W.  Q.Q.Q.Q.Q.Q.Q.Q.Q.Q.  f T T T T I Y k d.f.f.& Q.Q.Q.Q.Q.",
"Q.Q.Q.Q.Q.Q.Q.Q.Q.Q.Q.Q.Q.4 g.I.W.W.W.L.* Q.Q.Q.Q.Q.Q.Q.Q.f f.S.P.W.F.1 Q.Q.Q.Q.Q.Q.Q.Q.Q.Q.  T T T T T T T g %.%.%.$ Q.Q.Q.Q.Q.",
"Q.Q.Q.Q.Q.Q.Q.Q.Q.Q.Q.Q.  g S.W.W.W.W.u.Q.Q.Q.Q.Q.Q.Q.Q.Q.  8 8 8 S W ) Q.Q.Q.Q.Q.Q.Q.Q.Q.Q.  T T T T T T T g *.*.*.$ Q.Q.Q.Q.Q.",
"Q.Q.Q.Q.Q.Q.Q.Q.Q.Q.Q.Q.  d.E P.P.P.K.  Q.Q.Q.Q.Q.Q.Q.Q.Q.  Y.Y.Y.A.| ~ Q.Q.Q.Q.Q.Q.Q.Q.Q.Q.  T T T T T T T f R R T # Q.Q.Q.Q.Q.",
"Q.Q.Q.Q.Q.Q.Q.Q.Q.Q.Q.Q.  } g.<.<.<.,.  Q.Q.Q.Q.Q.Q.Q.Q.Q.  q q q q 0 Q.Q.Q.Q.Q.Q.Q.Q.Q.Q.Q.  T T T T T T Z *.f.f.E Q.Q.Q.Q.Q.Q.",
"Q.Q.Q.Q.Q.Q.Q.Q.Q.Q.Q.Q.Q.o / -.:.:.;.  Q.Q.Q.Q.Q.Q.Q.Q.Q.Q.Q.Q.Q.Q.Q.Q.Q.Q.Q.Q.Q.Q.Q.Q.Q.Q.  O O O O O O X + + + O Q.Q.Q.Q.Q.Q.",
"Q.Q.Q.Q.Q.Q.Q.Q.Q.Q.Q.Q.Q.Q.          Q.Q.Q.Q.Q.Q.Q.Q.Q.Q.Q.Q.Q.Q.Q.Q.Q.Q.Q.Q.Q.Q.Q.Q.Q.Q.Q.Q.Q.Q.Q.Q.Q.Q.Q.Q.Q.Q.Q.Q.Q.Q.Q.Q.Q.",
"Q.Q.Q.Q.Q.Q.Q.Q.Q.Q.Q.Q.Q.Q.Q.Q.Q.Q.Q.Q.Q.Q.Q.Q.Q.Q.Q.Q.Q.Q.Q.Q.Q.Q.Q.Q.Q.Q.Q.Q.Q.Q.Q.Q.Q.Q.Q.Q.Q.Q.Q.Q.Q.Q.Q.Q.Q.Q.Q.Q.Q.Q.Q.Q."
};
