/* XPM */
static char *result[] = {
/* columns rows colors chars-per-pixel */
"64 64 177 2 ",
"   c black",
".  c #010001",
"X  c #020101",
"o  c #030102",
"O  c #030203",
"+  c #040203",
"@  c #040304",
"#  c #040405",
"$  c #040506",
"%  c #060607",
"&  c #070709",
"*  c #07080A",
"=  c #07090B",
"-  c #070A0C",
";  c #070A0D",
":  c #070A0E",
">  c #080B0F",
",  c #090D10",
"<  c #0A0F11",
"1  c #091215",
"2  c #091317",
"3  c #0A1418",
"4  c #0D1419",
"5  c #11141A",
"6  c #14141B",
"7  c #18141C",
"8  c #1B151C",
"9  c #22101A",
"0  c #25171F",
"q  c #221A1F",
"w  c #241D1F",
"e  c #1F1D21",
"r  c #1B1F25",
"t  c #1C1F24",
"y  c #1B2026",
"u  c #1C2126",
"i  c #1D2227",
"p  c #1F232A",
"a  c #1B252E",
"s  c #1A262F",
"d  c #1E242C",
"f  c #1A2831",
"g  c #1B2932",
"h  c #1E2B35",
"j  c #202D37",
"k  c #202E39",
"l  c #222F3C",
"z  c #222F3F",
"x  c #7D163D",
"c  c #5E2235",
"v  c #612C3A",
"b  c #1E3443",
"n  c #203242",
"m  c #213647",
"M  c #23384A",
"N  c #203D4F",
"B  c #343A4F",
"V  c #3F3C4D",
"C  c #3D3C4E",
"Z  c #223E50",
"A  c #283D50",
"S  c #383B50",
"D  c #3A3B50",
"F  c #3B3B50",
"G  c #453643",
"H  c #4C3240",
"J  c #483442",
"K  c #423A48",
"L  c #5B3643",
"P  c #573C49",
"I  c #782644",
"U  c #225165",
"Y  c #215166",
"T  c #245265",
"R  c #265366",
"E  c #2C5365",
"W  c #21536B",
"Q  c #21556F",
"!  c #345263",
"~  c #235975",
"^  c #265F79",
"/  c #2A677E",
"(  c #2E6E7C",
")  c #4E4A5D",
"_  c #534351",
"`  c #504857",
"'  c #734953",
"]  c #6B545C",
"[  c #414B62",
"{  c #444B62",
"}  c #484B62",
"|  c #4A4C62",
" . c #5C5C79",
".. c #5C5C7C",
"X. c #5C5C7F",
"o. c #676066",
"O. c #646269",
"+. c #63636F",
"@. c #64636C",
"#. c #626272",
"$. c #80173F",
"%. c #841941",
"&. c #881C45",
"*. c #91204A",
"=. c #A02D52",
"-. c #A82E57",
";. c #B43161",
":. c #BF3B6B",
">. c #AA7C7F",
",. c #D04476",
"<. c #D6477A",
"1. c #DA497D",
"2. c #327580",
"3. c #337881",
"4. c #347982",
"5. c #377986",
"6. c #3C7A8F",
"7. c #3E7B8F",
"8. c #5D5D80",
"9. c #5E5E80",
"0. c #5C6281",
"q. c #5A6B84",
"w. c #497986",
"e. c #457B8A",
"r. c #437E8D",
"t. c #407C8F",
"y. c #9C7F81",
"u. c #B97B82",
"i. c #E15587",
"p. c #E15C89",
"a. c #D76987",
"s. c #C97982",
"d. c #7E838D",
"f. c #758896",
"g. c #5A94AF",
"h. c #5899B4",
"j. c #5A9FB4",
"k. c #5CA8B2",
"l. c #5EAFB2",
"z. c #61B5B3",
"x. c #63B9B4",
"c. c #64B9B4",
"v. c #7DB5BD",
"b. c #878185",
"n. c #918384",
"m. c #AAA9BA",
"M. c #ADABBA",
"N. c #A9ADBD",
"B. c #B3AAB9",
"V. c #A7B0BF",
"C. c #D1A3AF",
"Z. c #C8A7B1",
"A. c #E0A7A8",
"S. c #E2AAAE",
"D. c #E5B1B1",
"F. c #EABAB3",
"G. c #EFC6B8",
"H. c #8DB4C0",
"J. c #98B3C0",
"K. c #A3B2C0",
"L. c #A9D6D8",
"P. c #AAD6D9",
"I. c #ADD7DA",
"U. c #B3DADC",
"Y. c #C0C8CB",
"T. c #C7E4E5",
"R. c #DFE6E8",
"E. c #D0E8E9",
"W. c #D5E9E9",
"Q. c #E5E7E8",
"!. c #EEEAEC",
"~. c #F7EDF1",
"^. c #FDF4F7",
"/. c #FEF7F9",
"(. c #FEFCFD",
"). c white",
"_. c None",
/* pixels */
"_._._._._._._._._._._._._._._._._._._._._._._._._._._._._._._._._._._._._._._._._._._._._._._._._._._._._._._._._._._._._._._._.",
"_._._._._._._._._._._._._._._._._._._._._._._._._._._._._._._._._._._._._._._._._._._._._._._._._._._._._._._._._._._._._._._._.",
"_._._._._._._._._._._._._._._._._._._._._._._._._._._._._._._._._._._._._._._._._._._._._._._._._._._._._._._._._._._._._._._._.",
"_._._._._._._._._._._._._._._._._._._._._._._._._._._._._._._._._._._._._._._._._._._._._._._._._._._._._._._._._._._._._._._._.",
"_._._._._._._._._._._._._._._._._._._._._._._._._._._._._._._._._._._._._._._._._._._._._._._._._._._._._._._._._._._._._._._._.",
"_._._._._._._._._._._._._._._._._._._._._._._._._._._._._._._._._._._._._._._._._._._._._._._._._._._._._._._._._._._._._._._._.",
"_._._._._._._._._._._._._._._._._._._._._._._._._._._._._._._._._._._._._._._._._._._._._._._._._._._._._._._._._._._._._._._._.",
"_._._._._._._._._._._._._._._._._._._._._._._._._._._._._._._._._._._._._._._._._._._._._._._._._._._._._._._._._._._._._._._._.",
"_._._._._._._._._._._._._._._._._._._._._._._._._._._._._._._._._._._._._._._._._._._._._._._._._._._._._._._._._._._._._._._._.",
"_._._._._._._._._._._._._._._._._._._._._._._._._._._._._._._._._._._._._._._._._._._._._._._._._._._._._._._._._._._._._._._._.",
"_._._._._._._._._._._._._._._._._._._._._._._._._._._._._._._._._._._._._._._._._._._._._._._._._._._._._._._._._._._._._._._._.",
"_._._._._._._._._._._._._._._._._._._._._._._._._._._._._._._._._._._._._._._._._._._._._._._._._._._._._._._._._._._._._._._._.",
"_._._._._._._._._._._._._._._._._._._._._._._._._._._._._._._._._._._._._._._._._._._._._._._._._._._._._._._._._._._._._._._._.",
"_._._._._._._._._._._._._._._._._._._._._._._._._._._._._._._._._._._._._._._._._._._._._._._._._._._._._._._._._._._._._._._._.",
"_._._._._._._._._._._._._._._._._._._._._._._._._._._._._._._._._._._._._._._._._._._._._._._._._._._._._._._._._._._._._._._._.",
"_._._._._._._._._._._._._._._._._._._._._._._._._._._._._._._._._._._._._._._._._._._._._._._._._._._._._._._._._._._._._._._._.",
"_._._._._._._._._._._._._._._._._._._._._._._._._._._._._._._._._._._._._._._._._._._._._._._._._._._._._._._._._._._._._._._._.",
"_._._._._._._._._._._._._._._._._._._._._._._._._._._._._._._._._._._._._._._._._._._._._._._._._._._._._._._._._._._._._._._._.",
"_._._._._._._._._._._._._._._._._._._._._._._._._._._._._._._._._._._._._._._._._._._._._._._._._._._._._._._._._._._._._._._._.",
"_._._._._._._._._._._._._._._._._._._._._._._._._._._._._._._._._._._._._._._._._._._._._._._._._._._._._._._._._._._._._._._._.",
"_._._._._._._._._._._._._._._._._._._.p #.q.t   _._._._._._._._._._._._._._._._._._._._._._._._._._._._._._._._._._._._._._._._.",
"_._._._._._._._._._._._._._._._._._.; d.N.b.}   o * = = * _.X & _._._._._._._._._._._._._._._._._._._._._._._._._._._._._._._._.",
"_._._._._._._._._._._._._._._._._.d 9.d.O.#.| z 5 2.h.h.r.! b  .o._._._._._._._._._._._._._._._._._._._._._._._._._._._._._._._.",
"_._._._._._._._._._._._._._._._._.$ * * | d.b.| b l.x.x.x.x.z.! m.#._._._._._._._._._._._._._._._._._._._._._._._._._._._._._._.",
"_._._._._._._._._._._._._._._._._.r z 9.[ ` d.b x.x.x.x.x.x.x.x.j } 7 _._._._._._._._._._._._._._._._._._._._._._._._._._._._._.",
"_._._._._._._._._._._._._._._._.& 5 > 7 V | A k.x.x.x.x.x.x.x.x.k.p 7 _._._._._._._._._._._._._._._._._._._._._._._._._._._._._.",
"_._._._._._._._._._._._._._._._.* l l F | k k.x.x.x.x.x.x.x.x.x.x.R _._._._._._._._._._._._._._._._._._._._._._._._._._._._._._.",
"_._._._._._._._._._._._._._._._.b 5 5 5 N k.x.x.x.x.x.L.L.j.c.P.P.f._._._._._._._._._._._._._._._._._._._._._._._._._._._._._._.",
"_._._._._._._._._._._._._._._.  R r   b l.W.W.W.W.W.W.E.w.O z.L.E.f._._._._._._._._._._._._._._._._._._._._._._._._._._._._._._.",
"_._._._._._._._._._._._._._._.  ( i # r.x.v.L.L.L.L.H.2.L u.- k.x.e._._._._._._._._._._._._._._._._._._._._._._._._._._._._._._.",
"_._._._._._._._._._._._._._._.  3.( / 5.l.x.x.x.x.x.4 y.s.] Y.N z.e._._._._._._._._._._._._._._._._._._._._._._._._._._._._._._.",
"_._._._._._._._._._._._._._._.  3.3.3.3.3.4.e.e.} O   Z.G._ !.  ( ( _._._._._._._._._._._._._._._._._._._._._._._._._._._._._._.",
"_._._._._._._._._._._._._._._.  3.3.3.3.3.T   B.R.%   Z.G._ !.  ( ( 4 _._._._._._._._._._._._._._._._._._._._._._._._._._._._._.",
"_._._._._._._._._._._._._._._._.3 3.3.3.3.4.u j R.R.- C.G.L R.+.( ( f _._._._._._._._._._._._._._._._._._._._._._._._._._._._._.",
"_._._._._._._._._._._._._._._._.3 3.3.3.3.t.r.v b.b.u.G.G.A.b.G ( b k   _._._._._._._._._._._._._._._._._._._._._._._._._._._._.",
"_._._._._._._._._._._._._._._._._.Z 3.r.5.s k.j.n.G.G.G.G.G.F.b 3.U _._._._._._._._._._._._._._._._._._._._._._._._._._._._._._.",
"_._._._._._._._._._._._._._._._._.E ( g r.T   - ' y.L   y.y.  i N R 2 _._._._._._._._._._._._._._._._._._._._._._._._._._._._._.",
"_._._._._._._._._._._._._._._._._.3   s s T       >.Z.w   _._._._.2 $ _._._._._._._._._._._._._._._._._._._._._._._._._._._._._.",
"_._._._._._._._._._._._._._._._._._.3 ^ ^ 3 U / 8 3 ` q W 9 _._._._._._._._._._._._._._._._._._._._._._._._._._._._._._._._._._.",
"_._._._._._._._._._._._._._._._._.  ^ 2./ b 6.h.J.a Q Z 6.-.  _._._._._._._._._._._._._._._._._._._._._._._._._._._._._._._._._.",
"_._._._._._._._._._._._._._._._._.  ~ g.1 r ~ h.h.(.s ^ U -.X > _._._._._._._._._._._._._._._._._._._._._._._._._._._._._._._._.",
"_._._._._._._._._._._._._._._._._._._._.  Z 3 6.h.L.o.~ z I E T _._._._._._._._._._._._._._._._._._._._._._._._._._._._._._._._.",
"_._._._._._._._._._._._._._._._._._._._.  ^ ~ 2 7.h.J.j ;.N h.T _._._._._._._._._._._._._._._._._._.            _._._._._._._._.",
"_._._._._._._._._._._._._.0 0 0 9 9 0 _.y ^ ^ s W t.h.I.| Q ~ _._._._._._._._._._._._._._._._.< r p D ..9.B N.N.C   _._._._._._.",
"_._._._._._._._._._._._.c 9 9 9 -.c ;.  Q ^ h 2 , ^ 6.h.H.} _._._._._._._._._._._._._._._._.  B ..9.9.9.9. .| d.q.  _._._._._._.",
"_._._._._._._._._._._.9 c ~ / / 0 -.  s Y 9 x $.:   Q W ^ 2   _._._._._._._._._._._._._._._.  9.9.9.9.9.9.9.B q.q.  _._._._._._.",
"_._._._._._._._._._.  -.n K.h.L./ x o &.=.c [ E U N < M m s     _._._._._._._._._._._._._._.  9.9.9.9.9.9.9.C N.N.` _._._._._._.",
"_._._._._._._._._._.  -.n h.).v.t.x       + @ @     O   w F.G.o._._._._._._._._._._._._._._.  9.9.9.9.X.8.9.C N.N.@._._._._._._.",
"_._._._._._._._._._.  -.n v.T.U.t.x   w v c ;.I c . ' - A.G.G.G.< _._._._._._._._._._._._.9 % 9.9.9.9.z S 9.C N.N.@._._._._._._.",
"_._._._._._._._._._.  -.n j.h.j.W x @ >.F.A.H & ;.o >.0 s.F.G.G.< <.<.<.<.<.I             0 9 9.9.z {  ...9.C N.N.@._._._._._._.",
"_._._._._._._._._._._.%.x Z / U c *.$ A.G.G.F.# w H P ' 0 =.>.>.- $.$.$.$.$.*.<.1.1.-.c %.x 9 9.F ..[ 9.9.9.C N.N.@._._._._._._.",
"_._._._._._._._._._._._.x ;.;.;.-.& -.A.G.G.A.@ ' G.A.u.u.J _._._._._._._._.9 9 9 9 9 : . %.F 9.F ..[ 9.9.9.C N.N.@._._._._._._.",
"_._._._._._._._._._._._._.        L s.D.G.G.s.  ' s.G.G.G.J _._._._._._._._._._._._._._.  c | 9.9.z {  . .9.C N.N.  _._._._._._.",
"_._._._._._._._._._._._._._._._.  L s.G.G.F.w _.w s.u.] o.n.  _._._._._._._._._._._._._._.  | 9.9.9.9.z S 9.C N.N.  _._._._._._.",
"_._._._._._._._._._._._._._._.  :.K * G.G.=._._.  X o.(.~.i.1._._._._._._._._._._._._._._._.| 9.9.9.9.9.9.9.C N.N.  _._._._._._.",
"_._._._._._._._._._._._._._.7 q.B.C.F.@.@.  _._._.  u.S.D.).~.` _._._._._._._._._._._._._._.| 9.9.9.9.9.9.9.C N.N.  _._._._._._.",
"_._._._._._._._._._._._._.  q.m.^.~.~.a.a.  _._._._.` ~.).).).b._._._._._._._._._._._._._._.| 9.9.9.9.9.9.F m.N.N.  _._._._._._.",
"_._._._._._._._._._._._._.7 N.!.).).).R.e _._._._._.C J.~.).).R.< _._._._._._._._._._._._._.| 9.9.9.9.9.9.B m.N.  _._._._._._._.",
"_._._._._._._._._._._._.   .Y./.).).).b._._._._._._.6 i C ` ` b.M._._._._._._._._._._._._._.| 9.9.9.9.9.9.B 0.f.  _._._._._._._.",
"_._._._._._._._._._._._.  < V.Q.Q.Q.R.  _._._._._._._.n.~.~.~.~.~.  _._._._._._._._._._._._.       . . .{ f.N.m.  _._._._._._._.",
"_._._._._._._._._._._._.  >.+.b.b.b.b.  _._._._._._._.0 c I I I I   _._._._._._._._._._._._._._._._._._._.V ) j _._._._._._._._.",
"_._._._._._._._._._._._.  + ,.p.p.p.i.  _._._._._._._._._._._._._._._._._._._._._._._._._._._._._._._._._._._._._._._._._._._._.",
"_._._._._._._._._._._._._._.          _._._._._._._._._._._._._._._._._._._._._._._._._._._._._._._._._._._._._._._._._._._._._.",
"_._._._._._._._._._._._._._._._._._._._._._._._._._._._._._._._._._._._._._._._._._._._._._._._._._._._._._._._._._._._._._._._."
};
