/* XPM */
static char *result[] = {
/* columns rows colors chars-per-pixel */
"64 64 138 2 ",
"   c #010101",
".  c #0C0101",
"X  c #0C0C0C",
"o  c #140000",
"O  c #1B0101",
"+  c #1D0A0A",
"@  c #0F0F10",
"#  c #141414",
"$  c #1A1A1A",
"%  c #220000",
"&  c #2B0000",
"*  c #240C0C",
"=  c #290C0C",
"-  c #340101",
";  c #3A0000",
":  c #350B0B",
">  c #3C0E0E",
",  c #2C1718",
"<  c #3B1313",
"1  c #331919",
"2  c #3E1C1D",
"3  c #242424",
"4  c #2A2425",
"5  c #2B2B2B",
"6  c #333333",
"7  c #3D3D3D",
"8  c #440000",
"9  c #4A0000",
"0  c #450A0A",
"q  c #490909",
"w  c #550000",
"e  c #5D0101",
"r  c #461111",
"t  c #4E1212",
"y  c #581313",
"u  c #630101",
"i  c #6D0101",
"p  c #620D0D",
"a  c #750101",
"s  c #7D0101",
"d  c #621111",
"f  c #701616",
"g  c #7C1616",
"h  c #452222",
"j  c #453031",
"k  c #4A3232",
"l  c #553F3F",
"z  c #434344",
"x  c #484445",
"c  c #474749",
"v  c #4B4B4C",
"b  c #514343",
"n  c #594343",
"m  c #4F4F51",
"M  c #545354",
"N  c #595455",
"B  c #565658",
"V  c #5C5C5C",
"C  c #6A5656",
"Z  c #6D595A",
"A  c #656566",
"S  c #666669",
"D  c #6C6C6C",
"F  c #7A6466",
"G  c #727273",
"H  c #787676",
"J  c #7B7B7B",
"K  c #840101",
"L  c #8D0101",
"P  c #940101",
"I  c #9A0101",
"U  c #871313",
"Y  c #8D1515",
"T  c #831C1C",
"R  c #881B1B",
"E  c #931515",
"W  c #9F1717",
"Q  c #A40202",
"!  c #AA0101",
"~  c #A20A0A",
"^  c #AF0E0E",
"/  c #BB0101",
"(  c #A21717",
")  c #A61818",
"_  c #B11010",
"`  c #B41D1D",
"'  c #BB1B1B",
"]  c #C00707",
"[  c #C50C0C",
"{  c #CA1111",
"}  c #C41C1C",
"|  c #CC1D1D",
" . c #D01717",
".. c #D31C1C",
"X. c #C52626",
"o. c #CD2121",
"O. c #C42C2C",
"+. c #D12222",
"@. c #DD2727",
"#. c #DC2B2B",
"$. c #DD3131",
"%. c #E32D2D",
"&. c #E53131",
"*. c #E93434",
"=. c #7F7F80",
"-. c #7F8082",
";. c #848485",
":. c #89898A",
">. c #8C8D90",
",. c #949495",
"<. c #97989B",
"1. c #9B9B9C",
"2. c #9F9FA3",
"3. c #A3A3A4",
"4. c #A5A5A8",
"5. c #ABAAAB",
"6. c #AFB1B4",
"7. c #B4B3B4",
"8. c #B5B5B9",
"9. c #BABABC",
"0. c #BEBFC2",
"q. c #C3C3C3",
"w. c #C6C6C9",
"e. c #C7C8CD",
"r. c #CCCBCC",
"t. c #CDCDD1",
"y. c #CFD0D4",
"u. c #D2D2D2",
"i. c #D5D5D9",
"p. c #DADADD",
"a. c #DEDEE2",
"s. c #DFE0E4",
"d. c #E2E2E4",
"f. c #E5E6EA",
"g. c #ECECEE",
"h. c #EDEEF4",
"j. c #F4F4F4",
"k. c None",
/* pixels */
"k.k.k.k.k.k.k.k.k.k.k.k.k.k.k.k.k.k.k.k.k.k.k.k.k.k.k.k.k.k.k.k.k.k.k.k.k.k.k.k.k.k.k.k.k.k.k.k.k.k.k.k.k.k.k.k.k.k.k.k.k.k.k.k.",
"k.k.k.k.k.k.k.k.k.k.k.k.k.k.k.k.k.k.k.k.k.k.k.k.k.k.k.k.k.k.k.k.k.k.k.k.k.k.k.k.k.k.k.k.k.k.k.k.k.k.k.k.k.k.k.k.k.k.k.k.k.k.k.k.",
"k.k.k.k.k.k.k.k.k.k.k.k.k.k.k.k.k.k.k.k.k.k.k.k.k.k.k.k.k.k.k.k.k.k.k.k.k.k.k.k.k.k.k.k.k.k.k.k.k.k.k.k.k.k.k.k.k.k.k.k.k.k.k.k.",
"k.k.k.k.k.k.k.k.k.k.k.k.k.k.k.k.k.k.k.k.k.k.k.k.k.k.k.k.k.k.k.k.k.k.k.k.k.k.k.k.k.k.k.k.k.k.k.k.k.k.k.k.k.k.k.k.k.k.k.k.k.k.k.k.",
"k.k.k.k.k.k.k.k.k.k.k.k.k.k.k.k.k.k.k.k.k.k.k.k.k.k.k.k.k.k.k.k.k.k.k.k.k.k.k.k.k.k.k.k.k.k.k.k.k.k.k.k.k.k.k.k.k.k.k.k.k.k.k.k.",
"k.k.k.k.k.k.k.k.k.k.k.k.k.k.k.k.k.k.k.k.k.k.k.k.k.k.k.k.k.k.k.k.k.k.k.k.k.k.k.k.k.k.k.k.k.k.k.k.k.k.k.k.k.k.k.k.k.k.k.k.k.k.k.k.",
"k.k.k.k.k.k.k.k.k.k.k.k.k.k.k.k.k.k.k.k.k.k.k.k.k.k.k.k.k.k.k.k.k.k.k.k.k.k.k.k.k.k.k.k.k.k.k.k.k.k.k.k.k.k.k.k.k.k.k.k.k.k.k.k.",
"k.k.k.k.k.k.k.k.k.k.k.k.k.k.k.k.k.k.k.k.k.k.k.k.k.k.k.k.k.k.k.k.k.k.k.k.k.k.k.k.k.k.k.k.k.k.k.k.k.k.k.k.k.k.k.k.k.k.k.k.k.k.k.k.",
"k.k.k.k.k.k.k.k.k.k.k.k.k.k.k.k.k.k.k.k.k.k.k.k.k.k.k.k.k.k.k.k.k.k.k.k.k.k.k.k.k.k.k.k.k.k.k.k.k.k.k.k.k.k.k.k.k.k.k.k.k.k.k.k.",
"k.k.k.k.k.k.k.k.k.k.k.k.k.k.k.k.k.k.k.k.k.k.k.k.k.k.k.k.k.k.k.X 6 6 5   k.k.k.k.k.k.k.k.k.k.k.k.k.k.k.k.k.k.k.k.k.k.k.k.k.k.k.k.",
"k.k.k.k.k.k.k.k.k.k.k.k.k.k.k.k.k.k.k.k.k.k.k.k.k.k.k.k.k.k.  G j.j.0.  k.k.k.k.k.k.k.k.k.k.k.k.k.k.k.k.k.k.k.k.k.k.k.k.k.k.k.k.",
"k.k.k.k.k.k.k.k.k.k.k.k.k.k.k.k.k.k.k.k.k.k.k.k.k.k.k.k.k.  A j.j.j.t.6 k.k.k.k.k.k.k.k.k.k.k.k.k.k.k.k.k.k.k.k.k.k.k.k.k.k.k.k.",
"k.k.k.k.k.k.k.k.k.k.k.k.k.k.k.k.k.k.k.k.k.k.k.k.k.k.k.k.@ G g.j.j.j.i.G   k.k.k.k.k.k.k.k.k.k.k.k.k.k.k.k.k.k.k.k.k.k.k.k.k.k.k.",
"k.k.k.k.k.k.k.k.k.k.k.k.k.k.k.k.k.k.k.3 M     k.k.k.k.  5 u.j.j.j.g.t.G           k.k.k.k.k.k.k.k.k.k.k.k.k.k.k.k.k.k.k.k.k.k.k.",
"k.k.k.k.k.k.k.k.k.k.k.k.k.k.k.k.k.k.  c 3.0.5.3   k.k.3 3.g.j.j.j.j.r.5.6 =.9.9.G X k.k.k.k.k.k.k.k.k.k.k.k.k.k.k.k.k.k.k.k.k.k.",
"k.k.k.k.k.k.k.k.k.k.k.k.k.k.k.k.k.k.  N 5.j.j.w.G     H d.j.j.j.j.j.t.q.c 5.j.d.,.k.k.k.k.k.k.k.k.k.k.k.k.k.k.k.k.k.k.k.k.k.k.k.",
"k.k.k.k.k.k.k.k.k.k.k.k.k.k.k.k.k.k.k.v 3.q.j.j.g.:.6 0.g.j.j.j.j.j.t.q.6 ;.j.p.5 k.    # 3 3 @ k.k.k.k.k.k.k.k.k.k.k.k.k.k.k.k.",
"k.k.k.k.k.k.k.k.k.k.k.k.k.k.k.k.k.k.k.  :.3.p.j.j.g.b ;.g.j.j.j.j.g.t.q.6 J ;.V @ V :.,.9.g.h.5.$ k.k.k.k.k.k.k.k.k.k.k.k.k.k.k.",
"k.k.k.k.k.k.k.k.k.k.k.k.k.k.k.k.k.k.k.  3.,.2.a.p.d.5.@ 7.j.j.j.j.g.t.u.,.X # 2.j.j.j.j.j.j.d.3.3 k.k.k.k.k.k.k.k.k.k.k.k.k.k.k.",
"k.k.k.k.k.k.k.k.k.k.k.k.k.k.k.k.k.k.k.X # # 3 7 $ # $ # $ 5.j.j.j.j.t.u.,.;.j.j.j.j.j.g.p.y.q.N k.k.k.k.k.k.k.k.k.k.k.k.k.k.k.k.",
"k.k.k.k.k.k.k.k.k.k.k.k.k.k.k.k.k.k.  c u.p.p.d.p.p.p.p.V 5 5.p.j.j.t.r.J ;.j.j.j.g.d.w.w.r.J X k.k.k.k.k.k.k.k.k.k.k.k.k.k.k.k.",
"k.k.k.k.k.k.k.k.k.k.k.k.k.k.k.k.k.k.  M f.g.j.j.j.j.j.j.j.7.3 z u.u.9.:.6 4.g.j.s.e.q.e.5.N # k.k.k.k.k.k.k.k.k.k.k.k.k.k.k.k.k.",
"k.k.k.k.k.k.k.k.k.k.k.k.k.k.k.k.k.k.  N r.u.p.d.j.j.j.j.j.j.w.5 4 5 3 7 V M ,.e.q.w.w.;.3   k.k.k.k.k.k.k.k.k.k.k.k.k.k.k.k.k.k.",
"k.k.k.k.k.k.k.k.k.k.k.k.k.k.k.k.X m ,.5 q.u.u.r.u.u.p.j.j.j.j.G $ ,.,.q.j.0.7 :.9.H c         k.k.k.k.k.k.k.k.k.k.k.k.k.k.k.k.k.",
"k.k.k.k.k.k.k.k.k.k.k.k.k.k.# M 5.p.j.7 G u.u.u.u.r.e.r.t.d.,.z r.j.j.j.j.j.;.$ 3 c V N . > :     k.k.k.k.k.k.k.k.k.k.k.k.k.k.k.",
"k.k.k.k.k.k.k.k.k.k.k.k.k.  J g.j.j.j.p.$ D u.u.u.u.u.t.t.r.$ 5.j.j.j.j.j.d.8.6 6 u.j.g.8.N * .     k.k.k.k.k.k.k.k.k.k.k.k.k.k.",
"k.k.k.k.k.k.k.k.k.k.k.k.k.  A q.j.j.j.j.p.z 3 >.9.u.u.u.w.v @ q.w.g.j.j.j.p.w.J v g.j.j.j.p.v + T t .   k.k.k.k.k.k.k.k.k.k.k.k.",
"k.k.k.k.k.k.k.k.k.k.k.    r r $ 6 H 7.7.6.<.3   3 5 5 5 3   @ t.q.r.g.j.g.r.r.u.V g.j.j.j.j.d.V d $.O.:   k.k.k.k.k.k.k.k.k.k.k.",
"k.k.k.k.k.k.k.k.k.k.  . q $.#.| p : .         X =.z z 7 V V 9.u.u.r.r.d.p.r.u.w.v 2.4.5.d.a.9.M y %.../ o   k.k.k.k.k.k.k.k.k.k.",
"k.k.k.k.k.k.k.k.k.k.  - I _ +.%.+.| E 0   m >.# 7.j.j.u.9.v z t.u.u.r.q.w.t.u.D $ 7 z z n l * d ~ ] / / w   k.k.k.k.k.k.k.k.k.k.",
"k.k.k.k.k.k.k.k.k.k.. a I I ~ o.$.` g 3 m h.w.B g.g.9.;.J X @ r.u.u.u.u.u.u.u.v c m v 4 E O.@.{ / / / / s   k.k.k.k.k.k.k.k.k.k.",
"k.k.k.k.k.k.k.k.k.k.  % L I I I p r >.w.h.h.w.7 M D B $ z + + H t.u.u.u.u.u.,.7 y.j.h.7.5 : ! / / / / / s   k.k.k.k.k.k.k.k.k.k.",
"k.k.k.k.k.k.k.k.k.k.  - u I I s * >.a.f.h.h.h.8.S 2.1.7 = E U . D 3.u.u.9.H 7 7.h.h.a.a.a.6 Q / / / / / s   k.k.k.k.k.k.k.k.k.k.",
"k.k.k.k.k.k.k.k.k.k.. s ; L I w $ t.g.p.f.h.h.h.e.:.1 p ) } | Y : h b l k   G i.f.a.h.f.a.Z Q / / / / / s   k.k.k.k.k.k.k.k.k.k.",
"k.k.k.k.k.k.k.k.k.k.o P 8 e I w # 4.e.h.f.s.y.G 6 < ( } o.| | | ` ` U U ( f , <.f.h.t.0.0.C Q / / / / / s   k.k.k.k.k.k.k.k.k.k.",
"k.k.k.k.k.k.k.k.k.k.. P a & K w # 3.4.e.f.h.3.. T X.o.| | | | | | | | +.%.%.T 3 t.e.6.0.t.F Q / / / / / K   k.k.k.k.k.k.k.k.k.k.",
"k.k.k.k.k.k.k.k.k.k.o I L ; 8 w $ 7.q.7.5.0.l - I #.&.$.+.| | | | o.#.*.%.{ Q & <.0.t.y.p.F Q / / / / / K   k.k.k.k.k.k.k.k.k.k.",
"k.k.k.k.k.k.k.k.k.k.. I I u O 8 $ 7.r.r.9.5.3 - I I ^ &.&.| | | +.*.*.+./ / / 8 5.i.a.p.p.F Q / / / / / K   k.k.k.k.k.k.k.k.k.k.",
"k.k.k.k.k.k.k.k.k.k.. I I s O   $ 7.r.r.r.9.6 - I I P I } &.#.#.*.%. ./ / / / 8 8.a.p.p.p.F Q / / / / / s   k.k.k.k.k.k.k.k.k.k.",
"k.k.k.k.k.k.k.k.k.k.o I L & O   # 7.r.r.r.q.6 ; I I I I I ~ #.*.] / / / / / / 8 8.a.p.p.p.F Q / / / / / a   k.k.k.k.k.k.k.k.k.k.",
"k.k.k.k.k.k.k.k.k.k.. P e & i - $ 7.r.r.r.q.6 8 I I I I I I I | / / / / / / / 8 9.p.p.p.p.F Q / / / / / s   k.k.k.k.k.k.k.k.k.k.",
"k.k.k.k.k.k.k.k.k.k.. e O s I w $ 7.r.r.r.q.6 ; I I I I P a i a / / / / / / / 8 9.p.i.a.a.F Q / / / / / % k.k.k.k.k.k.k.k.k.k.k.",
"k.k.k.k.k.k.k.k.k.k.    8 P I w $ 7.r.r.r.q.6 ; I P P i 8 o 9 K / / / / / / / 9 8.p.a.i.p.F Q / / / I .   k.k.k.k.k.k.k.k.k.k.k.",
"k.k.k.k.k.k.k.k.k.k.  o u I I w $ 7.r.r.r.q.6 ; a w - ; ; a P ! / / / / / / / 8 8.a.i.a.p.F Q / a 9   k.k.k.k.k.k.k.k.k.k.k.k.k.",
"k.k.k.k.k.k.k.k.k.k.    . - a w , 7.r.r.r.q.6 O o & 8 L I I I ! / / / / / / / 8 0.a.i.a.p.F Q L     k.k.k.k.k.k.k.k.k.k.k.k.k.k.",
"k.k.k.k.k.k.k.k.k.k.k.      O & # 7.r.r.r.q.6 - s L - w I I I ! / / / / / / / 8 8.i.a.i.,.z     k.k.k.k.k.k.k.k.k.k.k.k.k.k.k.k.",
"k.k.k.k.k.k.k.k.k.k.k.k.k.k.      J r.r.r.q.6 - I I & w I I I ! / / / / / / / 8 0.a.e.v X     k.k.k.k.k.k.k.k.k.k.k.k.k.k.k.k.k.",
"k.k.k.k.k.k.k.k.k.k.k.k.k.k.k.    . X ,.q.q.6 ; I P a 8 P I I ! / / / / / / / 9 4.4.@       k.k.k.k.k.k.k.k.k.k.k.k.k.k.k.k.k.k.",
"k.k.k.k.k.k.k.k.k.k.k.k.k.k.k.k.k.      7 9.6 ; I I a . s P I ! / / / / / / / 8 5     k.k.k.k.k.k.k.k.k.k.k.k.k.k.k.k.k.k.k.k.k.",
"k.k.k.k.k.k.k.k.k.k.k.k.k.k.k.k.k.k.k.        - P I s O a I I ! / / / / / / i       k.k.k.k.k.k.k.k.k.k.k.k.k.k.k.k.k.k.k.k.k.k.",
"k.k.k.k.k.k.k.k.k.k.k.k.k.k.k.k.k.k.k.k.k.    o 9 L I 9 8 P I ! / / / / / w o   k.k.k.k.k.k.k.k.k.k.k.k.k.k.k.k.k.k.k.k.k.k.k.k.",
"k.k.k.k.k.k.k.k.k.k.k.k.k.k.k.k.k.k.k.k.k.k.      & i 8 O L I ! / / / I .     k.k.k.k.k.k.k.k.k.k.k.k.k.k.k.k.k.k.k.k.k.k.k.k.k.",
"k.k.k.k.k.k.k.k.k.k.k.k.k.k.k.k.k.k.k.k.k.k.k.k.    . o O K I I P -         k.k.k.k.k.k.k.k.k.k.k.k.k.k.k.k.k.k.k.k.k.k.k.k.k.k.",
"k.k.k.k.k.k.k.k.k.k.k.k.k.k.k.k.k.k.k.k.k.k.k.k.k.k.      o % O o   k.k.k.k.k.k.k.k.k.k.k.k.k.k.k.k.k.k.k.k.k.k.k.k.k.k.k.k.k.k.",
"k.k.k.k.k.k.k.k.k.k.k.k.k.k.k.k.k.k.k.k.k.k.k.k.k.k.k.k.k.k.k.k.k.k.k.k.k.k.k.k.k.k.k.k.k.k.k.k.k.k.k.k.k.k.k.k.k.k.k.k.k.k.k.k.",
"k.k.k.k.k.k.k.k.k.k.k.k.k.k.k.k.k.k.k.k.k.k.k.k.k.k.k.k.k.k.k.k.k.k.k.k.k.k.k.k.k.k.k.k.k.k.k.k.k.k.k.k.k.k.k.k.k.k.k.k.k.k.k.k.",
"k.k.k.k.k.k.k.k.k.k.k.k.k.k.k.k.k.k.k.k.k.k.k.k.k.k.k.k.k.k.k.k.k.k.k.k.k.k.k.k.k.k.k.k.k.k.k.k.k.k.k.k.k.k.k.k.k.k.k.k.k.k.k.k.",
"k.k.k.k.k.k.k.k.k.k.k.k.k.k.k.k.k.k.k.k.k.k.k.k.k.k.k.k.k.k.k.k.k.k.k.k.k.k.k.k.k.k.k.k.k.k.k.k.k.k.k.k.k.k.k.k.k.k.k.k.k.k.k.k.",
"k.k.k.k.k.k.k.k.k.k.k.k.k.k.k.k.k.k.k.k.k.k.k.k.k.k.k.k.k.k.k.k.k.k.k.k.k.k.k.k.k.k.k.k.k.k.k.k.k.k.k.k.k.k.k.k.k.k.k.k.k.k.k.k.",
"k.k.k.k.k.k.k.k.k.k.k.k.k.k.k.k.k.k.k.k.k.k.k.k.k.k.k.k.k.k.k.k.k.k.k.k.k.k.k.k.k.k.k.k.k.k.k.k.k.k.k.k.k.k.k.k.k.k.k.k.k.k.k.k.",
"k.k.k.k.k.k.k.k.k.k.k.k.k.k.k.k.k.k.k.k.k.k.k.k.k.k.k.k.k.k.k.k.k.k.k.k.k.k.k.k.k.k.k.k.k.k.k.k.k.k.k.k.k.k.k.k.k.k.k.k.k.k.k.k.",
"k.k.k.k.k.k.k.k.k.k.k.k.k.k.k.k.k.k.k.k.k.k.k.k.k.k.k.k.k.k.k.k.k.k.k.k.k.k.k.k.k.k.k.k.k.k.k.k.k.k.k.k.k.k.k.k.k.k.k.k.k.k.k.k.",
"k.k.k.k.k.k.k.k.k.k.k.k.k.k.k.k.k.k.k.k.k.k.k.k.k.k.k.k.k.k.k.k.k.k.k.k.k.k.k.k.k.k.k.k.k.k.k.k.k.k.k.k.k.k.k.k.k.k.k.k.k.k.k.k.",
"k.k.k.k.k.k.k.k.k.k.k.k.k.k.k.k.k.k.k.k.k.k.k.k.k.k.k.k.k.k.k.k.k.k.k.k.k.k.k.k.k.k.k.k.k.k.k.k.k.k.k.k.k.k.k.k.k.k.k.k.k.k.k.k."
};
