/* XPM */
static char *result[] = {
/* columns rows colors chars-per-pixel */
"64 64 12 1 ",
"  c #513A23",
". c #70695D",
"X c #C95631",
"o c #CC6747",
"O c #B4893C",
"+ c #C7A43A",
"@ c #BA9340",
"# c #BFA97A",
"$ c #CA9A42",
"% c #D8A446",
"& c #DDBB6D",
"* c None",
/* pixels */
"****************************************************************",
"****************************************************************",
"****************************************************************",
"****************************************************************",
"****************************************************************",
"****************************************************************",
"****************************************************************",
"****************************************************************",
"****************************************************************",
"****************************************************************",
"****************************************************************",
"****************************************************************",
"****************************************************************",
"**************                                           *******",
"************* &&&&&&&&&&&&&&&&&&&&&&&&&&&&&&&&&&&&&&&&&  *******",
"************ &&&&&&&&&&&&&&&&&&&&&&&&&&&&&&&&&&&&&&&&& @ *******",
"***********O$$$$$$$$$$$$$$$$$$$$$$$$$$$$$$$$$$$$$$$$$O@@ *******",
"**********O%%%%%%%%%%%%%%%%%%%%%%%%%%%%%%%%%%%%%%%%%OO@@ *******",
"*********O%%%%%%%%%%%%%%%%%%%%%%%%%%%%%%%%%%%%%%%%%O%O@@ *******",
"********O$$$$$$$$$$$$$$$$$$$$$$$$$$$$$$$$$$$$$$$$$O%%O@@ *******",
"******* &&&&&&&&&&&&&&&&&&&&&&&&&&&&&&&&&&&&&&&&& O%%O@@ *******",
"****** &&&&&&&&&&&&&&&&&&&&&&&&&&&&&&&&&&&&&&&&& @O%@@@@ *******",
"*****                                           @@O@@@@@ *******",
"***** +++++++++++++++++++++++++++++++++++++++++ @@@@@@@@ *******",
"***** +.+.+.+++++++++++++++++++++++++++++++++++ @@@@@@@@ *******",
"***** ++.+.++++++++++++++++++++++++++++++++++++ @@@@@@@@ *******",
"***** +.+.+.+++++++++++++++++++++++++++++++++++ @@@@@@@@ *******",
"***** ++.+.++++++++++++++++++++++++++++++++++++ @@@@@@@@ *******",
"***** +.+.+.+++++++++++++++++++++++++++++++++++ @@@@@@@@ *******",
"***** +++++++++++++++++++++++++++++++++++++++++ @@@@@@@@ *******",
"***** +++++++++++++++++++++++++++++++++++++++++ @@@@@@@@ *******",
"***** +++++++++++++++++++++++++++++++++++++++++ @@@@@@@@ *******",
"***** ++++++++++++++++++++o++++++++++++++++++++ @@@@@@@@ *******",
"***** +++++++++++++++++++oXo+++++++++++++++++++ @@@@@@@@ *******",
"***** ++++++++++++++++++oXXXo++++++++++++++++++ @@@@@@@@ *******",
"***** +++++++++++++++++oXXXXXo+++++++++++++++++ @@@@@@@@ *******",
"***** ++++++++++++++++oXXXXXXXo++++++++++++++++ @@@@@@@@ *******",
"***** +++++++++++++++oooXXXXXooo+++++++++++++++ @@@@@@@@ *******",
"***** +++++++++++++++++oXXXXXo+++++++++++++++++ @@@@@@@@ *******",
"***** +++++++++++++++++oXXXXXo+++++++++++++++++ @@@@@@@@ *******",
"***** +++++++++++++++++oXXXXXo+++++++++++++++++ @#@@@@@@ *******",
"***** +++++++++++++++++ooooooo+++++++++++++++++ @@#@@@@@ *******",
"***** +++++++++++++++++++++++++++++++++++++++++ @#@#@@@@ *******",
"***** +++++++++++++++++++++++++++++++++++++++++ @##@#@@ ********",
"***** +++++++++++++++++++++++++++++++++++++++++ @###@@ *********",
"***** +++++++++++++++++++++++++++++++++++++++++ @##@@ **********",
"***** +++++++++++++++++++++++++++++++++++++++++ @#@@ ***********",
"***** ++.....++++++++++++++++++++++++++++++++++ @@@ ************",
"***** ++.....++++++++++++++++++++++++++++++++++ @@ *************",
"***** +++++++++++++++++++++++++++++++++++++++++ @ **************",
"***** +++++++++++++++++++++++++++++++++++++++++  ***************",
"*****                                           ****************",
"****************************************************************",
"****************************************************************",
"****************************************************************",
"****************************************************************",
"****************************************************************",
"****************************************************************",
"****************************************************************",
"****************************************************************",
"****************************************************************",
"****************************************************************",
"****************************************************************",
"****************************************************************"
};
