/* XPM */
static char *result[] = {
/* columns rows colors chars-per-pixel */
"64 64 190 2 ",
"   c #271A15",
".  c #281A15",
"X  c #291A16",
"o  c #291B16",
"O  c #2A1B17",
"+  c #2C1C17",
"@  c #2D1C17",
"#  c #2E1C17",
"$  c #2C1B18",
"%  c #2C1C18",
"&  c #2C1D18",
"*  c #2D1C19",
"=  c #2D1E18",
"-  c #2E1E19",
";  c #2F1E19",
":  c #311D19",
">  c #331F19",
",  c #301F1A",
"<  c #331D1D",
"1  c #341D1E",
"2  c #361E1F",
"3  c #34201A",
"4  c #35211A",
"5  c #38231B",
"6  c #39241B",
"7  c #3B241C",
"8  c #3A251C",
"9  c #3B251C",
"0  c #3B261C",
"q  c #3B271E",
"w  c #3F271D",
"e  c #3E291F",
"r  c #3E2A1F",
"t  c #371E20",
"y  c #391F21",
"u  c #3A1F20",
"i  c #3A1F21",
"p  c #3B2020",
"a  c #3D2020",
"s  c #3D2021",
"d  c #3D2022",
"f  c #3D2122",
"g  c #3E2122",
"h  c #3F2122",
"j  c #40271E",
"k  c #41281E",
"l  c #42291E",
"z  c #432A1F",
"x  c #442B1F",
"c  c #402122",
"v  c #412223",
"b  c #422223",
"n  c #442323",
"m  c #452323",
"M  c #472424",
"N  c #462624",
"B  c #492625",
"V  c #492725",
"C  c #4C2725",
"Z  c #452B20",
"A  c #452E22",
"S  c #472B26",
"D  c #4A2A25",
"F  c #482826",
"G  c #4E2A27",
"H  c #502724",
"J  c #512725",
"K  c #522825",
"L  c #522826",
"P  c #532826",
"I  c #502B27",
"U  c #552926",
"Y  c #562926",
"T  c #562A26",
"R  c #572A27",
"E  c #582A27",
"W  c #592B27",
"Q  c #522D28",
"!  c #522E28",
"~  c #5C2B28",
"^  c #5C2C28",
"/  c #5D2C28",
"(  c #5C2D28",
")  c #5D2D28",
"_  c #5D2F28",
"`  c #5D2E29",
"'  c #5E2E29",
"]  c #493124",
"[  c #50312A",
"{  c #53332C",
"}  c #59362E",
"|  c #612F2A",
" . c #622F2A",
".. c #632F2A",
"X. c #623329",
"o. c #62302A",
"O. c #63302A",
"+. c #64312A",
"@. c #65312B",
"#. c #66322B",
"$. c #67322B",
"%. c #68332B",
"&. c #69332C",
"*. c #69342C",
"=. c #6A342C",
"-. c #6A352C",
";. c #6B352D",
":. c #6C362D",
">. c #723A2F",
",. c #733A2F",
"<. c #613C31",
"1. c #743B30",
"2. c #743C30",
"3. c #753C30",
"4. c #793E31",
"5. c #7C3F32",
"6. c #6A4235",
"7. c #7B4032",
"8. c #7C4032",
"9. c #7D4032",
"0. c #7D4132",
"q. c #7E4132",
"w. c #7F4133",
"e. c #7F4533",
"r. c #724838",
"t. c #804233",
"y. c #814333",
"u. c #824334",
"i. c #804434",
"p. c #834434",
"a. c #844434",
"s. c #854534",
"d. c #854535",
"f. c #874735",
"g. c #884735",
"h. c #884736",
"j. c #894736",
"k. c #894836",
"l. c #8A4836",
"z. c #8B4936",
"x. c #8B4937",
"c. c #8C4937",
"v. c #8F4C38",
"b. c #904C38",
"n. c #914D38",
"m. c #914D39",
"M. c #924E39",
"N. c #944F3A",
"B. c #8E533A",
"V. c #96513B",
"C. c #93543B",
"Z. c #98523B",
"A. c #9A543C",
"S. c #9D563E",
"D. c #9A593D",
"F. c #9D5B3E",
"G. c #A15D40",
"H. c #A25F40",
"J. c #A45C40",
"K. c #A75F42",
"L. c #A85F42",
"P. c #A66042",
"I. c #A66343",
"U. c #A86042",
"Y. c #AD6143",
"T. c #AE6344",
"R. c #A86644",
"E. c #AE6545",
"W. c #B16445",
"Q. c #B36646",
"!. c #B46746",
"~. c #B56746",
"^. c #B76947",
"/. c #B86A47",
"(. c #BA6D4A",
"). c #A7704E",
"_. c #BD704B",
"`. c #B37854",
"'. c #BC7D54",
"]. c #C0724D",
"[. c #C4754E",
"{. c #C57850",
"}. c #C67A52",
"|. c #C58259",
" X c #C5835A",
".X c #C5845B",
"XX c #CF895E",
"oX c #D78B5D",
"OX c #D98E5F",
"+X c None",
/* pixels */
"+X+X+X+X+X+X+X+X+X+X+X+X+X+X+X+X+X+X+X+X+X+X+X+X+X+X+X+X+X+X+X+X+X+X+X+X+X+X+X+X+X+X+X+X+X+X+X+X+X+X+X+X+X+X+X+X+X+X+X+X+X+X+X+X",
"+X+X+X+X+X+X+X+X+X+X+X+X+X+X+X+X+X+X+X+X+X+X+X+X+X+X+X+X+X+X+X+X+X+X+X+X+X+X+X+X+X+X+X+X+X+X+X+X+X+X+X+X+X+X+X+X+X+X+X+X+X+X+X+X",
"+X+X+X+X+X+X+X+X+X+X+X+X+X+X+X+X+X+X+X+X+X+X+X+X+X+X+X+X+X+X+X+X+X+X+X+X+X+X+X+X+X+X+X+X+X+X+X+X+X+X+X+X+X+X+X+X+X+X+X+X+X+X+X+X",
"9 9 9 9 9 9 9 9 9 9 9 9 9 9 9 9 9 9 O O O O O 7 7 O O O O O O O O O O O O O 7 7 7 7 O O O O O O O O # : p f y y y y y y t o     ",
"/././././././.N.N.N.N././././.F.9 O o <.OXOX/./././.F.F.F.F.F.F.F.F.F.F.F.F.F.F.F.F.F.F.} } } } O T N.N.N.N.N.N.N.N.N.N.N.N.N.N.",
"N.N.N.N.N.N.N.N.N.N.N.N.N.N.F.9 O <.<.l.l.l.p.l.d.l.l.l.l.l.l.l.l.l.l.l.l.l.l.l.l.l.l.l.l.} } O T l.l.l.l.l.l.l.l.l.l.l.l.l.l.l.",
"l.l.l.l.l.l.l.l.l.l.l.l.l.F.9 O s.l.l.l.l.l.l.q.k.l.l.l.l.l.l.l.l.l.l.l.l.l.l.l.l.l.l.l.l.l.O T l.l.l.l.l.l.l.l.l.l.l.l.l.l.l.l.",
"l.l.l.l.l.l.l.l.l.l.l.l.F.9 O =.t.l.l.l.l.l.l.=.l.l.l.l.l.l.l.l.l.l.l.l.l.l.l.l.l.l.l.l.l.O T l.l.l.l.l.l.l.l.l.d.k.l.l.l.l.l.l.",
"l.l.l.u.=.t.l.l.l.l.l.F.9 O l.l.=.q.l.l.l.l.l.l.=.l.l.l.l.l.l.l.l.l.l.l.l.l.l.l.l.l.l.H.O T l.l.l.l.l.l.l.l.l.l.:.q.l.l.l.l.l.l.",
"l.l.l.l.l.=.h.l.l.l.F.9 O l.l.l.u.&.l.g.l.l.l.l.u.l.l.l.l.l.l.l.l.l.l.l.l.l.l.l.l.l.H.7 T g.p.j.l.l.l.l.l.l.l.l.p.&.l.l.l.l.l.l.",
"l.l.l.l.l.u.;.e.l.F.9 7 l.l.l.l.l...l.l.l.l.l.l.l.l.l.l.l.l.l.l.l.l.l.l.l.l.l.l.l.H.7 T l.p.:.d.l.l.l.l.l.l.l.l.l.s...=.u.l.l.l.",
"l.l.l.l.l.l.x.F.F.9 7 l.l.l.l.l...l.l.l.l.l.l.l.l.l.l.l.l.l.l.l.l.l.l.l.l.l.l.l.H.7 T l.l.&.q.k.l.l.l.l.l.l.l.l.l.l.l.u.=.s.l.l.",
"l.l.l.l.l.l.l.F.9 O p.g.l.l.g.p.&.l.l.l.l.l.l.l.l.l.l.l.l.l.l.l.l.l.l.l.l.l.l.H.O T l.l.l.u.=.t.l.l.l.l.l.l.l.l.l.l.l.l.l.l.l.l.",
"l.l.l.l.l.l.F.9 O n :.p.l.l.p.:.q.l.l.l.l.l.l.l.l.l.l.l.l.l.l.l.l.l.l.l.l.l.H.O T l.l.l.l.l.l.=.l.l.l.l.l.l.l.l.l.l.l.l.l.l.l.l.",
"@.@.@.@.@.@.9 O o $ n ( ....( n ' ..........................................O T ................................................",
"# # # # # : p f y y y y y y t o       o o       O # # # # # # # # # # # # # # # # # # # # # # # o X           o # # # # # # # # ",
"o o o o o     G./.W.Z.n. .Y c y f n ( T./././.x./././././././././.].OX<.o X   G././././././././././././././././././././././././.",
"c c c c t O . T l.M.Y.~.9.R m c @.:.p.l.l.g.p.&.l.l.l.l.l.l.l.l.l.M.Y.OX} [ , T l.l.l.l.l.l.l.l.l.l.l.l.l.l.l.l.l.l.l.l.l.l.l.l.",
"Y Y Y Y y < O T l.c.M.N.+.~ R Y y.p.g.l.l.p.:.q.l.l.l.l.l.l.l.l.l.c.M.]..X).A T l.l.l.l.l.l.l.l.l.l.l.l.l.l.l.l.l.l.l.l.l.l.l.l.",
"/ / / / U 2 O T l.l.l.l.w.+.9.a.%.l.l.l.l.y.@.a.l.l.l.l.l.l.l.l.l.l.l.b.[.I.x T l.l.l.l.l.l.l.l.l.l.l.l.l.l.l.l.l.l.l.l.l.l.l.l.",
"/ / / / E 2 O T l.l.l.l.%.l.l.l.l.l.l.l.a.@.y.l.l.l.l.l.l.l.l.l.l.l.l.l.n.H.z T l.l.l.s.s.l.l.l.l.l.l.l.l.l.l.l.l.l.l.l.l.l.l.l.",
"/ / / / E 2 O T l.l.l.l.l.l.l.l.l.l.l.l.q.-.5.j.l.l.l.l.l.l.l.l.l.l.l.l.n.H.z T l.l.l.=.&.p.g.l.l.l.l.u.u.g.p.j.l.l.l.l.l.l.l.l.",
"/ / / / E 2 O T l.l.l.l.l.l.l.l.l.l.l.l.&.5.-.d.l.l.l.l.l.l.l.l.l.l.l.l.n.H.z T l.l.l.u.q.:.p.l.l.l.l.=.=.p.:.d.l.l.l.l.l.l.l.l.",
"/ / / / E 2 O T l.l.l.l.l.l.l.l.l.l.l.l...y.@.a.l.l.l.l.l.l.l.l.l.l.l.l.n.H.z T l.l.l.l.k.q.&.s.l.u.=.t.t.&.q.k.l.l.l.l.l.l.l.l.",
"/ / / / E 2 O T l.l.l.l.l.l.l.l.l.l.l.%.l.l.l.l.l.l.l.l.l.l.l.l.l.u.=.t.n.H.z T l.l.l.l.l.u.=.t.a.@.y.l.l.u.=.t.l.l.l.l.l.l.l.l.",
"/ / / / E 2 O T l.l.l.l.l.l.l.l.l.l.l.l.l.l.l.l.l.l.l.l.l.l.l.l.l.l.l.=.h.D.k T l.l.l.l.l.l.l.=.q.:.p.l.l.l.l.=.l.l.l.l.l.l.l.l.",
"/ / / / E 2 O T l.l.l.l.l.l.l.l.l.l.l.l.l.l.l.l.l.l.l.l.l.l.l.l.l.l.l.u.;.e.7 T l.l.l.l.l.l.l.u.&.p.g.l.l.l.l.u.l.l.l.l.l.l.l.l.",
"/ / / / E 2 O T l.l.l.l.l.l.l.l.l.l.l.l.l.l.l.l.l.l.l.l.l.l.l.l.l.l.l.l.x.F.l T l.l.l.l.l.l.l.l...l.l.l.l.l.l.l.l.l.l.l.l.l.l.l.",
"/ / / / E 2 O K s.l.l.l.l.l.l.l.l.l.l.l.l.l.l.l.l.l.l.l.l.l.l.l.l.l.l.l.n.H.z T s.l.l.l.l.l.l...l.l.l.l.l.l.l.l.l.l.l.l.l.l.l.l.",
"/ / / / E 2 O 1 ( y.y.j.l.l.l.l.l.l.l.l.l.l.l.l.l.l.l.0.0.l.l.l.l.l.l.l.n.H.z H ( p.g.l.l.g.p.&.l.l.l.l.l.l.l.l.l.l.l.l.l.l.l.l.",
"/ / / / E 2 O O n @.@.d.l.l.l.l.l.l.l.l.l.l.l.l.l.l.l.I I l.l.l.l.l.l.l.n.H.z a n :.p.l.l.p.:.q.l.l.l.l.l.l.l.l.l.l.l.l.l.l.l.l.",
"/ / / / ^ L s o $ f f ' ..........................) B % % B ) ..........O._ > o $ n ( ....( n ' ................................",
"*.*.*.*.*.*.*.G 8 8 8 8 6 4 6 8 8 8 8 8 9 q =   8 8 8 8 8 8 8 8 8 8 8 8 8 8 8 8 8 8 8 8 8 8 8 r o       8 8 8 8 8 8 8 8 8 8 8 8 ",
"~.~.~.~.~.~.~.~.~.~.~.~.L.M.Y.~.~.~.~.~.(.|.r.= T.~.~.~.~.~.~.~.~.~.~.~.~.~.~.~.~.~.~.~.~.~.~.OX{ O .   T.~.~.~.~.~.~.~.~.~.~.~.",
"N.N.N.N.N.N.N.N.N.N.N.N.,.c.M.N.N.N.N.N.A.}.|.q 1.N.N.N.N.N.N.N.N.N.N.N.N.N.N.N.N.N.N.N.N.N.N.].`.< O   1.N.N.N.N.N.N.N.N.N.N.N.",
"l.l.l.l.l.l.l.l.l.l.l.%.s.l.l.l.l.l.l.l.z.A.(.9 ..l.l.l.l.l.l.l.l.l.l.l.l.l.l.l.l.l.l.l.l.l.l.b.{.`.{ o ..l.l.l.l.l.l.l.l.l.l.l.",
"l.l.l.l.l.l.l.l.t.....s.l.l.l.l.l.l.l.l.l.N.~.8 ..l.l.l.l.l.l.l.l.l.l.l.l.l.l.l.l.l.l.l.l.l.l.l._. X6.& ..l.l.l.l.l.l.l.l.j.d.a.",
"l.l.l.l.l.g.p.y.=.l.l.l.l.l.l.l.l.l.l.l.l.N.~.8 ..l.l.l.l.l.l.u.l.l.l.l.l.l.l.l.l.l.l.l.l.l.l.l.v._.oXe ..l.l.l.l.l.l.u.y.4.' Y ",
"l.l.l.l.l.p.:.@.u.l.l.l.l.l.l.l.l.l.l.l.l.N.~.8 ..l.l.l.l.l.l.=.l.l.l.l.l.l.l.l.l.l.l.l.l.l.l.l.z.S._.0 ..l.l.l.l.l.l.=.@.' M c ",
"l.l.l.l.s.&.q.a.%.l.l.l.l.l.l.l.l.l.l.l.l.N.~.8 ..l.l.l.l.l.l...l.l.l.l.l.l.l.l.l.l.l.l.l.l.l.l.l.N.~.8 ..l.l.l.s.....b f d i y ",
"l.j.d.a.%.l.l.l.$.d.j.l.l.l.l.l.l.l.l.l.l.N.~.8 ..l.l.l.l.y.@.a.l.l.l.l.l.j.d.k.l.l.l.l.l.l.l.l.l.N.~.8 ..l.l.l.l.u.=...' f f f ",
"j.5.-.@.l.l.l.l.d.:.p.l.l.l.l.l.l.l.l.l.l.N.~.8 ..l.l.l.j.5.-.d.l.l.l.l.l.p.:.q.l.l.l.l.l.l.l.l.l.N.~.8 ..l.l.l.l.l.l.l.d.@.@.@.",
"d.-.5.y.l.l.l.l.j.p.g.l.l.l.l.l.l.l.l.l.l.N.~.8 ..l.l.l.d.-.5.j.l.l.l.l.l.g.p.&.l.l.l.l.l.l.l.l.l.N.~.8 ..l.l.l.l.l.l.l.j.y.y.y.",
"$.d.j.l.l.l.l.l.l.l.l.l.l.l.l.l.l.l.l.l.l.N.~.8 ..l.l.l.k.d.j.l.l.l.l.l.l.l.l.s...=.u.l.l.l.l.l.l.N.~.8 ..l.l.l.l.l.l.l.l.l.l.l.",
"l.l.l.l.l.l.l.l.l.l.l.l.l.l.l.l.l.l.l.l.w.L s o ' d.j.l.l.l.l.l.l.l.l.l.l.l.l.l.l.u.=.s.l.l.l.l.l.m.K.5 ..l.l.l.l.l.l.l.l.l.l.l.",
"y.y.y.y.y.y.y.y.y.y.y.y.y.y.y.y.y.y.y.y.E 2 O   u ' 4.y.y.y.y.y.y.y.y.y.y.y.y.y.y.y.y.y.y.y.y.y.y.2.N o ( y.y.y.y.y.y.y.y.y.y.y.",
"@.@.@.@.@.@.@.@.@.@.@.@.@.@.@.@.@.@.@.@.E 2 O   * M ' @.@.@.@.@.@.@.@.@.@.@.@.@.@.@.@.@.@.@.@.@.@.` v o n @.@.@.@.@.@.@.@.@.@.@.",
"# # # # # # # # # # # # # # # # # # # # @ X       O @ # # # # # # # # # # # # # # # # # # # # # # @ O   O # # # # # # # # # # # ",
"o o o o o       F !.^./.T.>.J./././././././././././././././././././././.XXS - o Q /././././././././././././././././././././././.",
"! ! ! V s O . O n :.p.l.l.y.@.a.l.l.l.l.l.l.l.l.l.l.l.l.l.l.l.l.l.l.l.l.(.'.] a l.l.l.l.l.l.l.l.l.l.l.l.l.l.l.l.l.l.l.l.l.l.l.l.",
"P.P.P.i.L < O 1 ( p.g.l.l.y.@.a.l.l.l.l.l.l.l.l.l.l.l.l.l.l.l.l.l.l.l.l.A.R.Z H l.l.l.l.l.l.l.l.l.l.l.l.l.l.l.l.l.l.l.l.l.l.l.l.",
"n.n.n.Q.7.2 O K s.l.l.l.l.j.d.$.l.l.l.l.l.l.l.l.l.l.l.l.l.l.l.l.l.l.l.l.n.H.z T l.l.l.l.l.l.l.l.l.l.l.l.l.l.l.l.l.l.l.l.l.l.l.l.",
"l.l.l.l.E.2 O T l.l.l.l.l.j.d.$.l.l.l.l.l.l.l.l.l.l.l.l.s.l.l.l.l.l.l.l.n.H.z T l.l.l.l.l.l.l.l.l.l.l.l.l.l.l.l.l.l.l.l...&.q.k.",
"l.l.l.l.U.D ; T l.l.l.l.l.p.:.q.l.l.l.l.l.l.l.l.l.l.l.u.=.l.l.l.l.l.l.l.n.H.z T l.l.l.l.l.l.l.l.l.l.l.l.l.l.l.l.l.l.l.l.l.p.:.q.",
"l.l.l.l.V.B.w T l.l.l.l.l.g.p.&.l.l.l.l.l.l.l.l.l.l.l.=.u.l.l.l.l.l.l.l.n.H.z T l.l.l.l.l.l.l.l.l.l.l.l.l.l.l.l.l.l.l.l.l.g.p.&.",
"l.l.l.l.n.H.z T l.l.l.l.l.u.=.t.l.l.l.l.l.l.l.l.l.l.l...l.l.l.l.l.l.l.l.n.H.z T l.l.l.l.%.l.l.l.l.l.l.l.l.l.l.l.l.l.l.l.l.l.l.s.",
"l.l.l.l.n.H.z T l.l.l.%.w.E E w.%.l.l.l.l.l.l.l.l.u.=.s.l.l.l.l.l.l.l.l.n.H.z T l.l.l.s.$.d.j.l.l.l.l.l.l.l.l.l.l.l.l.l.l.l.l.l.",
"l.l.l.l.n.H.z T l.l.l.l.| g i P u.l.l.l.l.l.l.l.l.l.l.l.l.l.l.l.l.l.l.l.n.H.z T l.l.l...d.-.5.j.l.l.l.l.l.l.l.l.l.l.l.l.l.l.l.l.",
"l.l.l.l.n.H.z T l.l.l.l.8.J g h =.l.l.l.l.l.l.l.l.l.l.l.l.l.l.l.l.l.l.l.n.H.z T l.l.l...j.5.-.d.l.l.l.l.l.l.l.l.l.l.l.l.l.l.l.l.",
"l.l.l.l.n.H.z T l.l.l.l.$.8.| d ..l.l.l.l.l.l.l.l.l.l.l.l.l.l.l.l.l.l.l.n.H.z p ......t.l.j.d.k.l.l.l.l.l.l.l.l.l.l.l.l.l.l.l.l.",
"l.l.l.l.n.H.z T l.l.l.l.l.j.d.$.s.=.u.l.l.l.l.l.l.l.l.l.l.l.l.l.l.l.l.l.n.H.z   f @.y.l.l.l.l.l.l.l.l.l.l.l.l.l.l.l.l.l.l.l.l.l.",
"y.y.y.y.f.C.j H y.y.y.y.t.3.o.9.y.y.y.y.y.y.y.y.y.y.y.y.y.y.y.y.y.y.y.y.f.C.j   u ' 4.y.y.y.y.y.y.y.y.y.y.y.y.y.y.y.y.y.y.y.y.y.",
"@.@.@.@.#.X.3 a @.@.@.@.o.C W +.@.@.@.@.@.@.@.@.@.@.@.@.@.@.@.@.@.@.@.@.#.X.3   * M ' @.@.@.@.@.@.@.@.@.@.@.@.@.@.@.@.@.@.@.@.@.",
"# # # # # + . o # # # # @ O @ # # # # # # # # # # # # # # # # # # # # # # + .     O @ # # # # # # # # # # # # # # # # # # # # # "
};
