/* XPM */
static char *f334ee4e5c0046bcb63f2261e941365dYys8q31FKVzXUDso[] = {
/* columns rows colors chars-per-pixel */
"64 64 150 2 ",
"   c #271A15",
".  c #281A15",
"X  c #291A16",
"o  c #2A1B17",
"O  c #2A1C16",
"+  c #2D1C17",
"@  c #2E1C17",
"#  c #2C1B18",
"$  c #2D1C19",
"%  c #2F1D18",
"&  c #2D1E18",
"*  c #311D19",
"=  c #331F19",
"-  c #331D1D",
";  c #371E1F",
":  c #35211A",
">  c #33201C",
",  c #38231B",
"<  c #39241B",
"1  c #3B241C",
"2  c #3A251C",
"3  c #3B251C",
"4  c #3B271E",
"5  c #3F271D",
"6  c #3C281E",
"7  c #371E20",
"8  c #391F21",
"9  c #3A1F20",
"0  c #3A1F21",
"q  c #3B2020",
"w  c #3D2022",
"e  c #3D2122",
"r  c #3F2122",
"t  c #40271E",
"y  c #42291E",
"u  c #442B1F",
"i  c #402122",
"p  c #412223",
"a  c #422223",
"s  c #452323",
"d  c #472424",
"f  c #462624",
"g  c #492625",
"h  c #492725",
"j  c #4C2725",
"k  c #452B20",
"l  c #452E22",
"z  c #482826",
"x  c #4E2A27",
"c  c #502724",
"v  c #512725",
"b  c #522825",
"n  c #522826",
"m  c #552926",
"M  c #562926",
"N  c #562A26",
"B  c #572A27",
"V  c #582A27",
"C  c #592B27",
"Z  c #522D28",
"A  c #5C2B28",
"S  c #5D2C28",
"D  c #5C2D28",
"F  c #5D2D28",
"G  c #5E2E29",
"H  c #493124",
"J  c #50312A",
"K  c #53332C",
"L  c #59362E",
"P  c #612F2A",
"I  c #622F2A",
"U  c #632F2A",
"Y  c #623329",
"T  c #63302A",
"R  c #65312B",
"E  c #67322B",
"W  c #68332B",
"Q  c #69332C",
"!  c #6A342C",
"~  c #6B352D",
"^  c #6C362D",
"/  c #723A2F",
"(  c #733A2F",
")  c #613C31",
"_  c #743B30",
"`  c #753C30",
"'  c #793E31",
"]  c #7C3F32",
"[  c #6A4235",
"{  c #7B4032",
"}  c #7E4132",
"|  c #7F4133",
" . c #7F4533",
".. c #724838",
"X. c #814333",
"o. c #824334",
"O. c #834434",
"+. c #844434",
"@. c #854534",
"#. c #874735",
"$. c #884736",
"%. c #894736",
"&. c #8A4836",
"*. c #8B4936",
"=. c #8B4937",
"-. c #8C4937",
";. c #8F4C38",
":. c #904C38",
">. c #914D38",
",. c #924E39",
"<. c #944F3A",
"1. c #8E533A",
"2. c #96513B",
"3. c #93543B",
"4. c #98523B",
"5. c #9A543C",
"6. c #9A593D",
"7. c #A15D40",
"8. c #A25F40",
"9. c #A75F42",
"0. c #A66042",
"q. c #A66343",
"w. c #A86042",
"e. c #AD6143",
"r. c #AE6344",
"t. c #A86644",
"y. c #AE6545",
"u. c #B16445",
"i. c #B36646",
"p. c #B46746",
"a. c #B56746",
"s. c #B76947",
"d. c #B86A47",
"f. c #BA6D4A",
"g. c #A7704E",
"h. c #BD704B",
"j. c #AA7150",
"k. c #B37854",
"l. c #BC7D54",
"z. c #C0724D",
"x. c #C4754E",
"c. c #C57850",
"v. c #C67951",
"b. c #C67A52",
"n. c #C58259",
"m. c #C5835A",
"M. c #C5845B",
"N. c #CE885C",
"B. c #D78B5D",
"V. c #D98E5F",
/* pixels */
"2 2 2 2 2 2 2 2 2 2 2 2 2 2 2 2 2 2 2 2 6 X X   @ < < 2 2 2 2 , 2 2 2 2 2 2 2 2 < 3 3 1 1 < , < 3 , u @ 2 2 2 2 2 2 2 2 2 2 2 2 ",
"a.a.a.a.a.a.a.a.a.a.a.a.a.a.a.a.a.a.a.a.N.J > X ! s.a.s.a.a.s.a.a.a.a.a.a.a.a.a.i.i.a.a.a.a.a.a.s.f.B.6 r.a.a.a.a.a.a.a.a.a.a.a.",
"<.<.<.<.<.<.<.<.<.<.<.<.<.<.<.<.<.<.<.<.v.j.J X R 2.>.2.<.<.<.<.<.<.<.<.<.<.<.<.2.,.2.2.<.<.<.2.2.5.h.2 _ <.<.<.<.<.<.<.<.<.<.<.",
"&.&.&.&.&.&.&.&.&.&.&.&.&.&.&.&.&.&.&.&.2.v.N.6 P &.&.@.&.&.&.&.&.&.&.&.&.&.&.&.&.&.#.&.%.*.%.&.&.2.s.2 U &.&.&.&.&.&.&.&.&.&.&.",
"&.&.&.&.&.&.&.&.&.&.&.&.&.&.&.&.&.&.&.&.&.<.a.2 U %.&.&.&.&.&.&.=.%.=.%.&.%.&.&.&.&.&.&.&.&.&.&.&.>.a.1 P %.&.&.&.&.&.&.&.&.&.&.",
"&.&.&.&.&.&.&.&.&.&.&.&.&.&.&.&.&.&.&.&.&.<.a.2 U &.&.&.&.&.&.&.%.=.%.O.X.@.%.&.&.&.&.&.&.&.&.&.&.2.s.2 P &.&.&.&.&.&.&.&.&.&.&.",
"&.&.&.&.&.&.&.&.&.&.&.&.&.&.&.&.&.&.&.&.&.<.a.2 U &.&.&.&.&.&.&.=.%.%.Q R ^ @.@.&.&.&.&.&.&.&.&.&.2.a.2 U &.&.&.&.&.&.&.&.&.&.&.",
"&.&.&.&.&.&.&.&.&.&.&.&.@.! o.&.&.&.&.&.&.<.a.2 U &.&.&.&.&.&.&.@.P P O.@.@.&.&.&.&.&.&.&.&.&.&.&.>.a.2 U &.&.&.&.&.&.&.&.&.&.&.",
"&.&.&.&.&.&.&.&.&.&.&.&.@.Q } @.@.&.&.&.&.2.a.2 G +.@.@.P P T T Q @.%.&.&.*.#.&.&.&.&.&.&.&.&.*.%.<.d.3 P %.=.%.&.&.&.&.&.&.&.&.",
"&.&.&.&.&.&.O.&.&.&.&.&.X.' G m G @.@.&.o.<.a.2 i R R R &.&.&.&.@.! ' &.&.*.*.*.*.&.&.&.&.&.&.&.%.<.a., U =.%.-.%.@.%.&.&.&.&.&.",
"&.&.&.&.&.O.^ @.&.&.&.&.R G d i e ^ O.&.! <.a.2 i X.X.X.&.&.&.&.%.] ! @.&.&.&.&.&.&.&.&.&.&.&.&.&.<.a.2 U -.*.%.@.! O.&.&.&.&.&.",
"&.&.&.&.&.&.@.R W &.&.W e 9 $ X e R X.Q @.<.a.2 U %.&.&.&.&.&.&.@.O.R @.&.&.&.&.&.&.&.&.&.&.&.&.&.<.a.2 U &.%.%.@.R o.&.&.&.&.&.",
"&.&.&.&.&.&.&.&.| B B e ; X     O e v } } b e O U %.&.&.&.&.&.&.-.=.*.&.&.&.&.&.&.&.*.%.&.*.%.&.@.*.9., ; m V X.! @.&.&.&.&.&.&.",
"O.|  .O.o.o.o.} n 8 9 7 7 X       X - b b - X   G X.X.X.X.X.X.X.o.o.X.X.X.X.X.X.}  .X.@.X.X.X.@.m v 3 X X ; ; b O.X.O.X.o.X.X.X.",
"R R R R U R R R e 8 9 9 9 - O     X X e e X     s R R R R R R R T R R R R R R R R R R U U U W U i ; $ X   X $ < R R R R R R R R ",
"+ + + + $ - e e 8 8 9 q 7 q 7 X       O X X   X X @ @ @ @ @ @ @ $ @ @ @ @ @ @ @ $ % @ @ @ @ @ @ X X   X X X X X @ $ @ @ @ $ O @ ",
"X X X X X X   7.d.u.4.,.U M i ; 0 g P 9.d.d.d.&.d.d.d.d.d.d.d.d.d.z.V.) X $ X 8.s.d.s.s.s.d.s.s.d.d.d.d.s.s.d.f.s.s.s.s.s.d.s.s.",
"i i i i ; X X m &.<.e.a.} M s i U ! X.&.&.&.+.! &.&.&.&.&.&.&.&.&.>.r.V.L H > m &.*.&.&.&.*.&.&.%.*.-.%.&.&.&.&.&.&.&.&.&.*.*.&.",
"m m m V 1 ; O m &.&.>.<.U V V M +.@.&.&.%.+.^ } &.&.&.&.&.&.&.&.-.-.2.h.M.g.k m *.*.&.*.*.*.&.&.%.=.%.-.&.&.&.&.*.&.&.&.&.&.*.*.",
"G G A S v ; O m &.&.&.&.X.U X.+.R &.&.&.%.+.U +.&.&.&.&.&.&.&.&.=.%.@.,.x.q.k m &.&.&.&.&.&.&.&.&.%.-.%.&.&.&.&.*.&.&.&.&.&.&.*.",
"S S A A M 7 X m &.&.&.&.W &.&.&.&.&.&.&.@.R X.%.&.&.&.&.&.&.&.&.%.=.&.&.>.8.k m &.&.&.O.O.&.*.=.&.&.&.&.&.&.&.*.&.&.&.&.&.&.&.&.",
"S S S G V 9 o m &.&.&.&.&.&.&.&.&.&.&.&.X.W ] *.&.&.&.&.&.&.&.&.=.%.&.&.>.8.u m &.&.&.! W @.&.#.&.&.%.O.X.&.O.%.&.&.&.&.&.&.&.&.",
"S S G A m 7 o m &.&.&.&.&.&.&.&.&.&.&.&.Q } ! @.&.&.&.&.&.&.&.&.&.&.&.&.>.8.u m &.&.*.O.} ! @.*.&.&.&.! ! X.^ O.&.&.&.&.&.&.&.&.",
"S S G G C 7 X B &.&.&.&.&.&.&.&.&.&.&.%.P X.R @.&.&.&.&.&.&.&.&.&.&.&.&.*.9.u m &.&.&.&.&.} ! X.&.o.! X.X.W } &.&.&.&.&.&.&.&.&.",
"S S S S C 7 O m &.&.&.&.&.&.&.&.&.&.&.R &.&.&.&.&.&.&.&.&.&.&.&.&.o.! X.>.0.u b &.&.&.&.&.o.W X.+.U X.*.*.o.W X.&.&.&.&.&.&.&.&.",
"S S S S m 7 O m &.&.&.&.&.&.&.&.&.&.&.&.&.&.&.&.&.&.&.&.&.&.&.&.-.@.&.! #.6.u m &.&.&.&.&.&.&.! o.Q +.%.%.*.*.W &.&.&.&.&.&.&.&.",
"S S S S B 7 o m &.&.&.&.&.&.&.&.&.&.&.&.&.&.&.&.&.&.&.&.&.&.&.&.&.&.&.O.! O.1 m &.&.=.%.&.&.&.O.Q +.%.*.*.%.*.X.&.&.&.&.&.&.&.&.",
"S S S S m q o m &.&.&.&.&.&.&.&.&.&.&.&.&.&.&.&.&.&.&.&.&.&.&.&.&.&.&.&.=.5.u m &.&.&.=.&.&.&.&.U %.%.*.%.*.%.*.&.&.&.&.&.&.&.&.",
"S S S S m ; X b @.&.&.&.&.&.&.&.&.&.&.&.&.&.&.&.&.&.&.&.&.&.&.&.&.&.&.*.>.8.y N @.%.%.&.*.%.&.P %.%.&.*.*.%.*.%.*.%.*.%.&.&.&.&.",
"S S S S m ; X 9 V O.X.%.&.&.&.&.&.&.&.&.&.&.&.&.&.&.&.} } &.&.&.&.&.&.%.>.0.u z A @.%.&.%.%.+.W *.*.&.%.%.*.%.*.%.*.%.*.&.&.&.&.",
"S S S S V ; X X d R R @.&.&.&.&.&.&.&.&.&.&.&.&.&.%.&.x x &.&.&.&.&.%.*.,.7.u 3 i ^ +.%.*.+.^ X.%.*.*.&.*.%.%.*.*.%.*.%.&.&.&.&.",
"S S S S S b e X $ e e L U U U U R U U U U U U U U G g @ $ g S T U U P T R S : X @ s A U U A i P U U U P U U U U U U U P T T T T ",
"! ! ! ! ! W W x < , 1 2 1 : 2 2 < < , 2 2 3 $ X 2 2 2 2 2 2 2 2 < < 2 , 3 , < < 2 2 3 1 1 2 2 3 o X X   2 2 2 2 2 2 2 2 2 2 2 2 ",
"i.a.a.a.a.a.a.a.s.a.s.a.9.:.r.s.s.s.s.s.f.M...$ r.a.a.a.a.a.a.a.a.d.a.a.d.a.a.d.i.i.a.a.a.a.a.V.K $     r.a.a.a.a.a.a.a.a.a.a.a.",
"2.2.<.<.<.<.<.<.<.<.>.2./ *.>.>.>.>.2.2.5.v.M.1 _ <.<.<.<.<.<.<.<.<.<.<.<.<.<.<.2.>.2.2.>.<.<.z.k.; X X _ <.2.>.<.<.<.<.<.<.<.<.",
"&.@.&.&.&.&.&.&.&.%.%.Q @.-.&.&.&.&.&.&.&.5.f.3 U &.&.&.&.&.&.&.%.*.%.&.&.&.&.%.&.#.&.&.*.%.*.>.v.k.J O P &.&.&.&.&.&.&.&.&.&.&.",
"&.&.&.&.&.&.&.%.O.T P @.&.&.&.&.&.&.&.&.&.<.a.2 U &.&.&.&.&.&.&.&.&.&.&.&.&.&.&.&.&.&.&.&.&.&.&.h.n.[ @ T &.&.&.&.&.%.-.&.@.@.@.",
"&.&.&.&.&.&.@.X.R &.%.*.&.&.&.&.&.&.&.&.&.<.a.2 U &.&.&.&.&.&.o.&.&.&.&.&.&.&.&.&.&.&.&.&.&.&.&.*.h.V.6 T &.&.&.&.&.&.o.o.' G m ",
"&.&.&.&.%.O.! R o.&.-.&.&.&.&.&.&.&.&.&.&.<.a.2 U &.&.&.%.%.*.^ &.&.&.&.&.&.&.&.&.&.&.&.&.&.&.&.&.5.h.< T &.&.&.&.&.%.! R P g i ",
"&.&.&.&.@.W o.@.W &.&.&.&.&.&.&.&.&.&.&.&.<.a.2 U &.&.&.%.*.%.P &.&.&.&.&.&.&.&.&.&.&.&.&.&.*.&.&.2.d.2 T &.&.&.@.P P a i 9 9 9 ",
"&.%.@.@.R &.&.&.W @.#.=.=.@.&.&.&.&.&.&.&.>.s.2 U &.&.&.&.X.R @.&.&.&.&.&.&.@.&.=.&.&.&.&.*.#.&.%.<.d.< T &.&.&.&.o.! U G i e e ",
"%.] ! R &.&.&.&.@.! @.#.=.-.&.&.&.&.&.&.&.2.s.2 U &.&.&.&.' Q @.&.&.&.&.&.O.! } &.&.&.&.&.&.*.*.&.<.a.< P &.&.&.&.&.&.&.@.R R R ",
"@.! } o.&.&.&.&.&.X.&.&.=.&.&.&.&.&.&.&.%.2.a.2 P &.&.&.@.! X.%.&.&.&.&.&.&.@.W &.-.&.&.&.&.&.&.&.<.a., U &.&.&.&.&.&.&.@.O.O.o.",
"R @.%.&.&.&.&.&.&.&.&.&.&.&.&.&.&.&.&.&.&.>.a.2 R &.&.&.&.@.@.&.&.&.&.&.&.-.@.@.T R o.&.&.&.&.&.&.<.d.< U &.&.&.&.&.&.&.=.&.=.@.",
"&.&.&.&.&.&.&.&.&.&.&.&.&.&.&.&.&.&.&.&.} v e X T @.@.&.&.&.&.&.&.&.&.*.%.*.&.&.-.o.! @.&.&.&.&.&.>.w.2 T &.&.&.-.@.&.&.=.&.&.&.",
"O.X.X.X.X.X.X.X.X.X.X.X.O.X.X.X.X.X.O.X.V 9 X   ; G ' X.X.X.X.X.X.X.X.X.X.o.X.X.X.X.X.X.X.X.X.X.X.( d X S X.X.X.O.X.O.X.o.o.X.o.",
"R R R R R R R R R R R R R R R R R R T R m 7 o X @ s S R R R R R R R R R R R R R R R R R R R R R R G e O s R R R R R R R R R R R ",
"@ @ @ @ $ @ @ @ @ @ @ @ @ @ @ $ @ @ @ $ $ X     X @ @ @ @ @ % $ @ @ $ @ @ @ @ @ @ @ @ @ @ @ @ @ @ $ O X X @ @ @ @ $ @ @ @ $ O @ ",
"X O O X X       z s.s.d.y./ 9.s.d.d.d.d.d.d.d.d.d.d.d.d.d.d.d.d.d.d.s.s.N.g $ + Z d.d.d.d.d.d.d.d.d.d.d.d.d.d.d.d.d.d.d.d.d.d.d.",
"Z Z Z z e X   O d W O.&.&.X.R X.&.&.&.&.&.&.&.&.&.&.&.&.&.&.&.&.&.&.&.&.f.l.H 1 &.&.&.&.&.&.&.&.&.&.&.&.&.&.&.&.&.&.&.&.&.&.&.&.",
"9.t.q.X.b - X 1 C @.#.&.%.X.R @.&.&.&.&.&.&.&.&.&.&.&.&.&.&.&.&.&.&.&.&.5.t.u j &.&.&.&.&.&.&.&.&.&.&.&.&.&.&.&.&.&.&.&.&.&.&.&.",
",.>.*.i.{ ; X b @.&.&.&.&.&.@.R &.&.&.&.&.&.&.&.&.&.&.&.&.&.&.&.&.&.&.&.>.0.t G &.&.&.&.&.&.&.&.&.&.&.&.&.&.&.&.&.&.&.&.&.&.&.&.",
"%.&.&.&.y.; O m &.&.=.=.&.&.@.Q &.&.&.&.&.&.&.&.&.&.&.&.@.&.&.&.&.&.&.&.>.8.u m &.&.&.&.=.@.-.&.&.&.&.&.&.&.&.&.&.&.&.&.T ! } &.",
"&.&.&.&.w.g & N &.&.%.=.&.O.^ ' &.&.&.&.&.&.&.&.&.&.%.@.Q &.&.&.&.&.&.&.>.8.u v &.&.&.&.&.-.=.=.&.&.&.&.&.&.&.&.&.&.&.&.&.X.^ } ",
"&.&.&.&.2.1.t m &.&.@.-.&.@.@.Q &.&.&.&.&.&.&.&.&.&.&.Q @.&.&.&.&.&.&.&.>.8.k m &.&.&.&.-.&.%.=.&.&.&.&.&.&.&.&.&.&.&.&.&.%.O.Q ",
"&.&.&.&.,.7.u m &.&.=.&.-.o.Q o.&.&.&.&.&.&.&.&.&.&.&.P @.-.&.&.&.&.&.&.>.8.k m &.&.&.&.R %.=.%.&.&.&.&.&.&.&.&.&.&.&.&.&.&.&.@.",
"%.*.%.*.,.8.u m &.&.&.Q o.G m X.Q %.&.&.&.&.&.&.&.O.W @.&.&.&.&.&.&.&.&.>.7.y m &.&.&.@.W @.%.=.&.&.&.&.&.&.&.&.&.&.&.&.&.&.&.&.",
"*.%.*.*.,.7.u m &.&.&.&.P ; 9 v +.%.%.-.&.&.&.&.#.&.&.&.&.&.&.&.&.&.&.&.>.0.u N &.&.&.U @.! } @.&.&.&.&.&.&.&.&.&.&.&.&.&.&.&.&.",
"%.*.#.*.,.7.u m &.&.&.&.] v 9 i Q *.-.%.&.&.&.&.&.*.&.&.&.&.&.&.&.&.&.&.>.8.u m &.&.@.R %.] ^ @.&.&.&.&.&.&.&.&.&.&.&.&.&.&.&.&.",
"*.%.*.#.,.7.u m &.&.&.&.R ] P i P =.%.&.&.&.&.&.&.&.&.&.&.&.&.&.&.&.&.&.-.8.k 2 U P R X.&.%.@.%.&.&.&.&.&.&.&.&.&.&.&.&.&.&.&.&.",
"%.*.%.*.,.7.u m &.&.&.&.%.%.@.Q @.W o.%.&.&.&.&.*.#.&.*.&.&.&.&.&.&.&.*.>.0.u   e R X.&.&.&.&.&.&.&.&.&.@.-.&.&.&.%.*.&.&.&.&.&.",
"X.X.X.X.@.3.u j X.O.} O.+._ R ] X.X.X.X.X.X.X.X.O.X.X.O.X.X.X.X.X.X.X.X.&.3.6   ; G ' X.X.X.X.X.X.X.X.X.X.X.O.O.O.X.o.X.X.X.X.X.",
"R R R R R Y : e R R T R T j m R R R R P T ! W T T W T T W R R R R R R R R T =   @ s G R R R R R R R R R R R R R R R R R R R R R ",
"% + % + @ $ X X O @ @ @ @ O @ @ + + = @ @ @ @ @ @ @ @ @ @ @ @ $ @ @ O @ @ $     X @ X @ @ @ @ @ @ @ @ @ @ @ @ @ @ @ @ @ $ O @ @ "
};
