/* XPM */
static char *result[] = {
/* columns rows colors chars-per-pixel */
"64 64 13 1 ",
"  c black",
". c #2F583F",
"X c #715D57",
"o c #945849",
"O c #31AF65",
"+ c #D7835F",
"@ c #A58C85",
"# c #E79685",
"$ c #FFDCB2",
"% c #FEE8DA",
"& c #D5EEF3",
"* c white",
"= c None",
/* pixels */
"================================================================",
"================================================================",
"================================================================",
"================================================================",
"================================================================",
"========================              ==========================",
"======================  oo++++++++oo   =========================",
"====================  o++++++++++++++oo  =======================",
"==================  +++++++++++++++++++++    ===================",
"================  +++++++++++++++++++++++%++ ===================",
"=============== +++++++++++++++++++++++++%o ====================",
"================   o++++++++++++++++++++%%+ ====================",
"================= o+%++++++++++++++++++%%oo+ ===================",
"================= o+%%++++++++o++++o++%%++   ===================",
"================= oo+%%%%o%%%o o%%% %%%++++ ====================",
"================= oo+++++oo     ++o o+o o++ ====================",
"================= ooooo+oo  *    o o oo  oo ====================",
"================= oo   oo  ***          =   ====================",
"================= o ### o  ***    o  *  ========================",
"==================  # o# o ***   o# **  ========================",
"==================  ## # # ***   ## **  ========================",
"==================  #$ $ ## **** $$ *** ========================",
"================== o $$$#$$$    $$o$    ========================",
"================   oo   #$$$$$$$$$$$$$$ ========================",
"=============== $$#  oo  #$$$$     $$$$ ========================",
"============== $$$## o    #$$$ *** $$$ =========================",
"============= $$$$# $ ====  #$ *** $$ ==========================",
"============= $$$# $#  =             ===========================",
"============= $$$# $    .... o## ...  ==========================",
"============= $$##     ......   .OOOOO =========================",
"============== ##oo @ ... .......OO.OOO ========================",
"===============    @&  .. .OOOOOOOO.OOOO =======================",
"=============== @&&& # .  OOOOOOOO. .OOOO ======================",
"================    ###   OOOOOO     .OO  ======================",
"================= $$###o  OOOOO #$$$#    o =====================",
"================== $$##  .OOOO  $$$$$o   $ =====================",
"=================== $#   OOOOO  $$$$$# @ $$ ====================",
"====================    OOOOOO  $$$$$$ & $$ ====================",
"======================= ..OOOOO $$$$$$ & ## ====================",
"====================== OOO..... #$$$$$ & ## ====================",
"======================    OOOOOO #$$$$ @   =====================",
"====================  XXXX              ========================",
"===================  X@@@@X@@X@&@X    ==========================",
"==================  @@&&&@XX@X@@@@XX  ==========================",
"================== @&&&&@ XXXXX@@@@@X ==========================",
"================= @@&&&@X      @&&@@X ==========================",
"================ X@@@@XXXX   X@&&&&@X ==========================",
"================ XXXXXXX      @&&&&&@  =========================",
"=============== X@XXXX     == @&&&&&&  =========================",
"=============== @@@@X   ===== X&&&&&&  =========================",
"=============== @@@@XX ======= @&&&&&   ========================",
"=============== @@@X@X ======= X@&@@@XX& =======================",
"=============== @@@X@X  ======= X@@@@X@@& ======================",
"============== X@@@X@XX ======= XXXXXXX@&@ =====================",
"============== @XXXX@XX =======  XXXXXXX@@  ====================",
"=============   @@XXXXXX =======  XXXXXXXX@@  ==================",
"============ @*@  @@@@@X ======== XXXXXXXXXXX ==================",
"=========== ****@@       ========= XXXXX      ==================",
"=========== *******@@*@ ========== X         @ =================",
"============            ===========   @*****@@ =================",
"==================================== @*******@ =================",
"=====================================          =================",
"================================================================",
"================================================================"
};
