/* XPM */
static char *result[] = {
/* columns rows colors chars-per-pixel */
"64 64 13 1 ",
"  c black",
". c #2F583F",
"X c #715D57",
"o c #945849",
"O c #31AF65",
"+ c #D7835F",
"@ c #A58C85",
"# c #E79685",
"$ c #FFDCB2",
"% c #FEE8DA",
"& c #D5EEF3",
"* c white",
"= c None",
/* pixels */
"================================================================",
"================================================================",
"================================================================",
"========================           =============================",
"======================  o+++++++oo   ===========================",
"====================  ++++++++++++++o  =========================",
"=================== +++++++++++++++++++ ========================",
"===============    +++++++++++++++++++++ =======================",
"=============== ++++++++++++++++++++++++% ======================",
"================  %++++++++++++++++++++%%+ =====================",
"================ o%%++++++++++++++++++%%++ =====================",
"================ o+%%%%%o%%%+o+%%%o%%%+++++ ====================",
"================ oo+o+++oo++o  +++ +++++o++ ====================",
"================ oooo+++oo    o +o o+o ++ + ====================",
"================ ooooo+oo  *    o o oo o++  ====================",
"================= o   oo  ***           o+ =====================",
"=================  ### o  ***    o  *    o =====================",
"=================  # o# o ***   o# **  ==  =====================",
"================== ## # # ***   ## **  =========================",
"================== #$ $ ## **** $$ *** =========================",
"==================  $$$#$$$    $$o$    =========================",
"================== o   #$$$$$$$$$$$$$$ =========================",
"================   o oo #$$$$ $$$$$$$$ =========================",
"=============== $$$      #$$$$    $$$ ==========================",
"============== $$$## ====  #$$$$$$$$ ===========================",
"============= $$$$# $ ====          ============================",
"============= $$$# $#       o##      ===========================",
"============= $$## $    ...    ...... ==========================",
"============= $###    ....OO.......OOO =========================",
"=============  ##oo  ....OOOOOOOO...OOO ========================",
"==============     @  .. OOOOOO     ..   =======================",
"============== @@@& # .. OOOOO #$$$#  ooo ======================",
"===============    ### . OOOO  $$$$$o  #$  =====================",
"================ $$###o  OOOO  $$$$$# @ $$ =====================",
"================= $$##  .OOOO  $$$$$$ & $$ =====================",
"================== $#   OOOOOO $$$$$$ & ## =====================",
"===================   = ..OOO. #$$$$$ & ## =====================",
"====================== .OO..... #$$$$ @   ======================",
"====================== ...OOOOO.        ========================",
"=====================        ....... ===========================",
"====================  X@@XXXX    .... ==========================",
"=================== XX@&&@X@X@@@X     ==========================",
"================== @@@&&@ X@X@@@@XX  ===========================",
"================= @@@&@@@X    &&&@@X ===========================",
"================ @@@@@XXXX   @&&&&@X  ==========================",
"================ @@XXXXXX    X@&&&&X  ==========================",
"================ @XXXX   ==== @&&&&@  ==========================",
"=============== @@@X    ===== X&&&&@X ==========================",
"=============== @@@X@X ======= @&&&@X  =========================",
"=============== @@@X@X ======= @&&&@X  =========================",
"=============== @@@X@X ======= X@@@@X@& ========================",
"=============== @@@X@XX ======= X@@XX@& ========================",
"============== X@@@X@XX ======= XXXXXX@& =======================",
"============== @XXXX@XX ======== XXXXXX@@  =====================",
"============== @@XXXXXXX ======= XXXXXXXX@  ====================",
"=============    @@@@@@X ======== XXXXXXXXX  ===================",
"============ @**@        ========  XXXXXXXXX  ==================",
"=========== *****@@     ========== XXXX       ==================",
"=========== ********@*@ ===========      @@@@  =================",
"===========            ============  @@*****@@ =================",
"=================================== @@******@ ==================",
"====================================         ===================",
"================================================================",
"================================================================"
};
