/* XPM */
static char *result[] = {
/* columns rows colors chars-per-pixel */
"64 64 13 1 ",
"  c black",
". c #2F583F",
"X c #715D57",
"o c #945849",
"O c #31AF65",
"+ c #D7835F",
"@ c #A58C85",
"# c #E79685",
"$ c #FFDCB2",
"% c #FEE8DA",
"& c #D5EEF3",
"* c white",
"= c None",
/* pixels */
"================================================================",
"================================================================",
"================================================================",
"================================================================",
"================================================================",
"========================            ============================",
"======================  oo++++++++oo   =========================",
"====================  o+++++++++++++++o  =======================",
"================    +++++++++++++++++++++  =====================",
"================ +++++++++++++++++++++++%%+  ===================",
"=================  o++++++++++++++++++++%%o+ ===================",
"================= o+%++++++++++++++++++%%++ ====================",
"================= o+%%++++++++++++++++%%+oo+ ===================",
"================= oo+%%%%o%%%+o+%%%o%%++++   ===================",
"================= oo+o+++oo++o  +++ +++++++ ====================",
"================= oooo++ooo     ooo o+o o++ ====================",
"================= ooooo+oo  *    o o oo  oo ====================",
"================== o   oo  ***          =   ====================",
"==================  ### o  ***    o  *  ========================",
"==================  # o# o ***   o# **  ========================",
"=================== ## # # ***   ## **  ========================",
"=================== #$ $ ## **** $$ *** ========================",
"===================  $$$#$$$    $$o$    ========================",
"===============    oo   #$$$$$$$$$$$$$$ ========================",
"============== $$$    oo #$$$$ $$$$$$$$ ========================",
"============= $$$## =     #$$$$    $$$ =========================",
"============= $$$# $ =====  #$$$$$$$$ ==========================",
"============ $$$# ## ==              ===========================",
"============ $$$# #    ....  o## ....  =========================",
"============ $$##     .....O.   OO....  ========================",
"============= ##oo   .....OOOOOO     ..  =======================",
"=============     &  ...O OOOOO #$$$#  .. ======================",
"============== @@& ## .OO OOOO  $$$$$o    ======================",
"==============    #### O  OOOO  $$$$$# & # =====================",
"=============== $$###oo   OOOO  #$$$$$ & $ =====================",
"================ $$$#oo  .OOOOO #$$$$$ & $ =====================",
"================= $$oo   OOOOOO ##$$$$ & $ =====================",
"==================    =  OOOOO.. #$$$$ @ # =====================",
"======================  ....OO...         ======================",
"======================  .OOO........ ===========================",
"===================== XX    OOOOOO... ==========================",
"===================  X@@@XXX       .. ==========================",
"==================  X@@&&@X@XXXXXXX   ==========================",
"================= @&&&&&  X@X@@@@XX  ===========================",
"================ @&&&&@@@      &&@@X  ==========================",
"================ @@@@XXXXX    @&&&@XX ==========================",
"=============== @XXXXXXX     X@&&&&@X ==========================",
"=============== @@@X      === @&&&&&X ==========================",
"=============== @@@XX   ===== X&&&&&X  =========================",
"=============== @@@X@X ======= @&&&&X  =========================",
"=============== @@@X@XX ====== @@@@@X   ========================",
"=============== @@@X@XX ====== X@@@XX@  ========================",
"=============== @@@X@XX ======= XXXXX@&& =======================",
"============== XXX@X@XX =======  XXXXX@@&  =====================",
"============== @@@XXXXXX ======= XXXXXXXX@X ====================",
"=============    @@@@@@X ======== XXXXXXXXXX ===================",
"============ @*@         ======== XXXXXXXXX   ==================",
"=========== ****@@@@@   ========== XXXXX       =================",
"=========== ********@*@ ==========  X    @@@@  =================",
"===========            ============  @@******@ =================",
"=================================== @@*******  =================",
"====================================          ==================",
"================================================================",
"================================================================"
};
