/* XPM */
static char *result[] = {
/* columns rows colors chars-per-pixel */
"64 64 13 1 ",
"  c black",
". c #2F583F",
"X c #715D57",
"o c #945849",
"O c #31AF65",
"+ c #D7835F",
"@ c #A58C85",
"# c #E79685",
"$ c #FFDCB2",
"% c #FEE8DA",
"& c #D5EEF3",
"* c white",
"= c None",
/* pixels */
"================================================================",
"================================================================",
"================================================================",
"================================================================",
"================================================================",
"================================================================",
"====================================  ==========================",
"=========================           o ==========================",
"=======================  o++++++++ooo  ==   ====================",
"====================== +++++++++++++++o  ++ ====================",
"=================  == ++++++++++++++++++++    ==================",
"================= +  +++++++++++++++++++++%++ ==================",
"================= +++++++++++++++++++++++%%++ ==================",
"==================  %%+++++++++++++++++%%%++ ===================",
"================== o%%%%%++%%%%+++%%o%%%%+o++ ==================",
"================== o+%%%%%o%%%+ +%%%o%%%+++   ==================",
"================== oo+o+++oo++o  +++ o+++o++ ===================",
"================== oooo+++oo    o +o  oo oo++ ==================",
"================== ooooo+oo  *    o          ===================",
"=================== o   oo  ***          =======================",
"===================  ### o  ***    o  *  =======================",
"===================  # o# o ***   o# **  =======================",
"==================== ## # # ***   ## **  =======================",
"===================  #$ $ ## **** $$ *** =======================",
"================== oo $$$#$$$    $$o$    =======================",
"===================      #$$$$$$$$$$$$$$ =======================",
"===================== ooo #$$$$     $$$$ =======================",
"===============     =      #$$$ *** $$$ ========================",
"============== $$$$  ====    #$ *** $$ =========================",
"============== $$$# # == ..           ==========================",
"============= $$$$ ##   OO..  oo  ...  =========================",
"============= $$$# o   OOOO...   ....OO ========================",
"============= $$$#o   .OO.OO........OOOO =======================",
"============= $$##o   .OO OOOOOOOOO..OOOO ======================",
"============== ##o    .O. OOOOOO      OO  ======================",
"==============     & # .. OOOOO  #$$$#  oo =====================",
"=============== @&& ### . OOOO # $$$$$o  # =====================",
"================   ###oo .OOOO # $$$$$# @ $ ====================",
"==================  #oo  OOOOO # $$$$$$ & $ ====================",
"===================     ......   $$$$$$ & $ ====================",
"=====================  ..OOOOOOO #$$$$$ & $ ====================",
"======================         .  #$$$$ @  =====================",
"=====================  X@X                ======================",
"==================== X@@@@XX@X@&@X    ==========================",
"=================== @@&&&@XX@X@@@@XX  ==========================",
"================== @&&&&@   XXX@@@@@X ==========================",
"================= @&&&@@XXX    @&&@@X ==========================",
"================ X@@@@@XXX   X&&&&&@X ==========================",
"================ XXXXXX       @&&&&&X ==========================",
"================ @XX     ==== @&&&&&X  =========================",
"=============== @@@@X@X ===== X&&&&&@  =========================",
"=============== @@@@X@X ====== @&&&&@ X  =======================",
"=============== @@@@X@X ====== X@&&@@X@&  ======================",
"============== XX@@XX@X ======= X@@@XXX@&  =====================",
"============== @XXXX@@X ======= XXXXXXXX@@@ ====================",
"=============   @@XXXXXX ======= XXXXXXXXX@@ ===================",
"============ @@   @@@@@X =======  XXXXXXXXXX  ==================",
"=========== ***@         ======== XXXXXXXX     =================",
"=========== ********@*@ ========== XX          =================",
"===========             ===========   @*****@  =================",
"===================================  @*******@ =================",
"=====================================          =================",
"================================================================",
"================================================================"
};
