/* XPM */
static char *result[] = {
/* columns rows colors chars-per-pixel */
"64 64 13 1 ",
"  c black",
". c #2F583F",
"X c #715D57",
"o c #945849",
"O c #31AF65",
"+ c #D7835F",
"@ c #A58C85",
"# c #E79685",
"$ c #FFDCB2",
"% c #FEE8DA",
"& c #D5EEF3",
"* c white",
"= c None",
/* pixels */
"================================================================",
"================================================================",
"================================================================",
"================================================================",
"================================================================",
"==========================              ========================",
"========================  oo++++++++oo   =======================",
"======================  o+++++++++++++++o  =====================",
"====================  +++++++++++++++++++++    =================",
"==================  +++++++++++++++++++++++%++ =================",
"================= +++++++++++++++++++++++++%o ==================",
"==================   o++++++++++++++++++++%%+ ==================",
"=================== o+%++++++++++++++++++%%oo+ =================",
"=================== o+%%++++++++o++++o++%%++   =================",
"=================== oo+%%%%o%%%o o%%% %%%++++ ==================",
"=================== oo+++++oo     ++o o+o o++ ==================",
"=================== ooooo+oo  *    o o oo  oo ==================",
"=================== oo   oo  ***          =   ==================",
"=================== o ### o  ***    o  *  ======================",
"====================  # o# o ***   o# **  ======================",
"====================  ## # # ***   ## **  ======================",
"====================  #$ $ ## **** $$ *** ======================",
"==================== o $$$#$$$    $$o$    ======================",
"=================   ooo   #$$$$$$$$$$$$$$ ======================",
"================ $$$   oo  #$$$$     $$$$ ======================",
"=============== $$$$$    =  #$$$ *** $$$ =======================",
"============== $$$$##  ====   #$ *** $$ ========================",
"============== $$$## $ ==              =========================",
"============== $$## $#   .O... o## ..  =========================",
"============== $### #   .OOOO..   ...OO ========================",
"=============== ##o    ..O.OOO.....OOOOO =======================",
"===============    @   ... OOOOOOOOO.OOOO ======================",
"=============== @@@& #  .. OOOOOOOOO .OOO  =====================",
"================    ### .. OOOOOO      .O  =====================",
"================= $$####  .OOOOO  #$$$#  # =====================",
"================== $$###  OOOOO # $$$$$o ## ====================",
"=================== $##   OOOOO # $$$$$#  $ ====================",
"====================   = OOOOOO # $$$$$$  $ ====================",
"======================== ....OO   $$$$$$  $ ====================",
"======================= .OOOO.... #$$$$$  $ ====================",
"======================       OOOO. #$$$$   =====================",
"=====================  XXXXX              ======================",
"===================== X@@@@X@XX@&@X    =========================",
"==================== @@&&&@X@XX@@@@XX  =========================",
"=================== @&&&&@  XXXX@@@@@X =========================",
"================== @@&&@@XX     @&&@@X =========================",
"================= X@@@@XXX    X@&&&&@X =========================",
"================= XXXXXXX      @&&&&@X  ========================",
"================ X@XX      === @&&&&&X  ========================",
"================ @@@@XX  ===== X&&&&&@  ========================",
"================ @@@@XX ======= @&&&&@ X =======================",
"================ @@@@XX ======= X&&&@@ X& ======================",
"=============== X@@@@XX  ====== XX&@@X @@& =====================",
"=============== X@@@X@XX ======= XXXXXXX@&@ ====================",
"============== @XXX@X@XX ======= XXXXXXXX@@  ===================",
"=============   @@@XXXXX ======== XXXXXXXX@@ ===================",
"============ @*@  @@@@@X ======== XXXXXXXXXXX ==================",
"=========== ****@@       ========= XXXXXX     ==================",
"=========== *******@@*@ ========== X           =================",
"============            ===========   @*****@@ =================",
"==================================== @*******@ =================",
"=====================================          =================",
"================================================================",
"================================================================"
};
