/* XPM */
static char *result[] = {
/* columns rows colors chars-per-pixel */
"64 64 13 1 ",
"  c black",
". c #2F583F",
"X c #715D57",
"o c #945849",
"O c #31AF65",
"+ c #D7835F",
"@ c #A58C85",
"# c #E79685",
"$ c #FFDCB2",
"% c #FEE8DA",
"& c #D5EEF3",
"* c white",
"= c None",
/* pixels */
"================================================================",
"================================================================",
"================================================================",
"============================          ==========================",
"==========================  o+++++++oo   =======================",
"========================  ++++++++++++++o  =====================",
"======================= +++++++++++++++++++ ====================",
"===================    +++++++++++++++++++++ ===================",
"=================== +++++++++++++++++++++++++ ==================",
"====================  %++++++++++++++++++++%++ =================",
"==================== o%%++++++++++++++++++%%+  =================",
"==================== o+%%%%%o%%%+o+%%%o%%%++++ =================",
"==================== oo+o+++oo++o  +++ +++++ + =================",
"==================== oooo+++oo    o +o o+o o+  =================",
"==================== ooooo+oo  *    o o oo o+ ==================",
"===================== o   oo  ***           o ==================",
"=====================  ### o  ***    o  *  =  ==================",
"=====================  # o# o ***   o# **  =====================",
"====================== ## # # ***   ## **  =====================",
"====================== #$ $ ## **** $$ *** =====================",
"====================== #$$$#$$$    $$o$    =====================",
"======================     #$$$$$$$$$$$$$$ =====================",
"==================     o oo #$$$$ $$$$$$$$ =====================",
"================= $$$   =    #$$$$    $$$ ======================",
"================ $$$$$ ======  #$$$$$$$$ =======================",
"=============== $$$$##  ===             ========================",
"=============== $$$## $    ... o##    ==========================",
"=============== $$## $#  .....O   ....  ========================",
"=============== $### $  ....OOOOOOO.OOO. =======================",
"===============  ##o   ....OOOOOOOO..OOOO ======================",
"================    @   .. OOOOOOOO     .  =====================",
"================ @@@& # .. OOOOOO  #$$$# oo ====================",
"=================    ### . OOOOO # $$$$$o #  ===================",
"================== $$###o  OOOOO # $$$$$#  $ ===================",
"=================== $$##  .OOOOO # $$$$$$  $ ===================",
"==================== $#   OOOOOO   $$$$$$  $ ===================",
"=====================   = ..OOOO.. #$$$$$  $ ===================",
"======================== .OO....... #$$$$   ====================",
"======================== ...OOOOOOO.       =====================",
"=======================        ....... =========================",
"======================  X@@XXXX    .... ========================",
"===================== XX@&&@X@X@@@X     ========================",
"==================== @@@&&@ X@X@@@@XX  =========================",
"=================== @@@&@@@X    &&&@@X =========================",
"================== @@@@@@XXX   @&&&&@X =========================",
"================== @@@@XXXX    X@&&&&X =========================",
"=================  @XXXXX  ==== @&&&&@  ========================",
"================= @@@XX   ===== X&&&&@  ========================",
"================= @@@X   ====== X@&&&@  ========================",
"================= @@@XXX ======= X@@@@ X =======================",
"================= @@@X@X ======= X@@@@ X =======================",
"================ @@@@X@X ======= XX@@XX@& ======================",
"================ X@@@X@XX ====== XXXXXXX@& =====================",
"=============== X@XXXX@XX ======= XXXXXXX@@ ====================",
"============== X@@@XXXXXX ======= XXXXXXXXX@ ===================",
"=============    @@@@@@X ======== XXXXXXXXXX ===================",
"============ @**@        ========= XXXXXXXXX  ==================",
"=========== *****@@     ========== XXXXX      ==================",
"=========== ********@*@ ===========      @@@@@ =================",
"============           ============  @@******  =================",
"==================================== @******  ==================",
"====================================         ===================",
"================================================================",
"================================================================"
};
