/* XPM */
static char *result[] = {
/* columns rows colors chars-per-pixel */
"64 64 13 1 ",
"  c black",
". c #2F583F",
"X c #715D57",
"o c #945849",
"O c #31AF65",
"+ c #D7835F",
"@ c #A58C85",
"# c #E79685",
"$ c #FFDCB2",
"% c #FEE8DA",
"& c #D5EEF3",
"* c white",
"= c None",
/* pixels */
"================================================================",
"================================================================",
"================================================================",
"================================================================",
"================================================================",
"==========================            ==========================",
"========================  oo++++++++oo   =======================",
"======================  o+++++++++++++++o  =====================",
"==================    +++++++++++++++++++++  ===================",
"================== ++++++++++++++++++++++++%+  =================",
"===================  o++++++++++++++++++++%%o+ =================",
"=================== o+%++++++++++++++++++%%++ ==================",
"=================== o+%%+++++++++++++++%%%+oo+ =================",
"=================== oo+%%%%o%%%+o+%%%o%%++++   =================",
"=================== oo+o+++oo++o  +++ ++++++ ===================",
"=================== oooo++ooo     ooo o+o o++ ==================",
"=================== ooooo+oo  *    o o oo  oo ==================",
"==================== o   oo  ***          =   ==================",
"====================  ### o  ***    o  *  ======================",
"====================  # o# o ***   o# **  ======================",
"===================== ## # # ***   ## **  ======================",
"===================== #$ $ ## **** $$ *** ======================",
"====================   $$$#$$$    $$o$    ======================",
"=================    oo   #$$$$$$$$$$$$$$ ======================",
"================ $$#    oo #$$$$ $$$$$$$$ ======================",
"=============== $$$##  =    #$$$$    $$$ =======================",
"=============== $$$##  ===    #$$$$$$$$ ========================",
"============== $$$## $ =  ..           =========================",
"============== $$$# $#  ..... o## ...   ========================",
"============== $$## $  ......O   OO....O =======================",
"==============  ##o   ......OOOOOO     OO ======================",
"===============    @   ... .OOOO  #$$$# OO =====================",
"=============== @@@& ## .. OOOO # $$$$$o    ====================",
"================    #### . OOOO # $$$$$# $$ ====================",
"================= $$$###   OOOO # $$$$$$  $$ ===================",
"================== $$$##  OOOOO   $$$$$$  $$ ===================",
"=================== $$$   OOOOOOO #$$$$$  $$ ===================",
"====================      OOOOOOOO #$$$$  $$ ===================",
"======================== ....OOOOOO         ====================",
"=======================  OOOO......... =========================",
"====================== XX    OOOOOO... =========================",
"====================   X@@XXX        .. ========================",
"===================  @@@&&@X@XXXXXX     ========================",
"================== @@&&&&X X@X@@@@XXX  =========================",
"================= X@&&&@@XX     &&@@X  =========================",
"================ X@@@@XXXXX    @&&&@XX =========================",
"================ @@XXXXX      X@&&&&@X =========================",
"================ @@@X      === @&&&&&X =========================",
"================ @@@XX   ===== X&&&&@X  ========================",
"================ @@@X@X ======= @&&@@X  ========================",
"================ @@@X@XX ====== @@@@@X   =======================",
"================ @@@XX@X ======  X@XXX   =======================",
"=============== @@@@XX@X ======= XXXXX@&& ======================",
"=============== XXX@XX@X ======= XXXXXX@@&  ====================",
"============== @@@XXXXXX ======= XXXXXXXX@X ====================",
"=============    @@@@@XX ======== XXXXXXXXXX ===================",
"============ @*@         ======== XXXXXXXXX   ==================",
"=========== ****@@@@    ========== XXXXXX      =================",
"=========== ********@*@ ==========  X    @@@@  =================",
"===========            ============  @@******@ =================",
"=================================== @@*******  =================",
"====================================          ==================",
"================================================================",
"================================================================"
};
