/* XPM */
static char *result[] = {
/* columns rows colors chars-per-pixel */
"64 64 154 2 ",
"   c black",
".  c #010102",
"X  c #030305",
"o  c #040407",
"O  c #060609",
"+  c #07070B",
"@  c #08080C",
"#  c #0A090E",
"$  c #0C0B10",
"%  c #0D0C11",
"&  c #0F0E14",
"*  c #0F0F15",
"=  c #111017",
"-  c #12131B",
";  c #14151E",
":  c #141520",
">  c #141722",
",  c #141823",
"<  c #161A26",
"1  c #171C29",
"2  c #1C2030",
"3  c #1F2234",
"4  c #1F2A3E",
"5  c #232335",
"6  c #232538",
"7  c #222639",
"8  c #20283B",
"9  c #3D2F3B",
"0  c #3A2F3D",
"q  c #572A2F",
"w  c #512E2F",
"e  c #552B30",
"r  c #592D31",
"t  c #4A3137",
"y  c #41303B",
"u  c #453139",
"i  c #62383D",
"p  c #1E2D41",
"a  c #1E3045",
"s  c #2F3347",
"d  c #203248",
"f  c #23364D",
"g  c #26364E",
"h  c #2B354B",
"j  c #28364D",
"k  c #663B40",
"l  c #693D42",
"z  c #244B67",
"x  c #244C69",
"c  c #234F6C",
"v  c #2C4D6A",
"b  c #30526E",
"n  c #235675",
"m  c #235D7E",
"M  c #3D5776",
"N  c #29687F",
"B  c #2C6D7C",
"V  c #2F727F",
"C  c #6F4142",
"Z  c #754243",
"A  c #774744",
"S  c #7C4944",
"D  c #4A5B7B",
"F  c #575D7E",
"G  c #615F7F",
"H  c #63607E",
"J  c #69627D",
"K  c #7C6575",
"L  c #71647A",
"P  c #9F3E4E",
"I  c #B62A57",
"U  c #B02F55",
"Y  c #BA2759",
"T  c #BC275A",
"R  c #BD275B",
"E  c #B82858",
"W  c #A83752",
"Q  c #A43950",
"!  c #C23761",
"~  c #824A45",
"^  c #894C45",
"/  c #98474B",
"(  c #914F48",
")  c #944D49",
"_  c #8C6569",
"`  c #946664",
"'  c #9A6762",
"]  c #AC6E61",
"[  c #B37161",
"{  c #B87362",
"}  c #C14665",
"|  c #C65E67",
" . c #CB6F6B",
".. c #C07865",
"X. c #C57B68",
"o. c #D07B6F",
"O. c #D17F6F",
"+. c #CC806C",
"@. c #D48571",
"#. c #235F80",
"$. c #256381",
"%. c #266581",
"&. c #317582",
"*. c #327783",
"=. c #347885",
"-. c #377A89",
";. c #3A7F8E",
":. c #5B5E80",
">. c #5C5E80",
",. c #3C8390",
"<. c #3F8793",
"1. c #468EA0",
"2. c #4990A6",
"3. c #4991A8",
"4. c #4A92AB",
"5. c #4F95B6",
"6. c #4F96B7",
"7. c #539CB5",
"8. c #56A4B5",
"9. c #60B5B4",
"0. c #6CB7B5",
"q. c #63B9B4",
"w. c #64B9B4",
"e. c #7CB1B7",
"r. c #87A2B0",
"t. c #92A4B3",
"y. c #97A4B5",
"u. c #A0A6B8",
"i. c #A3A8BA",
"p. c #ABABBD",
"a. c #ACABBC",
"s. c #DFA4A9",
"d. c #E4A5A5",
"f. c #E9A8A2",
"g. c #EDAEA6",
"h. c #F0B3A9",
"j. c #F1BBAE",
"k. c #F4C1B1",
"l. c #F6C9B5",
"z. c #F7CEB8",
"x. c #CFCDCC",
"c. c #C6CFD2",
"v. c #C4D1D5",
"b. c #CCE1E2",
"n. c #CFE7E7",
"m. c #D5F4F2",
"M. c #D7F4F2",
"N. c #D9F4F2",
"B. c #EFF4F1",
"V. c #F3F4F1",
"C. c #FBF6F4",
"Z. c #FEFEFE",
"A. c white",
"S. c None",
/* pixels */
"S.S.S.S.S.S.S.S.S.S.S.S.S.S.S.S.S.S.S.S.S.S.S.S.S.S.S.S.S.S.S.S.S.S.S.S.S.S.S.S.S.S.S.S.S.S.S.S.S.S.S.S.S.S.S.S.S.S.S.S.S.S.S.S.",
"S.S.S.S.S.S.S.S.S.S.S.S.S.S.S.S.S.S.S.S.S.S.S.S.S.S.S.S.S.S.S.S.S.S.S.S.S.S.S.S.S.S.S.S.S.S.S.S.S.S.S.S.S.S.S.S.S.S.S.S.S.S.S.S.",
"S.S.S.S.S.S.S.S.S.S.S.S.S.S.S.S.S.S.S.S.S.S.S.S.S.S.S.S.S.S.S.S.S.S.S.S.S.S.S.S.S.S.S.S.S.S.S.S.S.S.S.S.S.S.S.S.S.S.S.S.S.S.S.S.",
"S.S.S.S.S.S.S.S.S.S.S.S.S.S.S.S.S.S.S.S.S.S.S.S.S.S.S.S.S.S.S.S.S.S.S.S.S.S.S.S.S.S.S.S.S.S.S.S.S.S.S.S.S.S.S.S.S.S.S.S.S.S.S.S.",
"S.S.S.S.S.S.S.S.S.S.S.S.S.S.S.S.S.S.S.S.S.S.S.S.S.S.S.S.S.S.S.S.S.S.S.S.S.S.S.S.S.S.S.S.S.S.S.S.S.S.S.S.S.S.S.S.S.S.S.S.S.S.S.S.",
"S.S.S.S.S.S.S.S.S.S.S.S.S.S.S.S.S.S.S.S.S.S.S.S.S.S.S.S.S.S.S.S.S.S.S.S.S.S.S.S.S.S.S.S.S.S.S.S.S.S.S.S.S.S.S.S.S.S.S.S.S.S.S.S.",
"S.S.S.S.S.S.S.S.S.S.S.S.S.S.S.S.S.S.S.S.S.S.S.S.S.S.S.S.S.S.S.S.S.S.S.S.S.S.S.S.S.S.S.S.S.S.S.S.S.S.S.S.S.S.S.S.S.S.S.S.S.S.S.S.",
"S.S.S.S.S.S.S.S.S.S.S.S.S.S.S.S.S.S.S.S.S.S.S.S.S.S.S.S.S.S.S.S.S.S.S.S.S.S.S.S.S.S.S.S.S.S.S.S.S.S.S.S.S.S.S.S.S.S.S.S.S.S.S.S.",
"S.S.S.S.S.S.S.S.S.S.S.S.S.S.S.S.S.S.S.S.S.S.S.S.S.4 s s   S.S.S.S.S.S.S.S.S.S.S.S.S.S.S.S.S.S.S.S.S.S.S.S.S.S.S.S.S.S.S.S.S.S.S.",
"S.S.S.S.S.S.S.S.S.S.S.S.S.S.S.S.S.S.S.S.S.S.S.S.b 7.a.F 5       S.S.  + % s   S.S.S.S.S.S.S.S.S.S.S.S.S.S.S.S.S.S.S.S.S.S.S.S.S.",
"S.S.S.S.S.S.S.S.S.S.S.S.S.S.S.S.S.S.S.S.S.S.S.- r.a.= a.5 7 7     % %   >.>.a.s S.S.S.S.S.S.S.S.S.S.S.S.S.S.S.S.S.S.S.S.S.S.S.S.",
"S.S.S.S.S.S.S.S.S.S.S.S.S.S.S.S.S.S.S.S.S.S.  v v 7 a.r.>.< a *.1.q.q.1.4 f y.y.& S.S.S.S.S.S.S.S.S.S.S.S.S.S.S.S.S.S.S.S.S.S.S.",
"S.S.S.S.S.S.S.S.S.S.S.S.S.S.S.S.S.S.S.S.S.S.  > v >.r.r.F z 1.9.q.q.q.q.q.1.-.:.  S.  _ _ _ w S.S.S.S.S.S.S.S.S.S.S.S.S.S.S.S.S.",
"S.S.S.S.S.S.S.S.S.S.S.S.S.S.S.S.S.S.S.S.S.S.  7 D ; >.a.3.q.q.q.q.q.q.q.q.q.9.d       l z.z.k.- S.S.S.S.S.S.S.S.S.S.S.S.S.S.S.S.",
"S.S.S.S.S.S.S.S.S.S.S.S.S.S.S.S.S.S.S.S.S.  7     >.>.d q.q.q.q.q.q.q.q.*.q.q.*.    j.z.u z.z.z.  S.S.S.S.S.S.S.S.S.S.S.S.S.S.S.",
"S.S.S.S.S.S.S.S.S.S.S.S.S.S.S.S.S.S.S.S.S.  7 4 >.>.6 q.q.q.q.q.q.q.i.5.O q.q.q.6   j.6 u z.z.z.  S.S.S.S.S.S.S.S.S.S.S.S.S.S.S.",
"S.S.S.S.S.S.S.S.S.S.S.S.S.S.S.S.S.S.S.S.S.g     > 4.6.q.q.q.e.a.a.p.0.G O 7.m.w.6.  3 T Y y ^ z.  S.S.S.S.S.S.S.S.S.S.S.S.S.S.S.",
"S.S.S.S.S.S.S.S.S.S.S.S.S.S.S.S.S.S.S.S.S.%.  : z q.m.m.m.m.m.m.e.*.0 @.@., c.m.m.      0 @.f.-   S.S.S.S.S.S.S.S.S.S.S.S.S.S.S.",
"S.S.S.S.S.S.S.S.S.S.S.S.S.S.S.S.S.S.S.S.S.%.  : z q.q.q.q.8.2.b 0 ; @.d.l.5 ,.c.b.  z x #.1 +   S.S.S.S.S.S.S.S.S.S.S.S.S.S.S.S.",
"S.S.S.S.S.S.S.S.S.S.S.S.S.S.S.S.S.S.S.S.S.%.g % z 1.q.q.1.z z   ' f.f.z.z.' 8 1.q.  f g z ;.1 S.S.S.S.S.S.S.S.S.S.S.S.S.S.S.S.S.",
"S.S.S.S.S.S.S.S.S.S.S.S.S.S.S.S.S.S.S.S.S.%.*.B &.*.*.*.f #  .g.g.A z.z.S g.' B *.2 #.#.f   S.S.S.S.S.S.S.S.S.S.S.S.S.S.S.S.S.S.",
"S.S.S.S.S.S.S.S.S.S.S.S.S.S.S.S.S.S.S.S.S.X *.*.*.*.*.*.  @.z.z.z.z.z.) z.z...B *.2 #.#.4.  S.S.S.S.S.S.S.S.S.S.S.S.S.S.S.S.S.S.",
"S.S.S.S.S.S.S.S.S.S.S.S.S.S.S.S.S.S.S.S.S.  *.*.*.*.*.*.5 z.z.z.z.z.z.z.z.z...B *.2 #.5.  S.S.S.S.S.S.S.S.S.S.S.S.S.S.S.S.S.S.S.",
"S.S.S.S.S.S.S.S.S.S.S.S.S.S.S.S.S.S.S.S.S.  *.*.*.*.*.*.5 @.z.z.z.# u.u.% z...B   #.5.$.  S.S.S.S.S.S.S.S.S.S.S.S.S.S.S.S.S.S.S.",
"S.S.S.S.S.S.S.S.S.S.S.S.S.S.S.S.S.S.S.S.S.  *.*.*.*.*.*.5 @.z.z.z.# A.Z.& z...B . V 5.  S.S.S.S.S.S.S.S.S.S.S.S.S.S.S.S.S.S.S.S.",
"S.S.S.S.S.S.S.S.S.S.S.S.S.S.S.S.S.S.S.S.S.  *.v z *.*.*.B O.l.z.z.# B.L z.z...X #.&.s S.S.S.S.S.S.S.S.S.S.S.S.S.S.S.S.S.S.S.S.S.",
"S.S.S.S.S.S.S.S.S.S.S.S.S.S.S.S.S.S.S.S.S.  x   z *.*.<.B A +.k.z.] ] z.z.` z d #.4.3 S.S.S.S.S.S.S.S.S.S.S.S.S.S.S.S.S.S.S.S.S.",
"S.S.S.S.S.S.S.S.S.S.S.S.S.S.S.S.S.S.S.S.S.    S.z 1 *.q.B   > w w w w w w O > z 4.;.S.S.S.S.S.S.S.S.S.S.S.S.S.S.S.S.S.S.S.S.S.S.",
"S.S.S.S.S.S.S.S.S.S.S.S.S.S.S.S.S.S.S.S.S.S.S.S.    q.q.    #.#.& @.@.z.O.    # 5.- S.S.S.S.S.S.S.S.S.S.S.S.S.S.S.S.S.S.S.S.S.S.",
"S.S.S.S.S.S.S.S.S.S.S.S.S.S.S.S.S.S.S.S.S.S.S.S.S.  q.  #.#.1 1 1 1 1 1 1 1 = ! &   S.S.S.S.S.S.S.S.S.S.S.S.S.S.S.S.S.S.S.S.S.S.",
"S.S.S.S.S.S.S.S.S.S.S.S.S.S.S.S.S.S.S.S.S.S.S.S.S.    7 d v.5.=.5.5.5.5.5.5.b ! & n S.S.S.S.S.S.S.S.S.S.S.S.S.S.S.S.S.S.S.S.S.S.",
"S.S.S.S.S.S.S.S.S.S.S.S.S.S.S.S.S.S.S.S.S.S.S.S.S.S.  5.5 A.5.;.$.$.5.5.5.4.} q 5.;.S.S.S.S.S.S.S.S.S.S.S.S.S.S.S.S.S.S.S.S.S.S.",
"S.S.S.S.S.S.S.S.S.S.S.S.S.S.S.S.S.S.S.S.S.S.S.S.S.S.  5.5 A.5.;.& #.#.#.#.m } q #.m S.S.S.S.S.S.S.S.S.S.S.S.S.S.S.S.S.S.S.S.S.S.",
"S.S.S.S.S.S.S.S.S.S.S.S.S.S.S.S.S.S.S.S.S.S.S.S.S.S.  &.5 A.5.;.& x #.#.c k C z c   S.S.S.S.S.S.S.S.S.S.S.S.S.S.S.S.S.S.S.S.S.S.",
"S.S.S.S.S.S.S.S.S.S.S.S.S.S.S.S.S.S.S.S.S.S.S.S.S.S.  1 , A.5.;.&   #.7 P 1 g d   S.S.S.S.S.S.S.S.S.S.S.S.S.S.S.S.S.S.S.S.S.S.S.",
"S.S.S.S.S.S.S.S.S.S.S.S.S.S.S.S.S.S.S.S.S.S.S.S.S.S.S.S.  A.5.;.&   #.R > $ #.- S.S.S.S.S.S.S.S.S.S.S.S.S.S.S.S.S.S.S.S.S.S.S.S.",
"S.S.S.S.S.S.S.S.S.S.S.S.S.S.S.S.S.S.S.S.S.S.S.S.S.S.S.  N.5.5.&.&   k 7 B , 5.p S.S.S.S.S.S.S.S.S.S.S.S.S.S.S.S.S.S.S.S.S.S.S.S.",
"S.S.S.S.S.S.S.S.S.S.S.S.S.S.S.S.S.S.S.S.S.S.S.S.S.A A 1 r.g -.p   A t V 5., 5.-.- S.S.S.S.S.S.S.S.S.S.S.S.S.S.S.S.S.S.S.S.S.S.S.",
"S.S.S.S.S.S.S.S.S.S.S.S.S.S.S.S.S.S.S.S.S.S.S.S.i ; = + n 2.= o   = 5 N N o , , X S.S.S.S.S.S.S.S.S.S.S.S.S.S.S.S.S.S.S.S.S.S.S.",
"S.S.S.S.S.S.S.S.S.S.S.S.S.S.S.S.S.S.S.S.S.S.S.w k . l.l.~ % 5.M     . X * | | | |   S.S.S.S.S.S.S.S.S.S.S.S.S.S.S.S.S.S.S.S.S.S.",
"S.S.S.S.S.S.S.S.S.S.S.S.S.S.S.S.S.S.S.S.S.S.. l t j.z.z.l.@.0     U Y R R | ! l 0   S.S.S.S.S.S.S.S.S.S.S.S.S.S.S.S.S.S.S.S.S.S.",
"S.S.S.S.S.S.S.S.S.S.S.S.S.S.S.S.S.S.S.S.S.S.& W   j.z.z.A @...  A ! @.( R T / @.z.  S.S.S.S.S.S.S.S.S.S.S.S.S.S.S.S.S.S.S.S.S.S.",
"S.S.S.S.S.S.S.S.S.S.S.S.S.S.S.S.S.S.S.S.S.S.& W z 8 z.z.~ @.    X.z.z.z.  9 @.z.z.  S.S.S.S.S.S.S.S.S.S.S.S.S.S.S.S.S.S.S.S.S.S.",
"S.S.S.S.S.S.S.S.S.S.S.S.S.S.S.S.S.S.S.S.S.S.& W z #.; 4 4     w @.z.z.z.O ) @.z.g.  S.S.S.S.S.S.S.S.S.S.S.S.S.S.S.S.S.S.S.S.S.S.",
"S.S.S.S.S.S.S.S.S.S.S.S.S.S.S.S.S.S.S.S.S.S.& W z #.#.5.5.O k l g.z.z.f.O ) f.z.& S.S.S.S.S.S.S.S.S.S.S.S.S.S.S.S.S.S.S.S.S.S.S.",
"S.S.S.S.S.S.S.S.S.S.S.S.S.S.S.S.S.S.S.S.S.S.+ r e #.#.5.N W = Z z.z.z.@.O ) f.z.& S.S.S.S.S.S.S.S.S.S.S.S.S.S.S.S.S.S.S.S.S.S.S.",
"S.S.S.S.S.S.S.S.S.S.S.S.S.S.S.S.S.S.S.S.S.S.S.O l = + + R R & { z.z.z.( ) ) f.w S.S.S.S.S.S.S.S.S.S.S.S.S.S.S.S.S.S.S.S.S.S.S.S.",
"S.S.S.S.S.S.S.S.S.S.S.S.S.S.S.S.S.S.S.S.S.S.S.S.  ) R R R   & o.z.z.z.7 ) ) R w S.S.S.S.S.S.S.S.S.S.S.S.S.S.S.S.S.S.S.S.S.S.S.S.",
"S.S.S.S.S.S.S.S.S.S.S.S.S.S.S.S.S.S.S.S.S.S.S.S.S.          & [ z.z.@.7 H 6 > S.S.S.S.S.S.S.S.S.S.S.S.S.S.S.S.S.S.S.S.S.S.S.S.S.",
"S.S.S.S.S.S.S.S.S.S.S.S.S.S.S.S.S.S.S.S.S.S.S.S.S.S.S.S.S.  >.r.2 2 2   R a.-.S.S.S.S.S.S.S.S.S.S.S.S.S.S.S.S.S.S.S.S.S.S.S.S.S.",
"S.S.S.S.S.S.S.S.S.S.S.S.S.S.S.S.S.S.S.S.S.S.S.S.S.S.S.S.S.# I a.V.C.C.>.a.R l S.S.S.S.S.S.S.S.S.S.S.S.S.S.S.S.S.S.S.S.S.S.S.S.S.",
"S.S.S.S.S.S.S.S.S.S.S.S.S.S.S.S.S.S.S.S.S.S.S.S.S.S.S.S.S.6 t.s.h.h.f.K a.u.v S.S.S.S.S.S.S.S.S.S.S.S.S.S.S.S.S.S.S.S.S.S.S.S.S.",
"S.S.S.S.S.S.S.S.S.S.S.S.S.S.S.S.S.S.S.S.S.S.S.S.S.S.S.S.  >.c.A.A.A.N.>.a.y.  S.S.S.S.S.S.S.S.S.S.S.S.S.S.S.S.S.S.S.S.S.S.S.S.S.",
"S.S.S.S.S.S.S.S.S.S.S.S.S.S.S.S.S.S.S.S.S.S.S.S.S.S.S.S.  a.c.A.A.A.N.>.a.y.  S.S.S.S.S.S.S.S.S.S.S.S.S.S.S.S.S.S.S.S.S.S.S.S.S.",
"S.S.S.S.S.S.S.S.S.S.S.S.S.S.S.S.S.S.S.S.S.S.S.S.S.S.S.S.s a.A.A.A.A.a.2 j J   S.S.S.S.S.S.S.S.S.S.S.S.S.S.S.S.S.S.S.S.S.S.S.S.S.",
"S.S.S.S.S.S.S.S.S.S.S.S.S.S.S.S.S.S.S.S.S.S.S.S.S.S.S.S.F H x.A.A.M.h a.F F   S.S.S.S.S.S.S.S.S.S.S.S.S.S.S.S.S.S.S.S.S.S.S.S.S.",
"S.S.S.S.S.S.S.S.S.S.S.S.S.S.S.S.S.S.S.S.S.S.S.S.S.S.S.S.) a.n.6 6 6 N.R a.a.-.S.S.S.S.S.S.S.S.S.S.S.S.S.S.S.S.S.S.S.S.S.S.S.S.S.",
"S.S.S.S.S.S.S.S.S.S.S.S.S.S.S.S.S.S.S.S.S.S.S.S.S.S.S.S.  E c.C.C.C.n.  E E l S.S.S.S.S.S.S.S.S.S.S.S.S.S.S.S.S.S.S.S.S.S.S.S.S.",
"S.S.S.S.S.S.S.S.S.S.S.S.S.S.S.S.S.S.S.S.S.S.S.S.S.S.S.S.S.@ Q } } } U         S.S.S.S.S.S.S.S.S.S.S.S.S.S.S.S.S.S.S.S.S.S.S.S.S.",
"S.S.S.S.S.S.S.S.S.S.S.S.S.S.S.S.S.S.S.S.S.S.S.S.S.S.S.S.S.S.          S.S.S.S.S.S.S.S.S.S.S.S.S.S.S.S.S.S.S.S.S.S.S.S.S.S.S.S.S.",
"S.S.S.S.S.S.S.S.S.S.S.S.S.S.S.S.S.S.S.S.S.S.S.S.S.S.S.S.S.S.S.S.S.S.S.S.S.S.S.S.S.S.S.S.S.S.S.S.S.S.S.S.S.S.S.S.S.S.S.S.S.S.S.S.",
"S.S.S.S.S.S.S.S.S.S.S.S.S.S.S.S.S.S.S.S.S.S.S.S.S.S.S.S.S.S.S.S.S.S.S.S.S.S.S.S.S.S.S.S.S.S.S.S.S.S.S.S.S.S.S.S.S.S.S.S.S.S.S.S.",
"S.S.S.S.S.S.S.S.S.S.S.S.S.S.S.S.S.S.S.S.S.S.S.S.S.S.S.S.S.S.S.S.S.S.S.S.S.S.S.S.S.S.S.S.S.S.S.S.S.S.S.S.S.S.S.S.S.S.S.S.S.S.S.S.",
"S.S.S.S.S.S.S.S.S.S.S.S.S.S.S.S.S.S.S.S.S.S.S.S.S.S.S.S.S.S.S.S.S.S.S.S.S.S.S.S.S.S.S.S.S.S.S.S.S.S.S.S.S.S.S.S.S.S.S.S.S.S.S.S."
};
