/* XPM */
static char *result[] = {
/* columns rows colors chars-per-pixel */
"64 64 144 2 ",
"   c black",
".  c #010101",
"X  c #020204",
"o  c #040406",
"O  c #050509",
"+  c #07070B",
"@  c #0A090D",
"#  c #0B0A0E",
"$  c #0C0B10",
"%  c #0D0C11",
"&  c #0D0C13",
"*  c #0D0D14",
"=  c #0D0E15",
"-  c #0D0E16",
";  c #0E0E16",
":  c #0F1018",
">  c #101119",
",  c #13121B",
"<  c #15121C",
"1  c #15131D",
"2  c #13151E",
"3  c #14171F",
"4  c #15181F",
"5  c #171A21",
"6  c #181B23",
"7  c #181C25",
"8  c #191D28",
"9  c #1A1D29",
"0  c #1A1E2A",
"q  c #1D1E2B",
"w  c #1F1F2E",
"e  c #222131",
"r  c #242233",
"t  c #272536",
"y  c #2A2636",
"u  c #352432",
"i  c #3C2530",
"p  c #3B2734",
"a  c #3B2E3C",
"s  c #39313F",
"d  c #283445",
"f  c #263548",
"g  c #28374B",
"h  c #28384F",
"j  c #313342",
"k  c #283A53",
"l  c #293D57",
"z  c #2B415B",
"x  c #2A445F",
"c  c #2B4661",
"v  c #2D4964",
"b  c #2E4C67",
"n  c #2F4D69",
"m  c #2F506B",
"M  c #2C546E",
"N  c #265776",
"B  c #245A7A",
"V  c #235C7D",
"C  c #29647F",
"Z  c #30647D",
"A  c #4C5F7E",
"S  c #575E7E",
"D  c #5C5E7F",
"F  c #5A607F",
"G  c #823E49",
"H  c #8F3A4D",
"J  c #9A394F",
"K  c #B72E58",
"L  c #BD285B",
"P  c #AD3455",
"I  c #A63852",
"U  c #C0265C",
"Y  c #C12A5D",
"T  c #C43961",
"R  c #814548",
"E  c #824C48",
"W  c #875047",
"Q  c #8D5348",
"!  c #90564A",
"~  c #91574D",
"^  c #945A52",
"/  c #9A605A",
"(  c #996562",
")  c #996A67",
"_  c #BE6F64",
"`  c #BF7366",
"'  c #C34661",
"]  c #C15261",
"[  c #C25A63",
"{  c #C06663",
"}  c #C47869",
"|  c #CE7E70",
" . c #D68275",
".. c #DA8879",
"X. c #DA887E",
"o. c #236081",
"O. c #246081",
"+. c #256281",
"@. c #256381",
"#. c #357681",
"$. c #337982",
"%. c #347A85",
"&. c #357B87",
"*. c #377C89",
"=. c #546380",
"-. c #3A808F",
";. c #3D8395",
":. c #42839E",
">. c #4487A1",
",. c #488EA8",
"<. c #4C91AE",
"1. c #5095B7",
"2. c #559DB5",
"3. c #5397B8",
"4. c #7A9CA1",
"5. c #5AA8B3",
"6. c #5DAEB2",
"7. c #6BB0AF",
"8. c #64B8B3",
"9. c #62B8B4",
"0. c #63B9B4",
"q. c #888A8F",
"w. c #ACACBD",
"e. c #DF8A84",
"r. c #E18D89",
"t. c #E39191",
"y. c #E09595",
"u. c #DFC2B6",
"i. c #EEC5B2",
"p. c #F7CEB9",
"a. c #AFB0C1",
"s. c #B0B3C2",
"d. c #B4B6C3",
"f. c #BCBBC4",
"g. c #D5F2F0",
"h. c #D5F4F2",
"j. c #D6F4F2",
"k. c #D9F5F3",
"l. c #DCF6F4",
"z. c #EDFAF9",
"x. c #F5FCFC",
"c. c #FCFEFE",
"v. c white",
"b. c None",
/* pixels */
"b.b.b.b.b.b.b.b.b.b.b.b.b.b.b.b.b.b.b.b.b.b.b.b.b.b.b.b.b.b.b.b.b.b.b.b.b.b.b.b.b.b.b.b.b.b.b.b.b.b.b.b.b.b.b.b.b.b.b.b.b.b.b.b.",
"b.b.b.b.b.b.b.b.b.b.b.b.b.b.b.b.b.b.b.b.b.b.b.b.b.b.b.b.b.b.b.b.b.b.b.b.b.b.b.b.b.b.b.b.b.b.b.b.b.b.b.b.b.b.b.b.b.b.b.b.b.b.b.b.",
"b.b.b.b.b.b.b.b.b.b.b.b.b.b.b.b.b.b.b.b.b.b.b.b.b.b.b.b.b.b.b.b.b.b.b.b.b.b.b.b.b.b.b.b.b.b.b.b.b.b.b.b.b.b.b.b.b.b.b.b.b.b.b.b.",
"b.b.b.b.b.b.b.b.b.b.b.b.b.b.b.b.b.b.b.b.b.b.b.b.b.b.b.b.b.b.b.b.b.b.b.b.b.b.b.b.b.b.b.b.b.b.b.b.b.b.b.b.b.b.b.b.b.b.b.b.b.b.b.b.",
"b.b.b.b.b.b.b.b.b.b.b.b.b.b.b.b.b.b.b.b.b.b.b.b.b.b.b.b.b.b.b.b.b.b.b.b.b.b.b.b.b.b.b.b.b.b.b.b.b.b.b.b.b.b.b.b.b.b.b.b.b.b.b.b.",
"b.b.b.b.b.b.b.b.b.b.b.b.b.b.b.b.b.b.b.b.b.b.b.b.b.b.b.b.b.b.b.b.b.b.b.b.b.b.b.b.b.b.b.b.b.b.b.b.b.b.b.b.b.b.b.b.b.b.b.b.b.b.b.b.",
"b.b.b.b.b.b.b.b.b.b.b.b.b.b.b.b.b.b.b.b.b.b.b.b.b.b.b.b.b.b.b.b.b.b.b.b.b.b.b.b.b.b.b.b.b.b.b.b.b.b.b.b.b.b.b.b.b.b.b.b.b.b.b.b.",
"b.b.b.b.b.b.b.b.b.b.b.b.b.b.b.b.b.b.b.b.b.b.b.b.b.        b.b.b.b.b.b.b.b.b.b.b.b.b.b.b.b.b.b.b.b.b.b.b.b.b.b.b.b.b.b.b.b.b.b.b.",
"b.b.b.b.b.b.b.b.b.b.b.b.b.b.b.b.b.b.b.b.b.b.b.b.d F w.w.X   b.b.b.b.  X X y b.b.b.b.b.b.b.b.b.b.b.b.b.b.b.b.b.b.b.b.b.b.b.b.b.b.",
"b.b.b.b.b.b.b.b.b.b.b.b.b.b.b.b.b.b.b.b.b.b.b., q.w.n F r + +         e j D 3.5 b.b.b.b.b.b.b.b.b.b.b.b.b.b.b.b.b.b.b.b.b.b.b.b.",
"b.b.b.b.b.b.b.b.b.b.b.b.b.b.b.b.b.b.b.b.b.b.  D D $ w.w.D t ; $.$.0.0.$.& h w.w.; b.b.b.b.b.b.b.b.b.b.b.b.b.b.b.b.b.b.b.b.b.b.b.",
"b.b.b.b.b.b.b.b.b.b.b.b.b.b.b.b.b.b.b.b.b.b.  > y D q.z D t ,.5.0.0.0.0.0.;.=.F   b.b.i i i * b.b.b.b.b.b.b.b.b.b.b.b.b.b.b.b.b.",
"b.b.b.b.b.b.b.b.b.b.b.b.b.b.b.b.b.b.b.b.b.b.  j S z c w.:.2.0.0.0.0.0.0.0.0.2.v   b.  ..p.p.X.* b.b.b.b.b.b.b.b.b.b.b.b.b.b.b.b.",
"b.b.b.b.b.b.b.b.b.b.b.b.b.b.b.b.b.b.b.b.b.  t   & D D h 0.0.0.0.0.0.0.0.$.0.0.#.    y.i.E p.p.i.  b.b.b.b.b.b.b.b.b.b.b.b.b.b.b.",
"b.b.b.b.b.b.b.b.b.b.b.b.b.b.b.b.b.b.b.b.b.  t l D D O 0.0.0.0.0.0.0.h.1.O 8.d.0.;   u.+ s p.p.p.  b.b.b.b.b.b.b.b.b.b.b.b.b.b.b.",
"b.b.b.b.b.b.b.b.b.b.b.b.b.b.b.b.b.b.b.b.b.t t t y t $.0.0.0.0.f.h.h.h.V O 0.h.7.$.  W ..t } p.p.  b.b.b.b.b.b.b.b.b.b.b.b.b.b.b.",
"b.b.b.b.b.b.b.b.b.b.b.b.b.b.b.b.b.b.b.b.b.@.  2 v 0.a.h.h.h.h.f.w.1.#.^ L g 2.g.a.    t Q U ..Q   b.b.b.b.b.b.b.b.b.b.b.b.b.b.b.",
"b.b.b.b.b.b.b.b.b.b.b.b.b.b.b.b.b.b.b.b.b.@.  2 v 9.0.0.0.0.6.$.1 + ....i.: $.5.0.  N o.o.+     b.b.b.b.b.b.b.b.b.b.b.b.b.b.b.b.",
"b.b.b.b.b.b.b.b.b.b.b.b.b.b.b.b.b.b.b.b.b.@.4 ; v $.5.5.5.m M   { r.t.p.p.{ h #.5.  $ * M ,.g b.b.b.b.b.b.b.b.b.b.b.b.b.b.b.b.b.",
"b.b.b.b.b.b.b.b.b.b.b.b.b.b.b.b.b.b.b.b.b.@.$.z Z $.$.$.c o G _ _ X.p.p.e._ s C $.* V o.h   b.b.b.b.b.b.b.b.b.b.b.b.b.b.b.b.b.b.",
"b.b.b.b.b.b.b.b.b.b.b.b.b.b.b.b.b.b.b.b.b.> $.$.$.$.$.$.r | p.p.p.i.p._ i.p.` C $.w o.o.<.  b.b.b.b.b.b.b.b.b.b.b.b.b.b.b.b.b.b.",
"b.b.b.b.b.b.b.b.b.b.b.b.b.b.b.b.b.b.b.b.b.  $.$.$.$.$.$.r p.p.p.p.p.p.p.p.p.` C $.w o.1.& b.b.b.b.b.b.b.b.b.b.b.b.b.b.b.b.b.b.b.",
"b.b.b.b.b.b.b.b.b.b.b.b.b.b.b.b.b.b.b.b.b.  $.$.$.$.$.$.r ..p.p.p.@ n n % p.` C   o.1.1.  b.b.b.b.b.b.b.b.b.b.b.b.b.b.b.b.b.b.b.",
"b.b.b.b.b.b.b.b.b.b.b.b.b.b.b.b.b.b.b.b.b.f $.d $.$.$.$.Z ..p.p.p.@ v.v.% p.` C   #.1.  b.b.b.b.b.b.b.b.b.b.b.b.b.b.b.b.b.b.b.b.",
"b.b.b.b.b.b.b.b.b.b.b.b.b.b.b.b.b.b.b.b.b.@.  , $.$.$.0.Z ..p.p.p.@ c.D p.p.`   o.#.d b.b.b.b.b.b.b.b.b.b.b.b.b.b.b.b.b.b.b.b.b.",
"b.b.b.b.b.b.b.b.b.b.b.b.b.b.b.b.b.b.b.b.b.  b., #.$ $.0.Z W  .p.p.u 5 p.p.y.k 3 o.1.t b.b.b.b.b.b.b.b.b.b.b.b.b.b.b.b.b.b.b.b.b.",
"b.b.b.b.b.b.b.b.b.b.b.b.b.b.b.b.b.b.b.b.b.b.b.* d   ;.0.x   G ) ) ) ) ) ) $ k x ;.-.b.b.b.b.b.b.b.b.b.b.b.b.b.b.b.b.b.b.b.b.b.b.",
"b.b.b.b.b.b.b.b.b.b.b.b.b.b.b.b.b.b.b.b.b.b.b.  b.  0.f     o.o.; ' ] y.'     3 1.9 b.b.b.b.b.b.b.b.b.b.b.b.b.b.b.b.b.b.b.b.b.b.",
"b.b.b.b.b.b.b.b.b.b.b.b.b.b.b.b.b.b.b.b.b.b.b.b.b.  > v.o.o.> >   > > > >     T 7   b.b.b.b.b.b.b.b.b.b.b.b.b.b.b.b.b.b.b.b.b.b.",
"b.b.b.b.b.b.b.b.b.b.b.b.b.b.b.b.b.b.b.b.b.b.b.b.b.b.b.n o.x 1.&.1.1.1.1.1.1.b T ; 9 b.b.b.b.b.b.b.b.b.b.b.b.b.b.b.b.b.b.b.b.b.b.",
"b.b.b.b.b.b.b.b.b.b.b.b.b.b.b.b.b.b.b.b.b.b.b.b.b.b.  1.r v.1.:.%.*.1.1.1.<.H P M -.b.b.b.b.b.b.b.b.b.b.b.b.b.b.b.b.b.b.b.b.b.b.",
"b.b.b.b.b.b.b.b.b.b.b.b.b.b.b.b.b.b.b.b.b.b.b.b.b.b.  +.r v.1.:.2 o.+.+.+.+.] i +.O.b.b.b.b.b.b.b.b.b.b.b.b.b.b.b.b.b.b.b.b.b.b.",
"b.b.b.b.b.b.b.b.b.b.b.b.b.b.b.b.b.b.b.b.b.b.b.b.b.b.  V e v.1.:.; V o.o.V < G c V   b.b.b.b.b.b.b.b.b.b.b.b.b.b.b.b.b.b.b.b.b.b.",
"b.b.b.b.b.b.b.b.b.b.b.b.b.b.b.b.b.b.b.b.b.b.b.b.b.b.b.    v.1.:.;   o.N a G l M   b.b.b.b.b.b.b.b.b.b.b.b.b.b.b.b.b.b.b.b.b.b.b.",
"b.b.b.b.b.b.b.b.b.b.b.b.b.b.b.b.b.b.b.b.b.b.b.b.b.b.b.b.  v.1.:.;   o.J 9 $ o., b.b.b.b.b.b.b.b.b.b.b.b.b.b.b.b.b.b.b.b.b.b.b.b.",
"b.b.b.b.b.b.b.b.b.b.b.b.b.b.b.b.b.b.b.b.b.b.b.b.b.      j.4.1.:.;   s t o.6 1.t b.b.b.b.b.b.b.b.b.b.b.b.b.b.b.b.b.b.b.b.b.b.b.b.",
"b.b.b.b.b.b.b.b.b.b.b.b.b.b.b.b.b.b.b.b.b.b.b.b.3 J U I f.o.1.d   3 ! o.1.6 1.h b.b.b.b.b.b.b.b.b.b.b.b.b.b.b.b.b.b.b.b.b.b.b.b.",
"b.b.b.b.b.b.b.b.b.b.b.b.b.b.b.b.b.b.b.b.b.b.b.i W n   & n m h 8   a r ;.-.- %.%.o b.b.b.b.b.b.b.b.b.b.b.b.b.b.b.b.b.b.b.b.b.b.b.",
"b.b.b.b.b.b.b.b.b.b.b.b.b.b.b.b.b.b.b.b.b.b.b.i G = u.u.E 0 >.M     + : 6 ] ] ] ]   b.b.b.b.b.b.b.b.b.b.b.b.b.b.b.b.b.b.b.b.b.b.",
"b.b.b.b.b.b.b.b.b.b.b.b.b.b.b.b.b.b.b.b.b.b.; I . i.p.p.....X X   U U U U r.r.i o   b.b.b.b.b.b.b.b.b.b.b.b.b.b.b.b.b.b.b.b.b.b.",
"b.b.b.b.b.b.b.b.b.b.b.b.b.b.b.b.b.b.b.b.b.b.; I   i.p.p.| ..}   8 y / ! U r.P [ ..  b.b.b.b.b.b.b.b.b.b.b.b.b.b.b.b.b.b.b.b.b.b.",
"b.b.b.b.b.b.b.b.b.b.b.b.b.b.b.b.b.b.b.b.b.b.; I e E p.p.E ..a   } i.p.e.e a [ i.p.  b.b.b.b.b.b.b.b.b.b.b.b.b.b.b.b.b.b.b.b.b.b.",
"b.b.b.b.b.b.b.b.b.b.b.b.b.b.b.b.b.b.b.b.b.b.; I v o.q 9 6     i | p.p.p.O ! ..p.p.  b.b.b.b.b.b.b.b.b.b.b.b.b.b.b.b.b.b.b.b.b.b.",
"b.b.b.b.b.b.b.b.b.b.b.b.b.b.b.b.b.b.b.b.b.b.; J > B o.1.1.> > p ..p.p.p.O ! t.p.; b.b.b.b.b.b.b.b.b.b.b.b.b.b.b.b.b.b.b.b.b.b.b.",
"b.b.b.b.b.b.b.b.b.b.b.b.b.b.b.b.b.b.b.b.b.b.b.i ~ O z z G U G G p.p.p...O ! t.p.; b.b.b.b.b.b.b.b.b.b.b.b.b.b.b.b.b.b.b.b.b.b.b.",
"b.b.b.b.b.b.b.b.b.b.b.b.b.b.b.b.b.b.b.b.b.b.b.b.1 H H P T < # _ p.p.p./ E ! t.^ + b.b.b.b.b.b.b.b.b.b.b.b.b.b.b.b.b.b.b.b.b.b.b.",
"b.b.b.b.b.b.b.b.b.b.b.b.b.b.b.b.b.b.b.b.b.b.b.b.b.+ + + +   ; X.p.p.p.a ! ! ..i b.b.b.b.b.b.b.b.b.b.b.b.b.b.b.b.b.b.b.b.b.b.b.b.",
"b.b.b.b.b.b.b.b.b.b.b.b.b.b.b.b.b.b.b.b.b.b.b.b.b.b.b.b.b.b.; ` p.p.e.t t ! R b.b.b.b.b.b.b.b.b.b.b.b.b.b.b.b.b.b.b.b.b.b.b.b.b.",
"b.b.b.b.b.b.b.b.b.b.b.b.b.b.b.b.b.b.b.b.b.b.b.b.b.b.b.b.b.  D ( Q Q Q   U F b b.b.b.b.b.b.b.b.b.b.b.b.b.b.b.b.b.b.b.b.b.b.b.b.b.",
"b.b.b.b.b.b.b.b.b.b.b.b.b.b.b.b.b.b.b.b.b.b.b.b.b.b.b.b.b.@ U w.z.v.v.D w.U R b.b.b.b.b.b.b.b.b.b.b.b.b.b.b.b.b.b.b.b.b.b.b.b.b.",
"b.b.b.b.b.b.b.b.b.b.b.b.b.b.b.b.b.b.b.b.b.b.b.b.b.b.b.b.b.& F ' t.t.r.R w.w.A b.b.b.b.b.b.b.b.b.b.b.b.b.b.b.b.b.b.b.b.b.b.b.b.b.",
"b.b.b.b.b.b.b.b.b.b.b.b.b.b.b.b.b.b.b.b.b.b.b.b.b.b.b.b.  D f.v.v.v.k.D w.4.  b.b.b.b.b.b.b.b.b.b.b.b.b.b.b.b.b.b.b.b.b.b.b.b.b.",
"b.b.b.b.b.b.b.b.b.b.b.b.b.b.b.b.b.b.b.b.b.b.b.b.b.b.b.b.  q.f.v.v.v.k.D w.4.  b.b.b.b.b.b.b.b.b.b.b.b.b.b.b.b.b.b.b.b.b.b.b.b.b.",
"b.b.b.b.b.b.b.b.b.b.b.b.b.b.b.b.b.b.b.b.b.b.b.b.b.b.b.b.A w.x.v.v.v.w.& D 4.  b.b.b.b.b.b.b.b.b.b.b.b.b.b.b.b.b.b.b.b.b.b.b.b.b.",
"b.b.b.b.b.b.b.b.b.b.b.b.b.b.b.b.b.b.b.b.b.b.b.b.b.b.b.b.e 4.l.v.v.l.F w.e e   b.b.b.b.b.b.b.b.b.b.b.b.b.b.b.b.b.b.b.b.b.b.b.b.b.",
"b.b.b.b.b.b.b.b.b.b.b.b.b.b.b.b.b.b.b.b.b.b.b.b.b.b.b.b.^ F w.s.s.F w.U w.w.x b.b.b.b.b.b.b.b.b.b.b.b.b.b.b.b.b.b.b.b.b.b.b.b.b.",
"b.b.b.b.b.b.b.b.b.b.b.b.b.b.b.b.b.b.b.b.b.b.b.b.b.b.b.b.  U f.v.v.v.k.  U U R b.b.b.b.b.b.b.b.b.b.b.b.b.b.b.b.b.b.b.b.b.b.b.b.b.",
"b.b.b.b.b.b.b.b.b.b.b.b.b.b.b.b.b.b.b.b.b.b.b.b.b.b.b.b.b.@ K ' ' ' Y         b.b.b.b.b.b.b.b.b.b.b.b.b.b.b.b.b.b.b.b.b.b.b.b.b.",
"b.b.b.b.b.b.b.b.b.b.b.b.b.b.b.b.b.b.b.b.b.b.b.b.b.b.b.b.b.b.          b.b.b.b.b.b.b.b.b.b.b.b.b.b.b.b.b.b.b.b.b.b.b.b.b.b.b.b.b.",
"b.b.b.b.b.b.b.b.b.b.b.b.b.b.b.b.b.b.b.b.b.b.b.b.b.b.b.b.b.b.b.b.b.b.b.b.b.b.b.b.b.b.b.b.b.b.b.b.b.b.b.b.b.b.b.b.b.b.b.b.b.b.b.b.",
"b.b.b.b.b.b.b.b.b.b.b.b.b.b.b.b.b.b.b.b.b.b.b.b.b.b.b.b.b.b.b.b.b.b.b.b.b.b.b.b.b.b.b.b.b.b.b.b.b.b.b.b.b.b.b.b.b.b.b.b.b.b.b.b.",
"b.b.b.b.b.b.b.b.b.b.b.b.b.b.b.b.b.b.b.b.b.b.b.b.b.b.b.b.b.b.b.b.b.b.b.b.b.b.b.b.b.b.b.b.b.b.b.b.b.b.b.b.b.b.b.b.b.b.b.b.b.b.b.b.",
"b.b.b.b.b.b.b.b.b.b.b.b.b.b.b.b.b.b.b.b.b.b.b.b.b.b.b.b.b.b.b.b.b.b.b.b.b.b.b.b.b.b.b.b.b.b.b.b.b.b.b.b.b.b.b.b.b.b.b.b.b.b.b.b.",
"b.b.b.b.b.b.b.b.b.b.b.b.b.b.b.b.b.b.b.b.b.b.b.b.b.b.b.b.b.b.b.b.b.b.b.b.b.b.b.b.b.b.b.b.b.b.b.b.b.b.b.b.b.b.b.b.b.b.b.b.b.b.b.b."
};
