/* XPM */
static char *result[] = {
/* columns rows colors chars-per-pixel */
"64 64 155 2 ",
"   c black",
".  c #020203",
"X  c #050507",
"o  c #060509",
"O  c #07060A",
"+  c #09080D",
"@  c #0A090E",
"#  c #0B0A0F",
"$  c #0C0B10",
"%  c #0E0C11",
"&  c #0F0D12",
"*  c #0E0E14",
"=  c #0E0E15",
"-  c #0F1019",
";  c #11111B",
":  c #12131C",
">  c #15151F",
",  c #161621",
"<  c #181722",
"1  c #181824",
"2  c #191D2A",
"3  c #18202E",
"4  c #172534",
"5  c #1A2535",
"6  c #202537",
"7  c #262637",
"8  c #2C2532",
"9  c #292535",
"0  c #242638",
"q  c #2D2F3F",
"w  c #312531",
"e  c #3F2530",
"r  c #352E3A",
"t  c #312F3D",
"y  c #432E3A",
"u  c #4F2C39",
"i  c #502536",
"p  c #2F3649",
"a  c #303345",
"s  c #303A4F",
"d  c #303D54",
"f  c #2C435D",
"g  c #2B455F",
"h  c #314059",
"j  c #2C4661",
"k  c #2D4863",
"l  c #2E4A65",
"z  c #2C4C67",
"x  c #28516B",
"c  c #28526F",
"v  c #275776",
"b  c #285573",
"n  c #235F7F",
"m  c #255C7D",
"M  c #2E6979",
"N  c #2E6A7A",
"B  c #2B697E",
"V  c #316E7F",
"C  c #764D55",
"Z  c #70515E",
"A  c #5F5F7A",
"S  c #66566C",
"D  c #615C75",
"F  c #5E627C",
"G  c #A23E53",
"H  c #A63C54",
"J  c #AA3E55",
"K  c #AD3C56",
"L  c #B73A5C",
"P  c #87534D",
"I  c #8E564C",
"U  c #96554B",
"Y  c #94564B",
"T  c #98534D",
"R  c #9C514F",
"E  c #815150",
"W  c #BE4461",
"Q  c #BF5162",
"!  c #BD5E61",
"~  c #BE6863",
"^  c #BF7064",
"/  c #C27567",
"(  c #C67A69",
")  c #C77D6B",
"_  c #CD8370",
"`  c #CE8A7E",
"'  c #D08673",
"]  c #D38A76",
"[  c #D18A79",
"{  c #235F80",
"}  c #236080",
"|  c #246180",
" . c #276581",
".. c #296781",
"X. c #2A6880",
"o. c #327080",
"O. c #337381",
"+. c #337581",
"@. c #387D8B",
"#. c #3A7F90",
"$. c #62768A",
"%. c #617F8F",
"&. c #3B8094",
"*. c #41879B",
"=. c #448AA2",
"-. c #468BA6",
";. c #478CAA",
":. c #498EAC",
">. c #4A8FAF",
",. c #5D9CA0",
"<. c #4B90B0",
"1. c #4C91B2",
"2. c #4F94B8",
"3. c #5095B7",
"4. c #5297B7",
"5. c #589EB8",
"6. c #61B0B6",
"7. c #63B7B4",
"8. c #63B9B4",
"9. c #BE8D94",
"0. c #AC98AA",
"q. c #B392A0",
"w. c #AB9FB1",
"e. c #A9A6B9",
"r. c #A9ABBD",
"t. c #AAACBE",
"y. c #CD8A84",
"u. c #DFB6A8",
"i. c #E4B5A3",
"p. c #EBB9A5",
"a. c #EFBCA8",
"s. c #F3C3AF",
"d. c #F5C8B3",
"f. c #F6CBB6",
"g. c #F7CEB8",
"h. c #F7CEB9",
"j. c #ACB1C1",
"k. c #AFB8C5",
"l. c #B0B8C5",
"z. c #B3B8C4",
"x. c #BAB8C0",
"c. c #EEC6C7",
"v. c #EBCACD",
"b. c #F4C3C1",
"n. c #F1C3C4",
"m. c #E0CFD2",
"M. c #CDE1E4",
"N. c #D0EAEC",
"B. c #DAF2F2",
"V. c #FDF2EC",
"C. c #E7F6F6",
"Z. c #EBF7F7",
"A. c #F6F9F9",
"S. c white",
"D. c None",
/* pixels */
"D.D.D.D.D.D.D.D.D.D.D.D.D.D.D.D.D.D.D.D.D.D.D.D.D.D.D.D.D.D.D.D.D.D.D.D.D.D.D.D.D.D.D.D.D.D.D.D.D.D.D.D.D.D.D.D.D.D.D.D.D.D.D.D.",
"D.D.D.D.D.D.D.D.D.D.D.D.D.D.D.D.D.D.D.D.D.D.D.D.D.D.D.D.D.D.D.D.D.D.D.D.D.D.D.D.D.D.D.D.D.D.D.D.D.D.D.D.D.D.D.D.D.D.D.D.D.D.D.D.",
"D.D.D.D.D.D.D.D.D.D.D.D.D.D.D.D.D.D.D.D.D.D.D.D.D.D.D.D.D.D.D.D.D.D.D.D.D.D.D.D.D.D.D.D.D.D.D.D.D.D.D.D.D.D.D.D.D.D.D.D.D.D.D.D.",
"D.D.D.D.D.D.D.D.D.D.D.D.D.D.D.D.D.D.D.D.D.D.D.D.D.D.D.D.D.D.D.D.D.D.D.D.D.D.D.D.D.D.D.D.D.D.D.D.D.D.D.D.D.D.D.D.D.D.D.D.D.D.D.D.",
"D.D.D.D.D.D.D.D.D.D.D.D.D.D.D.D.D.D.D.D.D.D.D.D.D.D.D.D.D.D.D.D.D.D.D.D.D.D.D.D.D.D.D.D.D.D.D.D.D.D.D.D.D.D.D.D.D.D.D.D.D.D.D.D.",
"D.D.D.D.D.D.D.D.D.D.D.D.D.D.D.D.D.D.D.D.D.D.D.D.D.D.D.D.D.D.D.D.D.D.D.D.D.D.D.D.D.D.D.D.D.D.D.D.D.D.D.D.D.D.D.D.D.D.D.D.D.D.D.D.",
"D.D.D.D.D.D.D.D.D.D.D.D.D.D.D.D.D.D.D.D.D.D.D.D.D.D.D.D.D.D.D.D.D.D.D.D.D.D.D.D.D.D.D.D.D.D.D.D.D.D.D.D.D.D.D.D.D.D.D.D.D.D.D.D.",
"D.D.D.D.D.D.D.D.D.D.D.D.D.D.D.D.D.D.D.D.D.D.D.D.D.D.D.D.D.D.D.D.D.D.D.D.D.D.D.D.D.D.D.D.D.D.D.D.D.D.D.D.D.D.D.D.D.D.D.D.D.D.D.D.",
"D.D.D.D.D.D.D.D.D.D.D.D.D.D.D.D.D.D.D.D.D.D.D.D.D.D.D.D.D.D.D.D.D.D.D.D.D.D.D.D.D.D.D.D.D.D.D.D.D.D.D.D.D.D.D.D.D.D.D.D.D.D.D.D.",
"D.D.D.D.D.D.D.D.D.D.D.D.D.D.D.D.D.D.D.D.D.D.D.D.  a 5.$.    D.D.D.D.        D.D.D.D.D.D.D.D.D.D.D.D.D.D.D.D.D.D.D.D.D.D.D.D.D.D.",
"D.D.D.D.D.D.D.D.D.D.D.D.D.D.D.D.D.D.D.D.D.D.D.D.D t.t.7 6       D.D.  7 7 A % D.D.D.D.D.D.D.D.D.D.D.D.D.D.D.D.D.D.D.D.D.D.D.D.D.",
"D.D.D.D.D.D.D.D.D.D.D.D.D.D.D.D.D.D.D.D.D.D.  a $.q.q t.d 7 2 4 4 4 4 4 k z t.S @ D.D.D.D.D.D.D.D.D.D.D.D.D.D.D.D.D.D.D.D.D.D.D.",
"D.D.D.D.D.D.D.D.D.D.D.D.D.D.D.D.D.D.D.D.D.D.  h h h t.%.A ; z *.,.8.8.,. .z 0.0.o D.D.      D.D.D.D.D.D.D.D.D.D.D.D.D.D.D.D.D.D.",
"D.D.D.D.D.D.D.D.D.D.D.D.D.D.D.D.D.D.D.D.D.D.  s A A 3 t.D o.8.8.8.8.8.8.8.7.V z   D.  a.a.a.i D.D.D.D.D.D.D.D.D.D.D.D.D.D.D.D.D.",
"D.D.D.D.D.D.D.D.D.D.D.D.D.D.D.D.D.D.D.D.D.D.  7 l $ A t.4.8.8.8.8.8.8.8.8.8.8.5       # h.h.h.: D.D.D.D.D.D.D.D.D.D.D.D.D.D.D.D.",
"D.D.D.D.D.D.D.D.D.D.D.D.D.D.D.D.D.D.D.D.D.  7   0 A A m 8.8.8.8.8.8.8.8.+.8.8.*.    u.g.y h.h.h.  D.D.D.D.D.D.D.D.D.D.D.D.D.D.D.",
"D.D.D.D.D.D.D.D.D.D.D.D.D.D.D.D.D.D.D.D.D.  7 7 A a | 8.8.8.8.r.j.j.B.O.X 7.B.8.|   ) L & y.h.h.  D.D.D.D.D.D.D.D.D.D.D.D.D.D.D.",
"D.D.D.D.D.D.D.D.D.D.D.D.D.D.D.D.D.D.D.D.D. .      6.8.B.B.B.B.B.B.8.1.Y % +.l.B.8.    Y ( O $ h.  D.D.D.D.D.D.D.D.D.D.D.D.D.D.D.",
"D.D.D.D.D.D.D.D.D.D.D.D.D.D.D.D.D.D.D.D.D. .  > l 8.M.M.M.M.M.k.,.M y ] y.$ *.l.M.  $ % t ( ` :   D.D.D.D.D.D.D.D.D.D.D.D.D.D.D.",
"D.D.D.D.D.D.D.D.D.D.D.D.D.D.D.D.D.D.D.D.D. .  > l ,.8.8.8.,.=.j u i ] i.h.u M =.8.  h j | f 4   D.D.D.D.D.D.D.D.D.D.D.D.D.D.D.D.",
"D.D.D.D.D.D.D.D.D.D.D.D.D.D.D.D.D.D.D.D.D. .M   l +.+.+.+.; ;   w d.h.h.f.w O B +.  v { ; 4 * D.D.D.D.D.D.D.D.D.D.D.D.D.D.D.D.D.",
"D.D.D.D.D.D.D.D.D.D.D.D.D.D.D.D.D.D.D.D.D. .+.+.+.+.+.+.% @ ] h.h.: h.h.< h.^ B +.3 { { {   D.D.D.D.D.D.D.D.D.D.D.D.D.D.D.D.D.D.",
"D.D.D.D.D.D.D.D.D.D.D.D.D.D.D.D.D.D.D.D.D.  +.+.+.+.+.+.6 ] h.h.h.h.h._ h.h.^ B +.3 { } >.  D.D.D.D.D.D.D.D.D.D.D.D.D.D.D.D.D.D.",
"D.D.D.D.D.D.D.D.D.D.D.D.D.D.D.D.D.D.D.D.D.  +.+.+.+.+.+.6 [ h.h.h.~ T T R h.^ B q m >.3.  D.D.D.D.D.D.D.D.D.D.D.D.D.D.D.D.D.D.D.",
"D.D.D.D.D.D.D.D.D.D.D.D.D.D.D.D.D.D.D.D.D.. +.+.+.+.+.+.N ] h.h.h.@ S.S.% h.^ B   { 1.  D.D.D.D.D.D.D.D.D.D.D.D.D.D.D.D.D.D.D.D.",
"D.D.D.D.D.D.D.D.D.D.D.D.D.D.D.D.D.D.D.D.D. .N : +.+.+.@.N ] h.h.h.@ S.Z.e h.^ v O O.<.  D.D.D.D.D.D.D.D.D.D.D.D.D.D.D.D.D.D.D.D.",
"D.D.D.D.D.D.D.D.D.D.D.D.D.D.D.D.D.D.D.D.D.6   : +.v +.8.N ( s.h.h.@ k.~ h.d.S o { 1.a D.D.D.D.D.D.D.D.D.D.D.D.D.D.D.D.D.D.D.D.D.",
"D.D.D.D.D.D.D.D.D.D.D.D.D.D.D.D.D.D.D.D.D.  D.: c o +.8.N 9 J s.h.i.i.h.f.u l g { -.+ D.D.D.D.D.D.D.D.D.D.D.D.D.D.D.D.D.D.D.D.D.",
"D.D.D.D.D.D.D.D.D.D.D.D.D.D.D.D.D.D.D.D.D.D.D.  ;   8.8.; S.; ; ; ; ; ; ;     g 3.#.D.D.D.D.D.D.D.D.D.D.D.D.D.D.D.D.D.D.D.D.D.D.",
"D.D.D.D.D.D.D.D.D.D.D.D.D.D.D.D.D.D.D.D.D.D.D.D.D.  8.  2 2 { { = _ ] h.'     e :.  D.D.D.D.D.D.D.D.D.D.D.D.D.D.D.D.D.D.D.D.D.D.",
"D.D.D.D.D.D.D.D.D.D.D.D.D.D.D.D.D.D.D.D.D.D.D.D.D.    7 { d x x x x x x x x g W =   D.D.D.D.D.D.D.D.D.D.D.D.D.D.D.D.D.D.D.D.D.D.",
"D.D.D.D.D.D.D.D.D.D.D.D.D.D.D.D.D.D.D.D.D.D.D.D.D.D.  2.0 A.3.&.3.3.3.3.3.3.l W = @.D.D.D.D.D.D.D.D.D.D.D.D.D.D.D.D.D.D.D.D.D.D.",
"D.D.D.D.D.D.D.D.D.D.D.D.D.D.D.D.D.D.D.D.D.D.D.D.D.D.  2.6 S.3.&.n { 2.2.2.-.Q i 2.@.D.D.D.D.D.D.D.D.D.D.D.D.D.D.D.D.D.D.D.D.D.D.",
"D.D.D.D.D.D.D.D.D.D.D.D.D.D.D.D.D.D.D.D.D.D.D.D.D.D.  { 6 S.3.&.= { { { { v H s { q D.D.D.D.D.D.D.D.D.D.D.D.D.D.D.D.D.D.D.D.D.D.",
"D.D.D.D.D.D.D.D.D.D.D.D.D.D.D.D.D.D.D.D.D.D.D.D.D.D.  2 1 S.3.&.= 2 { { 2 R Z { 2   D.D.D.D.D.D.D.D.D.D.D.D.D.D.D.D.D.D.D.D.D.D.",
"D.D.D.D.D.D.D.D.D.D.D.D.D.D.D.D.D.D.D.D.D.D.D.D.D.D.D.D.  S.3.&.=   { 7 L - d 3 D.D.D.D.D.D.D.D.D.D.D.D.D.D.D.D.D.D.D.D.D.D.D.D.",
"D.D.D.D.D.D.D.D.D.D.D.D.D.D.D.D.D.D.D.D.D.D.D.D.D.D.D.D.p C.3.&.=   g H , $ V : D.D.D.D.D.D.D.D.D.D.D.D.D.D.D.D.D.D.D.D.D.D.D.D.",
"D.D.D.D.D.D.D.D.D.D.D.D.D.D.D.D.D.D.D.D.D.D.D.D.D.C C u B.&.3.b X   I x -.1 3.4 D.D.D.D.D.D.D.D.D.D.D.D.D.D.D.D.D.D.D.D.D.D.D.D.",
"D.D.D.D.D.D.D.D.D.D.D.D.D.D.D.D.D.D.D.D.D.D.D.D.u < & t d - ..4   H r <.3.1 3.;.= D.D.D.D.D.D.D.D.D.D.D.D.D.D.D.D.D.D.D.D.D.D.D.",
"D.D.D.D.D.D.D.D.D.D.D.D.D.D.D.D.D.D.D.D.D.D.D.e i { X   { 3.. .   . 6 | |   . .   D.D.D.D.D.D.D.D.D.D.D.D.D.D.D.D.D.D.D.D.D.D.D.",
"D.D.D.D.D.D.D.D.D.D.D.D.D.D.D.D.D.D.D.D.D.D.  u u E h.h.I t 1.g   t t t y Q Q W L   D.D.D.D.D.D.D.D.D.D.D.D.D.D.D.D.D.D.D.D.D.D.",
"D.D.D.D.D.D.D.D.D.D.D.D.D.D.D.D.D.D.D.D.D.D.= K   a.h.h.h.] K     3 3 L L Q W J L   D.D.D.D.D.D.D.D.D.D.D.D.D.D.D.D.D.D.D.D.D.D.",
"D.D.D.D.D.D.D.D.D.D.D.D.D.D.D.D.D.D.D.D.D.D.= K   a.h.h.2 ] /   C ] h.Y L L R ] h.  D.D.D.D.D.D.D.D.D.D.D.D.D.D.D.D.D.D.D.D.D.D.",
"D.D.D.D.D.D.D.D.D.D.D.D.D.D.D.D.D.D.D.D.D.D.= K l < p.p.E !   + ~ h.h.h.  w ] h.h.  D.D.D.D.D.D.D.D.D.D.D.D.D.D.D.D.D.D.D.D.D.D.",
"D.D.D.D.D.D.D.D.D.D.D.D.D.D.D.D.D.D.D.D.D.D.= K q { p  . .    u ] h.h.h.X Y y.h.` D.D.D.D.D.D.D.D.D.D.D.D.D.D.D.D.D.D.D.D.D.D.D.",
"D.D.D.D.D.D.D.D.D.D.D.D.D.D.D.D.D.D.D.D.D.D.+ u i < { o.X.G P u a.h.h.i.X Y i.h.= D.D.D.D.D.D.D.D.D.D.D.D.D.D.D.D.D.D.D.D.D.D.D.",
"D.D.D.D.D.D.D.D.D.D.D.D.D.D.D.D.D.D.D.D.D.D.D.o C $ O O L L O C h.h.h.] X Y i.h.= D.D.D.D.D.D.D.D.D.D.D.D.D.D.D.D.D.D.D.D.D.D.D.",
"D.D.D.D.D.D.D.D.D.D.D.D.D.D.D.D.D.D.D.D.D.D.D.D.  U L L L   = ^ h.h.h.Y Y Y ] e D.D.D.D.D.D.D.D.D.D.D.D.D.D.D.D.D.D.D.D.D.D.D.D.",
"D.D.D.D.D.D.D.D.D.D.D.D.D.D.D.D.D.D.D.D.D.D.D.D.D.          = y.h.h.h.7 0 Y Y e D.D.D.D.D.D.D.D.D.D.D.D.D.D.D.D.D.D.D.D.D.D.D.D.",
"D.D.D.D.D.D.D.D.D.D.D.D.D.D.D.D.D.D.D.D.D.D.D.D.D.D.D.D.D.D.  C h.h.] 7 t.    D.D.D.D.D.D.D.D.D.D.D.D.D.D.D.D.D.D.D.D.D.D.D.D.D.",
"D.D.D.D.D.D.D.D.D.D.D.D.D.D.D.D.D.D.D.D.D.D.D.D.D.D.D.D.D.  S $.8 r r % L t.n D.D.D.D.D.D.D.D.D.D.D.D.D.D.D.D.D.D.D.D.D.D.D.D.D.",
"D.D.D.D.D.D.D.D.D.D.D.D.D.D.D.D.D.D.D.D.D.D.D.D.D.D.D.D.D.X G 9.n.b.b.Z t.! C D.D.D.D.D.D.D.D.D.D.D.D.D.D.D.D.D.D.D.D.D.D.D.D.D.",
"D.D.D.D.D.D.D.D.D.D.D.D.D.D.D.D.D.D.D.D.D.D.D.D.D.D.D.D.  k e.V.V.V.c.A t.w.3 D.D.D.D.D.D.D.D.D.D.D.D.D.D.D.D.D.D.D.D.D.D.D.D.D.",
"D.D.D.D.D.D.D.D.D.D.D.D.D.D.D.D.D.D.D.D.D.D.D.D.D.D.D.D.  A x.S.S.S.B.A t.0.  D.D.D.D.D.D.D.D.D.D.D.D.D.D.D.D.D.D.D.D.D.D.D.D.D.",
"D.D.D.D.D.D.D.D.D.D.D.D.D.D.D.D.D.D.D.D.D.D.D.D.D.D.D.D.3 t.N.S.S.S.z.a 5.0.  D.D.D.D.D.D.D.D.D.D.D.D.D.D.D.D.D.D.D.D.D.D.D.D.D.",
"D.D.D.D.D.D.D.D.D.D.D.D.D.D.D.D.D.D.D.D.D.D.D.D.D.D.D.D.q t.S.S.S.S.t.A q F   D.D.D.D.D.D.D.D.D.D.D.D.D.D.D.D.D.D.D.D.D.D.D.D.D.",
"D.D.D.D.D.D.D.D.D.D.D.D.D.D.D.D.D.D.D.D.D.D.D.D.D.D.D.D.t.0 S S.S.t.0 t.t.0.  D.D.D.D.D.D.D.D.D.D.D.D.D.D.D.D.D.D.D.D.D.D.D.D.D.",
"D.D.D.D.D.D.D.D.D.D.D.D.D.D.D.D.D.D.D.D.D.D.D.D.D.D.D.D.T t.M.2 2 2 B.L t.t.F D.D.D.D.D.D.D.D.D.D.D.D.D.D.D.D.D.D.D.D.D.D.D.D.D.",
"D.D.D.D.D.D.D.D.D.D.D.D.D.D.D.D.D.D.D.D.D.D.D.D.D.D.D.D.  G q.v.v.v.m.  G G u D.D.D.D.D.D.D.D.D.D.D.D.D.D.D.D.D.D.D.D.D.D.D.D.D.",
"D.D.D.D.D.D.D.D.D.D.D.D.D.D.D.D.D.D.D.D.D.D.D.D.D.D.D.D.D.  u i i i i         D.D.D.D.D.D.D.D.D.D.D.D.D.D.D.D.D.D.D.D.D.D.D.D.D.",
"D.D.D.D.D.D.D.D.D.D.D.D.D.D.D.D.D.D.D.D.D.D.D.D.D.D.D.D.D.D.D.D.D.D.D.D.D.D.D.D.D.D.D.D.D.D.D.D.D.D.D.D.D.D.D.D.D.D.D.D.D.D.D.D.",
"D.D.D.D.D.D.D.D.D.D.D.D.D.D.D.D.D.D.D.D.D.D.D.D.D.D.D.D.D.D.D.D.D.D.D.D.D.D.D.D.D.D.D.D.D.D.D.D.D.D.D.D.D.D.D.D.D.D.D.D.D.D.D.D.",
"D.D.D.D.D.D.D.D.D.D.D.D.D.D.D.D.D.D.D.D.D.D.D.D.D.D.D.D.D.D.D.D.D.D.D.D.D.D.D.D.D.D.D.D.D.D.D.D.D.D.D.D.D.D.D.D.D.D.D.D.D.D.D.D.",
"D.D.D.D.D.D.D.D.D.D.D.D.D.D.D.D.D.D.D.D.D.D.D.D.D.D.D.D.D.D.D.D.D.D.D.D.D.D.D.D.D.D.D.D.D.D.D.D.D.D.D.D.D.D.D.D.D.D.D.D.D.D.D.D."
};
