/* XPM */
static char *result[] = {
/* columns rows colors chars-per-pixel */
"64 64 159 2 ",
"   c black",
".  c #010102",
"X  c #040405",
"o  c #060507",
"O  c #060608",
"+  c #070608",
"@  c #08070A",
"#  c #08080B",
"$  c #09080C",
"%  c #09090C",
"&  c #0A0A0D",
"*  c #0D0B0F",
"=  c #0D0C11",
"-  c #0E0E15",
";  c #111017",
":  c #131119",
">  c #14121B",
",  c #14141E",
"<  c #171520",
"1  c #171722",
"2  c #161923",
"3  c #2A1C20",
"4  c #2D222B",
"5  c #2A222D",
"6  c #322022",
"7  c #372324",
"8  c #362326",
"9  c #382325",
"0  c #272434",
"q  c #262437",
"w  c #282330",
"e  c #282539",
"r  c #2A263B",
"t  c #2B273D",
"y  c #2C263C",
"u  c #27293E",
"i  c #242B3F",
"p  c #232D41",
"a  c #243044",
"s  c #243346",
"d  c #243547",
"f  c #243649",
"g  c #25374A",
"h  c #25374B",
"j  c #29384C",
"k  c #3B374A",
"l  c #30384D",
"z  c #443647",
"x  c #4C3646",
"c  c #573546",
"v  c #5F3545",
"b  c #6F3447",
"n  c #783749",
"m  c #274D66",
"M  c #2D4D65",
"N  c #274F68",
"B  c #3B4960",
"V  c #26526E",
"C  c #285875",
"Z  c #255B7A",
"A  c #245D7E",
"S  c #42495F",
"D  c #4A4A5E",
"F  c #5B4F5C",
"G  c #715357",
"H  c #595D7E",
"J  c #5C5D7D",
"K  c #5D5D7E",
"L  c #5D5E7F",
"P  c #803A4B",
"I  c #873C4B",
"U  c #8F3C4C",
"Y  c #BB2C5A",
"T  c #BE295C",
"R  c #AD3A54",
"E  c #B53158",
"W  c #C22C5E",
"Q  c #C83364",
"!  c #9A434D",
"~  c #9D434E",
"^  c #8B564F",
"/  c #825652",
"(  c #915950",
")  c #A0434F",
"_  c #A44151",
"`  c #9F6257",
"'  c #A8665B",
"]  c #AF675F",
"[  c #B46760",
"{  c #BC6865",
"}  c #C45E67",
"|  c #CB556B",
" . c #DB4776",
".. c #D68D7D",
"X. c #DA8D7B",
"o. c #235E80",
"O. c #235F81",
"+. c #246081",
"@. c #276681",
"#. c #2B6B81",
"$. c #2E6F80",
"%. c #2F7280",
"&. c #317480",
"*. c #347781",
"=. c #3B7280",
"-. c #337880",
";. c #5C5F80",
":. c #576683",
">. c #49798E",
",. c #448194",
"<. c #428598",
"1. c #448AA2",
"2. c #488DAB",
"3. c #539FAF",
"4. c #4C91B4",
"5. c #4F93B9",
"6. c #4F95BA",
"7. c #519CB1",
"8. c #55A4AD",
"9. c #59ACAD",
"0. c #5DB0AF",
"q. c #5FB4B1",
"w. c #61B7B2",
"e. c #63B9B4",
"r. c #BB9D9E",
"t. c #86AEB7",
"y. c #96ABB9",
"u. c #A3ACBC",
"i. c #A7ACBD",
"p. c #ABABBC",
"a. c #CB958C",
"s. c #D19184",
"d. c #DF9582",
"f. c #E19A86",
"g. c #E29E89",
"h. c #E4A28E",
"j. c #E8AB96",
"k. c #E9AD98",
"l. c #EAB09A",
"z. c #EBB19B",
"x. c #EBB39D",
"c. c #EDB6A0",
"v. c #EEBAA4",
"b. c #F1C1AB",
"n. c #F5C6B1",
"m. c #F6CCB5",
"M. c #F7CEB8",
"N. c #F8CFB9",
"B. c #F8D2BD",
"V. c #DED9D1",
"C. c #DBE0DC",
"Z. c #DAE7E6",
"A. c #DBF4F3",
"S. c #E6F6F6",
"D. c #EFFAF9",
"F. c #F7FCFB",
"G. c #FAFDFD",
"H. c white",
"J. c None",
/* pixels */
"J.J.J.J.J.J.J.J.J.J.J.J.J.J.J.J.J.J.J.J.J.J.J.J.J.J.J.J.J.J.J.J.J.J.J.J.J.J.J.J.J.J.J.J.J.J.J.J.J.J.J.J.J.J.J.J.J.J.J.J.J.J.J.J.",
"J.J.J.J.J.J.J.J.J.J.J.J.J.J.J.J.J.J.J.J.J.J.J.J.J.J.J.J.J.J.J.J.J.J.J.J.J.J.J.J.J.J.J.J.J.J.J.J.J.J.J.J.J.J.J.J.J.J.J.J.J.J.J.J.",
"J.J.J.J.J.J.J.J.J.J.J.J.J.J.J.J.J.J.J.J.J.J.J.J.J.J.J.J.J.J.J.J.J.J.J.J.J.J.J.J.J.J.J.J.J.J.J.J.J.J.J.J.J.J.J.J.J.J.J.J.J.J.J.J.",
"J.J.J.J.J.J.J.J.J.J.J.J.J.J.J.J.J.J.J.J.J.J.J.J.J.J.J.J.J.J.J.J.J.J.J.J.J.J.J.J.J.J.J.J.J.J.J.J.J.J.J.J.J.J.J.J.J.J.J.J.J.J.J.J.",
"J.J.J.J.J.J.J.J.J.J.J.J.J.J.J.J.J.J.J.J.J.J.J.J.J.J.J.J.J.J.J.J.J.J.J.J.J.J.J.J.J.J.J.J.J.J.J.J.J.J.J.J.J.J.J.J.J.J.J.J.J.J.J.J.",
"J.J.J.J.J.J.J.J.J.J.J.J.J.J.J.J.J.J.J.J.J.J.J.J.J.J.J.J.J.J.J.J.J.J.J.J.J.J.J.J.J.J.J.J.J.J.J.J.J.J.J.J.J.J.J.J.J.J.J.J.J.J.J.J.",
"J.J.J.J.J.J.J.J.J.J.J.J.J.J.J.J.J.J.J.J.J.J.J.J.J.J.J.J.J.J.J.J.J.J.J.J.J.J.J.J.J.J.J.J.J.J.J.J.J.J.J.J.J.J.J.J.J.J.J.J.J.J.J.J.",
"J.J.J.J.J.J.J.J.J.J.J.J.J.J.J.J.J.J.J.J.J.J.J.J.J.J.J.J.J.J.J.J.J.J.J.J.J.J.J.J.J.J.J.J.J.J.J.J.J.J.J.J.J.J.J.J.J.J.J.J.J.J.J.J.",
"J.J.J.J.J.J.J.J.J.J.J.J.J.J.J.J.J.J.J.J.J.J.J.J.J.J.J.J.J.J.J.J.J.J.J.J.J.J.J.J.J.J.J.J.J.J.J.J.J.J.J.J.J.J.J.J.J.J.J.J.J.J.J.J.",
"J.J.J.J.J.J.J.J.J.J.J.J.J.J.J.J.J.J.J.J.J.J.J.J.J.J.J.J.J.J.J.J.J.J.J.J.J.J.J.J.J.J.J.J.J.J.J.J.J.J.J.J.J.J.J.J.J.J.J.J.J.J.J.J.",
"J.J.J.J.J.J.J.J.J.J.J.J.J.J.J.J.J.J.J.J.J.J.J.J.J.J.J.J.J.J.J.J.J.J.J.J.J.J.J.J.J.J.J.J.J.J.J.J.J.J.J.J.J.J.J.J.J.J.J.J.J.J.J.J.",
"J.J.J.J.J.J.J.J.J.J.J.J.J.J.J.J.J.J.J.J.J.J.J.J.J.J.J.J.J.J.J.J.J.J.J.J.J.J.J.J.J.J.J.J.J.J.J.J.J.J.J.J.J.J.J.J.J.J.J.J.J.J.J.J.",
"J.J.J.J.J.J.J.J.J.J.J.J.J.J.J.J.J.J.J.J.J.J.J.J.J.J.J.J.J.J.J.J.J.J.J.J.J.J.J.J.J.J.J.J.J.J.J.J.J.J.J.J.J.J.J.J.J.J.J.J.J.J.J.J.",
"J.J.J.J.J.J.J.J.J.J.J.J.J.J.J.J.J.J.J.J.J.J.J.J.J.J.J.        J.J.J.J.J.J.J.J.J.J.J.J.J.J.J.J.J.J.J.J.J.J.J.J.J.J.J.J.J.J.J.J.J.",
"J.J.J.J.J.J.J.J.J.J.J.J.J.J.J.J.J.J.J.J.J.J.J.J.J.J.  p.L       J.J.J.J.      J.J.J.J.J.J.J.J.J.J.J.J.J.J.J.J.J.J.J.J.J.J.J.J.J.",
"J.J.J.J.J.J.J.J.J.J.J.J.J.J.J.J.J.J.J.J.J.J.J.J.J.q p.p.H u u   J.J.J.  u u L S q J.J.J.J.J.J.J.J.J.J.J.J.J.J.J.J.J.J.J.J.J.J.J.",
"J.J.J.J.J.J.J.J.J.J.J.J.J.J.J.J.J.J.J.J.J.J.J.J.D L 5.J p.L   u           e L t.p.l J.J.J.J.J.J.J.J.J.J.J.J.J.J.J.J.J.J.J.J.J.J.",
"J.J.J.J.J.J.J.J.J.J.J.J.J.J.J.J.J.J.J.J.J.J.J.J.      L p.@ L p $.e.e.e.e.8.@ t.p.L J.J.J.J.J.J.J.J.J.J.J.J.J.J.J.J.J.J.J.J.J.J.",
"J.J.J.J.J.J.J.J.J.J.J.J.J.J.J.J.J.J.J.J.J.J.J.J.1 L L L l p.B M e.e.e.e.e.e.e.N D L J.J.J.J.J.J.J.J.J.J.J.J.J.J.J.J.J.J.J.J.J.J.",
"J.J.J.J.J.J.J.J.J.J.J.J.J.J.J.J.J.J.J.J.J.J.J.J.1 S L S ;.1.=.e.e.e.e.e.e.e.e.e.C w J.J.J.J.J.J.J.J.J.J.J.J.J.J.J.J.J.J.J.J.J.J.",
"J.J.J.J.J.J.J.J.J.J.J.J.J.J.J.J.J.J.J.J.J.J.J.& ;   : L k 0.e.e.e.e.e.e.e.e.7.e.e.N J.J.J.J.J.J.J.J.J.J.J.J.J.J.J.J.J.J.J.J.J.J.",
"J.J.J.J.J.J.J.J.J.J.J.J.J.J.J.J.J.J.J.J.J.J.J.> u L L L 6.e.e.e.e.e.e.e.A.e.<.e.e.<.J.J.J.J.J.J.J.J.J.J.J.J.J.J.J.J.J.J.J.J.J.J.",
"J.J.J.J.J.J.J.J.J.J.J.J.J.J.J.J.J.J.J.J.J.J.J.q u u L #.e.e.e.e.e.e.A.A.e.%.<.C.A.q.q J.J.J.J.J.J.J.J.J.J.J.J.J.J.J.J.J.J.J.J.J.",
"J.J.J.J.J.J.J.J.J.J.J.J.J.J.J.J.J.J.J.J.J.J.  M 1   Z e.A.A.A.A.A.A.p.e.*.b <.t.p.A.l J.J.J.J.J.J.J.J.J.J.J.J.J.J.J.J.J.J.J.J.J.",
"J.J.J.J.J.J.J.J.J.J.J.J.J.J.J.J.J.J.J.J.J.J.  M 1   e.e.e.e.e.e.e.e.e.u ( X.P 7.e.e.d J.J.J.J.J.J.J.J.J.J.J.J.J.J.J.J.J.J.J.J.J.",
"J.J.J.J.J.J.J.J.J.J.J.J.J.J.J.J.J.J.J.J.J.J.  M 5   e.e.e.e.e.w.9.9.; X.d.N.{ 3 9.e.d J.J.* 3 3 > J.J.J.J.J.J.J.J.J.J.J.J.J.J.J.",
"J.J.J.J.J.J.J.J.J.J.J.J.J.J.J.J.J.J.J.J.J.J.  -.m j 8.8.e.e.3.g     { h.N.b.a.N.- 8.d J.  z b.N.l.z J.J.J.J.J.J.J.J.J.J.J.J.J.J.",
"J.J.J.J.J.J.J.J.J.J.J.J.J.J.J.J.J.J.J.J.J.J.  -.-.-.-.-.M f 7 | f.j.| N.N.N.N./ $ -.#.  z j.! N.N.z.@ J.J.J.J.J.J.J.J.J.J.J.J.J.",
"J.J.J.J.J.J.J.J.J.J.J.J.J.J.J.J.J.J.J.J.    -.-.-.-.-.-.-.% X.k.N.N.d.N.N.N.{ l.- -.-.-.z '   N.N.N.% J.J.J.J.J.J.J.J.J.J.J.J.J.",
"J.J.J.J.J.J.J.J.J.J.J.J.J.J.J.J.J.J.J.J.p -.-.-.-.-.-.-.-.% X.k.N.N.N.N.N.' N.N.- -.-.-.@ ' v < N.N.% J.J.J.J.J.J.J.J.J.J.J.J.J.",
"J.J.J.J.J.J.J.J.J.J.J.J.J.J.J.J.J.J.J.J.J.s f f %.-.9.-.e.C ` a.N.N.' ' ' { N.N.- @.p f o M b U ] ] + J.J.J.J.J.J.J.J.J.J.J.J.J.",
"J.J.J.J.J.J.J.J.J.J.J.J.J.J.J.J.J.J.J.J.J.J.J.  m q.e.-.i e.7.s.N.N.r.D.D.3 N.N.- -.#     h A o o X J.J.J.J.J.J.J.J.J.J.J.J.J.J.",
"J.J.J.J.J.J.J.J.J.J.J.J.J.J.J.J.J.J.J.J.J.J.J.> &.q.q.-.-.  6 X.m.N.y.H.D.6 M.9 &.&.&.X O.V O 5.5.l J.J.J.J.J.J.J.J.J.J.J.J.J.J.",
"J.J.J.J.J.J.J.J.J.J.J.J.J.J.J.J.J.J.J.J.J.J.J.        m m     x { { D C.X { '       @ O.+.<.6.m   J.J.J.J.J.J.J.J.J.J.J.J.J.J.J.",
"J.J.J.J.J.J.J.J.J.J.J.J.J.J.J.J.J.J.J.J.J.J.J.J.J.  ,.O.O.O.O.2 Y Q _           V O.O.O.6.6.6.N   J.J.J.J.J.J.J.J.J.J.J.J.J.J.J.",
"J.J.J.J.J.J.J.J.J.J.J.J.J.J.J.J.J.J.J.J.J.J.J.J.J.  O.O.O.1 1   - 1 N.X.  * O.O.O.O.4.6.6.6.h J.J.J.J.J.J.J.J.J.J.J.J.J.J.J.J.J.",
"J.J.J.J.J.J.J.J.J.J.J.J.J.J.J.J.J.J.J.J.J.J.J.J.J.  O.O.S $.6.6.6.6.1 1 1 1 4 & O.6.6.6.,.    J.J.J.J.J.J.J.J.J.J.J.J.J.J.J.J.J.",
"J.J.J.J.J.J.J.J.J.J.J.J.J.J.J.J.J.J.J.J.J.J.J.J.J.J.    A.6.1.,.6.6.6.6.6.2.} 9   %.a     J.J.J.J.J.J.J.J.J.J.J.J.J.J.J.J.J.J.J.",
"J.J.J.J.J.J.J.J.J.J.J.J.J.J.J.J.J.J.J.J.J.J.J.J.J.J.J.J.A.6.6.O.@.6.6.6.6.9 U >.- J.J.J.J.J.J.J.J.J.J.J.J.J.J.J.J.J.J.J.J.J.J.J.",
"J.J.J.J.J.J.J.J.J.J.J.J.J.J.J.J.J.J.J.J.J.J.J.J.J.J.J.K u.6.+.a O.+.+.+.6.6 P m . J.J.J.J.J.J.J.J.J.J.J.J.J.J.J.J.J.J.J.J.J.J.J.",
"J.J.J.J.J.J.J.J.J.J.J.J.J.J.J.J.J.J.J.J.J.J.J.J.J.J.J.K u.6.o.> m O.O.A ( R u : J.J.J.J.J.J.J.J.J.J.J.J.J.J.J.J.J.J.J.J.J.J.J.J.",
"J.J.J.J.J.J.J.J.J.J.J.J.J.J.J.J.J.J.J.J.J.J.J.        A.6.6.m     O.O.! n * 1 J.J.J.J.J.J.J.J.J.J.J.J.J.J.J.J.J.J.J.J.J.J.J.J.J.",
"J.J.J.J.J.J.J.J.J.J.J.J.J.J.J.J.J.J.J.J.J.J.- T T * G.6.6.O.m       0 u 6.2 6.p J.J.J.J.J.J.J.J.J.J.J.J.J.J.J.J.J.J.J.J.J.J.J.J.",
"J.J.J.J.J.J.J.J.J.J.J.J.J.J.J.J.J.J.J.J.J.: R : : o 9 9 : O.    : R ( O.6.2 6.p J.J.J.J.J.J.J.J.J.J.J.J.J.J.J.J.J.J.J.J.J.J.J.J.",
"J.J.J.J.J.J.J.J.J.J.J.J.J.J.J.J.J.J.J.J.J.~   O.m / N.x.{ c   8 n f m <.C ; C 2   J.J.J.J.J.J.J.J.J.J.J.J.J.J.J.J.J.J.J.J.J.J.J.",
"J.J.J.J.J.J.J.J.J.J.J.J.J.J.J.J.J.J.J.J.J.~   O.h v.N.N.` {   > o 2 2 U  . . . .- J.J.J.J.J.J.J.J.J.J.J.J.J.J.J.J.J.J.J.J.J.J.J.",
"J.J.J.J.J.J.J.J.J.J.J.J.J.J.J.J.J.J.J.J.J.~   O.h v.N.N.M.@   b Y Y Y T T  . .v   J.J.J.J.J.J.J.J.J.J.J.J.J.J.J.J.J.J.J.J.J.J.J.",
"J.J.J.J.J.J.J.J.J.J.J.J.J.J.J.J.J.J.J.J.J.q E q q ..N.N.X.  q     q ^ ^ T T ( | N.  J.J.J.J.J.J.J.J.J.J.J.J.J.J.J.J.J.J.J.J.J.J.",
"J.J.J.J.J.J.J.J.J.J.J.J.J.J.J.J.J.J.J.J.J.~ ( ^ ^ & ^ ^ ^ ( R 9 { N.N.N.Y ^ [ z.N.  J.J.J.J.J.J.J.J.J.J.J.J.J.J.J.J.J.J.J.J.J.J.",
"J.J.J.J.J.J.J.J.J.J.J.J.J.J.J.J.J.J.J.J.J.2 T W  . . .Q T T   b X.N.N.N...* | N.N.  J.J.J.J.J.J.J.J.J.J.J.J.J.J.J.J.J.J.J.J.J.J.",
"J.J.J.J.J.J.J.J.J.J.J.J.J.J.J.J.J.J.J.J.J.J.- Q  . . . .E     I N.N.N.N.x., | N.N.  J.J.J.J.J.J.J.J.J.J.J.J.J.J.J.J.J.J.J.J.J.J.",
"J.J.J.J.J.J.J.J.J.J.J.J.J.J.J.J.J.J.J.J.J.J.J.            J.- [ N.N.N.N.o ( | N.N.  J.J.J.J.J.J.J.J.J.J.J.J.J.J.J.J.J.J.J.J.J.J.",
"J.J.J.J.J.J.J.J.J.J.J.J.J.J.J.J.J.J.J.J.J.J.J.J.J.J.J.J.J.J.- [ N.N.N.j.  9 9 v v   J.J.J.J.J.J.J.J.J.J.J.J.J.J.J.J.J.J.J.J.J.J.",
"J.J.J.J.J.J.J.J.J.J.J.J.J.J.J.J.J.J.J.J.J.J.J.J.J.J.J.J.J.J.  = c.N.N.( X L p.S.F.  J.J.J.J.J.J.J.J.J.J.J.J.J.J.J.J.J.J.J.J.J.J.",
"J.J.J.J.J.J.J.J.J.J.J.J.J.J.J.J.J.J.J.J.J.J.J.J.J.J.J.J.J.  G t.:.D D w w _ ..n.n.  J.J.J.J.J.J.J.J.J.J.J.J.J.J.J.J.J.J.J.J.J.J.",
"J.J.J.J.J.J.J.J.J.J.J.J.J.J.J.J.J.J.J.J.J.J.J.J.J.J.J.J.  H r.T v.B.B.^ L i.S.H.p.  J.J.J.J.J.J.J.J.J.J.J.J.J.J.J.J.J.J.J.J.J.J.",
"J.J.J.J.J.J.J.J.J.J.J.J.J.J.J.J.J.J.J.J.J.J.J.J.J.J.J.J.  L V.H.H.H.H.K L p.S.H.5 J.J.J.J.J.J.J.J.J.J.J.J.J.J.J.J.J.J.J.J.J.J.J.",
"J.J.J.J.J.J.J.J.J.J.J.J.J.J.J.J.J.J.J.J.J.J.J.J.J.J.J.J.L L V.H.H.H.A.l L p.H.D.5 J.J.J.J.J.J.J.J.J.J.J.J.J.J.J.J.J.J.J.J.J.J.J.",
"J.J.J.J.J.J.J.J.J.J.J.J.J.J.J.J.J.J.J.J.J.J.J.J.J.J.J.J.L p.C.H.H.H.A.L L p.H.F J.J.J.J.J.J.J.J.J.J.J.J.J.J.J.J.J.J.J.J.J.J.J.J.",
"J.J.J.J.J.J.J.J.J.J.J.J.J.J.J.J.J.J.J.J.J.J.J.J.J.J.J.1 L p.H.H.H.H.p.1 k S L 2   J.J.J.J.J.J.J.J.J.J.J.J.J.J.J.J.J.J.J.J.J.J.J.",
"J.J.J.J.J.J.J.J.J.J.J.J.J.J.J.J.J.J.J.J.J.J.J.J.J.J.J.r H l H.H.H.H.: L p.p.Z.D.5 J.J.J.J.J.J.J.J.J.J.J.J.J.J.J.J.J.J.J.J.J.J.J.",
"J.J.J.J.J.J.J.J.J.J.J.J.J.J.J.J.J.J.J.J.J.J.J.J.J.J.J.r p.p.S S S S S ) ) Q Q Q - J.J.J.J.J.J.J.J.J.J.J.J.J.J.J.J.J.J.J.J.J.J.J.",
"J.J.J.J.J.J.J.J.J.J.J.J.J.J.J.J.J.J.J.J.J.J.J.J.J.J.J.J.( ! B.B.B.B.g.            J.J.J.J.J.J.J.J.J.J.J.J.J.J.J.J.J.J.J.J.J.J.J.",
"J.J.J.J.J.J.J.J.J.J.J.J.J.J.J.J.J.J.J.J.J.J.J.J.J.J.J.J.J.% y y y y t J.J.J.J.J.J.J.J.J.J.J.J.J.J.J.J.J.J.J.J.J.J.J.J.J.J.J.J.J."
};
